<svg width="121" height="32" xmlns="http://www.w3.org/2000/svg">
    <g fill="#93C2DB" fill-rule="nonzero">
        <path d="M119.069 25.23a1.828 1.828 0 01-1.826-1.824 1.828 1.828 0 011.806-1.842 1.828 1.828 0 011.841 1.807c.013.492-.174.969-.518 1.32-.344.35-.816.545-1.306.538h.003zm-.003-3.5a1.66 1.66 0 00-1.542 1.019 1.675 1.675 0 00.35 1.822c.472.48 1.186.626 1.808.37a1.668 1.668 0 001.031-1.54 1.645 1.645 0 00-.471-1.185 1.629 1.629 0 00-1.176-.487zm.446 2.825l-.47-1.018h-.38v1.018h-.276v-2.317h.68c.508 0 .717.226.717.649 0 .34-.159.551-.455.616l.486 1.05-.302.002zm-.85-1.261h.399c.323 0 .446-.11.446-.406 0-.296-.118-.398-.481-.398h-.365v.804zM91.93 23.559c.493.397 1.48.56 2.349.56 1.127 0 2.23-.21 3.31-1.19 1.104-1.003 1.855-2.544 1.855-4.994 0-2.357-.893-4.27-2.724-5.39-1.033-.653-2.37-.91-3.898-.91-.446 0-.893.023-1.15.14a.614.614 0 00-.212.33c-.047.421-.047 3.618-.047 5.508 0 1.937 0 4.644.047 4.966.023.28.165.772.47.98m-4.687-12.974c.399 0 1.916.07 2.62.07 1.319 0 2.231-.07 4.697-.07 2.067 0 3.805.56 5.05 1.633 1.504 1.307 2.307 3.128 2.307 5.344 0 3.15-1.428 4.966-2.865 5.997-1.427 1.073-3.289 1.68-5.941 1.68-1.409 0-3.828-.046-5.848-.07h-.028c-.093-.187.174-.914.338-.933.55-.063.694-.084.948-.189.426-.176.527-.395.574-1.165.07-1.446.048-3.173.048-5.133 0-1.4.023-4.13-.025-4.994-.07-.723-.374-.91-.988-1.05a12.954 12.954 0 00-1.317-.21c-.048-.14.314-.773.431-.91M107.736 11.77c-.093.023-.212.256-.212.373-.023.84-.046 3.034-.046 4.55a.15.15 0 00.118.117c.305.023 1.056.047 1.69.047.892 0 1.41-.118 1.69-.258.752-.373 1.098-1.19 1.098-2.075 0-2.03-1.408-2.801-3.498-2.801a6.28 6.28 0 00-.845.046m5.33 9.334c0-2.053-1.503-3.22-4.251-3.22-.116 0-.988-.024-1.197.024-.07.023-.14.07-.14.117 0 1.47-.025 3.826.046 4.76.047.396.33.957.682 1.12.375.21 1.22.256 1.808.256 1.62 0 3.052-.91 3.052-3.057m-9.566-10.477c.211 0 .836.07 2.433.07 1.503 0 2.724-.047 4.18-.047 1.808 0 4.297.655 4.297 3.36 0 1.331-.94 2.404-2.16 2.918-.07.023-.07.07 0 .093 1.738.441 3.264 1.517 3.264 3.57 0 2.006-1.244 3.268-3.053 4.06-1.104.491-2.466.653-3.851.653-1.057 0-3.888-.116-5.462-.093-.165-.069.15-.816.291-.933.36-.012.718-.068 1.065-.168.563-.139.63-.322.7-1.162.048-.724.048-3.31.048-5.157 0-2.52.023-4.223 0-5.064-.024-.653-.258-.864-.705-.98-.351-.07-.939-.14-1.408-.21-.118-.116.244-.817.36-.91M19.271 25.23a1.024 1.024 0 01-.072-.473.61.61 0 01.072-.315c.304-.044.605-.105.902-.184.415-.104.57-.33.596-.864.068-1.258.071-3.618.047-5.278v-.048c0-.179 0-.422-.22-.594a4.71 4.71 0 00-1.245-.552c-.197-.058-.306-.162-.3-.283.007-.121.131-.264.384-.308.68-.07 2.462-.498 3.162-.823a.465.465 0 01.094.33c0 .074-.01.151-.018.23-.02.235-.042.501-.042.766a.173.173 0 00.294.1c1.334-1.05 2.526-1.425 3.14-1.425 1.008 0 1.794.484 2.4 1.48.03.05.081.08.138.081.05 0 .098-.026.126-.068 1.227-.935 2.442-1.493 3.254-1.493 1.922 0 3.074 1.447 3.074 3.869 0 .696-.007 1.578-.013 2.402-.006.722-.011 1.399-.011 1.868 0 .11.151.428.379.491.28.138.687.209 1.2.297h.02c.04.139-.042.678-.121.789-.128 0-.303-.01-.523-.021-.398-.02-.946-.049-1.583-.049-1.277 0-1.945.026-2.583.068-.047-.16-.064-.678-.005-.785a7.02 7.02 0 00.778-.184c.407-.135.524-.32.55-.863.01-.386.083-3.783-.048-4.59-.12-.835-.747-1.813-2.118-1.813-.508 0-1.33.213-2.114.81a.314.314 0 00-.075.2v.016c.092.435.092.942.092 1.711 0 .442 0 .902-.006 1.363-.005.937-.01 1.82.006 2.488 0 .456.273.565.494.652.12.027.22.05.31.072.184.045.375.092.658.137.043.194.039.395-.01.587a.443.443 0 01-.083.2 66.766 66.766 0 00-2.49-.046c-.319 0-.839.015-1.3.027-.37.01-.724.02-.924.02a.924.924 0 01-.063-.397.707.707 0 01.073-.38l.282-.052c.246-.044.46-.082.66-.132.347-.11.478-.302.504-.746.068-1.039.121-4.03-.025-4.78-.25-1.2-.93-1.811-2.025-1.811-.64 0-1.45.31-2.111.809-.13.125-.2.3-.196.48v1.236c0 1.501-.01 3.372.027 4.182.022.248.11.544.575.653.102.03.278.058.482.093.119.02.247.04.379.065.042.264.02.535-.063.79-.204 0-.455-.013-.743-.027-.44-.018-.988-.044-1.61-.044-.735 0-1.246.026-1.657.044a15.82 15.82 0 01-.752.027M42.842 16.502a2 2 0 00-1.118.317c-.815.499-1.23 1.493-1.23 2.955 0 2.737 1.364 4.65 3.316 4.65a2.08 2.08 0 001.428-.509c.6-.492.918-1.497.918-2.904 0-2.697-1.333-4.509-3.317-4.509m.376 8.938c-3.525-.001-4.785-2.599-4.785-5.035 0-1.7.692-3.03 2.056-3.951a6.248 6.248 0 013.175-.945c2.692 0 4.573 1.946 4.573 4.733 0 1.893-.752 3.388-2.173 4.323-.682.42-1.866.874-2.846.874M78.762 16.502a1.999 1.999 0 00-1.124.317c-.815.499-1.231 1.493-1.231 2.955 0 2.737 1.363 4.65 3.317 4.65a2.08 2.08 0 001.436-.51c.6-.491.918-1.496.918-2.903 0-2.697-1.333-4.509-3.316-4.509m.376 8.938c-3.53 0-4.786-2.6-4.786-5.034 0-1.701.692-3.03 2.057-3.951a6.236 6.236 0 013.174-.945c2.693 0 4.573 1.947 4.573 4.732 0 1.895-.752 3.39-2.172 4.323-.682.421-1.867.875-2.846.875M66.884 16.408c-1.088 0-1.791.863-1.791 2.2 0 1.336.605 2.922 2.306 2.922.293 0 .823-.13 1.086-.421.395-.365.653-1.121.653-1.918 0-1.742-.843-2.783-2.255-2.783m-.142 9.217a1.795 1.795 0 00-.878.221c-.861.552-1.26 1.109-1.26 1.747 0 .601.233 1.079.732 1.504.605.514 1.42.765 2.49.765 2.11 0 3.056-1.14 3.056-2.27 0-.786-.394-1.312-1.2-1.61-.623-.23-1.663-.356-2.936-.356m.142 5.415c-1.267 0-2.18-.27-2.959-.872-.758-.588-1.098-1.46-1.098-2.063.008-.389.155-.761.415-1.05.22-.252.732-.723 1.913-1.544a.1.1 0 00.062-.094.098.098 0 00-.074-.097c-.974-.374-1.267-.993-1.355-1.324 0-.012-.006-.031-.01-.052-.029-.131-.055-.254.122-.382.136-.097.354-.227.587-.365.329-.183.644-.39.943-.618a.153.153 0 00-.038-.242c-1.44-.485-2.165-1.561-2.165-3.2a3.19 3.19 0 011.33-2.622c.58-.46 2.033-1.013 2.975-1.013h.055c.968.024 1.515.228 2.27.51.43.158.886.232 1.343.22.802 0 1.152-.256 1.453-.552.049.134.075.275.077.417a1.57 1.57 0 01-.265.961c-.164.229-.549.395-.902.395-.038 0-.072 0-.11-.005a3.21 3.21 0 01-.55-.092l-.09.031c-.028.043-.009.09.014.15.005.01.01.022.013.034.064.295.108.594.13.895 0 1.718-.672 2.467-1.401 3.02a4.772 4.772 0 01-2.424.942c-.018 0-.11.009-.28.024a8.58 8.58 0 01-.274.022h-.02c-.16.045-.573.243-.573.61 0 .305.188.684 1.08.752l.578.04c1.18.083 2.65.186 3.343.422a2.326 2.326 0 011.546 2.239c0 1.545-1.089 2.99-2.915 3.875a6.305 6.305 0 01-2.757.624M61.488 24.407c-.517-.07-.894-.14-1.338-.35a.615.615 0 01-.165-.33c-.047-.725-.047-2.824-.047-4.201 0-1.12-.188-2.097-.659-2.8-.563-.793-1.362-1.26-2.395-1.26-.915 0-2.136.629-3.147 1.493-.024.023-.179.17-.174-.059.004-.23.038-.696.06-.993a.509.509 0 00-.155-.432c-.658.33-2.509.772-3.193.84-.5.097-.625.58-.093.747h.008c.428.118.836.298 1.213.534.21.163.187.397.187.583.023 1.564.023 3.967-.046 5.275-.025.513-.165.7-.542.793l.035-.012a7.286 7.286 0 01-.87.163c-.117.116-.117.794 0 .934.236 0 1.434-.07 2.416-.07 1.362 0 2.067.07 2.416.07.142-.163.188-.794.093-.934a4.931 4.931 0 01-.963-.14c-.375-.092-.468-.28-.492-.7-.047-1.096-.047-3.43-.047-5.017 0-.441.117-.653.258-.772.47-.42 1.244-.7 1.926-.7.659 0 1.104.21 1.428.49.446.373.61.91.658 1.307.095.882.07 2.66.07 4.2 0 .84-.07 1.051-.375 1.144-.14.07-.517.14-.963.186-.14.14-.094.794 0 .934.61 0 1.318-.07 2.349-.07 1.291 0 2.112.07 2.442.07.14-.164.188-.773.094-.934M14.02 12.744c-1.674-7.426-5.631-9.868-6.056-10.8C7.496 1.283 7.027.11 7.027.11c-.009-.018-.02-.054-.035-.088C6.944.68 6.92.935 6.3 1.6 5.338 2.357.42 6.504.02 14.942c-.374 7.866 5.657 12.556 6.478 13.154l.092.065c.006.039.26 1.876.44 3.815h.637c.151-1.372.376-2.735.674-4.083l.05-.033c.364-.263.712-.55 1.04-.856l.038-.035a15.127 15.127 0 004.82-11.267 18.084 18.084 0 00-.268-2.958zm-7.067 10.91s0-11.035.367-11.035c.283 0 .65 14.235.65 14.235-.504-.06-1.017-2.342-1.017-3.2z"/>
    </g>
</svg>
