<svg width="109" height="24" viewBox="0 0 109 24" fill="none" xmlns="http://www.w3.org/2000/svg">
<g clip-path="url(#clip0)">
<path d="M11.7565 15.0973V10.8H24.3645V12.3133C24.3645 18.88 19.5098 24 12.7152 24C5.5565 24 0.364502 18.7293 0.364502 12C0.364502 5.24533 5.5885 0 12.5245 0C17.2565 0 21.2138 2.28 23.3418 5.98667L23.4645 6.2L19.1272 8.78267L18.9938 8.54933C17.5938 6 15.4645 4.73467 12.5565 4.73467C11.601 4.73097 10.6542 4.91631 9.7706 5.28002C8.88701 5.64373 8.08409 6.17862 7.40807 6.8539C6.73205 7.52918 6.19627 8.33151 5.83159 9.2147C5.46691 10.0979 5.28052 11.0445 5.28317 12C5.28317 16.1187 8.45117 19.2653 12.7152 19.2653C15.7912 19.2653 18.0765 17.776 18.9738 15.0973H11.7565Z" fill="#93C2DB"/>
<path d="M35.9072 7.54146C35.4854 7.432 35.051 7.37865 34.6152 7.38279C33.3232 7.38279 31.2885 7.89213 30.4499 9.67479V7.54146H25.6979V23.3695H30.6072V16.4588C30.6072 13.3055 32.3832 12.1588 34.3525 12.1588C34.8739 12.1518 35.3943 12.2055 35.9032 12.3188V7.54146H35.9072Z" fill="#93C2DB"/>
<path d="M52.39 15.184C52.39 10.0893 49.3233 7.06396 44.3487 7.06396C40.182 7.06396 36.3394 10.312 36.3394 15.408C36.3394 20.7253 40.2794 23.8466 44.7034 23.8466C48.7727 23.8466 51.3247 21.5533 52.0993 18.8146L47.998 17.668C47.546 18.9106 46.5447 19.7333 44.7647 19.7333C42.8594 19.7333 41.2114 18.46 41.1154 16.676H52.2887C52.3597 16.1819 52.3936 15.6831 52.39 15.184ZM41.234 13.56C41.3314 12.3826 42.3647 10.8853 44.434 10.8853C46.7593 10.8853 47.5993 12.352 47.6633 13.56H41.234Z" fill="#93C2DB"/>
<path d="M58.5566 23.3693V14.2666C58.5566 12.8333 59.4899 11.528 61.2045 11.528C62.9805 11.528 63.7872 12.7053 63.7872 14.2026V23.3746H68.6312V14.2293C68.6312 12.828 69.5645 11.5226 71.3125 11.5226C73.0605 11.5226 73.8632 12.7 73.8632 14.1973V23.3693H78.6112V13.1146C78.6112 8.81596 75.7046 7.06396 72.6686 7.06396C70.5046 7.06396 68.9552 7.76396 67.6952 9.54796C66.8872 7.98796 65.2406 7.06663 62.9486 7.06663C61.2046 7.06663 59.1365 7.95863 58.3299 9.35996V7.5413H53.6472V23.3693H58.5566Z" fill="#93C2DB"/>
<path d="M85.178 23.3748V0.308105H80.2446V23.3748H85.178Z" fill="#93C2DB"/>
<path d="M91.6593 23.3667V7.54004H86.7753V23.3667H91.6593Z" fill="#93C2DB"/>
<path d="M86.3792 2.88947C86.3792 3.45254 86.5467 4.00287 86.8604 4.47049C87.174 4.93811 87.6197 5.30188 88.1406 5.51555C88.6616 5.72922 89.2343 5.78313 89.786 5.67043C90.3377 5.55773 90.8434 5.28351 91.2388 4.88263C91.6342 4.48176 91.9015 3.97235 92.0066 3.41918C92.1117 2.86601 92.0499 2.29407 91.8291 1.7761C91.6084 1.25812 91.2385 0.817509 90.7666 0.510292C90.2948 0.203074 89.7422 0.0431308 89.1792 0.0508006C88.4329 0.0606204 87.7206 0.364065 87.1965 0.895396C86.6724 1.42673 86.3787 2.14315 86.3792 2.88947Z" fill="#93C2DB"/>
<path d="M98.1914 14.2935C98.1914 12.6935 99.2261 11.5228 100.841 11.5228C102.617 11.5228 103.455 12.7002 103.455 14.2615V23.3695H108.365V13.4335C108.365 9.96684 106.557 7.12817 102.519 7.12817C100.873 7.12817 98.9021 7.86017 98.0301 9.35751V7.54151H93.2834V23.3695H98.1914V14.2935Z" fill="#93C2DB"/>
</g>
<defs>
<clipPath id="clip0">
<rect width="108" height="24" fill="white" transform="translate(0.364502)"/>
</clipPath>
</defs>
</svg>
