<svg width="202" height="32" viewBox="0 0 202 32" fill="none" xmlns="http://www.w3.org/2000/svg">
<path d="M32.3034 1.74947C32.211 1.55065 32.0415 1.38241 31.8413 1.30594C31.2405 1.07652 30.6859 0.908293 30.1622 0.770649C28.8066 0.418881 27.374 0.235352 25.9259 0.235352C22.768 0.235352 19.7179 1.10711 17.0529 2.75888C14.3879 1.10711 11.3378 0.235352 8.16457 0.235352C6.71652 0.235352 5.2839 0.418881 3.91289 0.78594C3.38914 0.92359 2.83458 1.09182 2.24921 1.32124C2.03355 1.38241 1.8641 1.55065 1.78707 1.74947C1.69465 1.94829 1.71005 2.17771 1.80248 2.37653C2.03355 2.86594 2.29542 3.37065 2.58811 3.86006C2.72675 4.10477 2.98863 4.25771 3.26591 4.25771H3.38914L3.54319 4.21182C4.06694 4.02829 4.5907 3.86006 5.11445 3.753C6.10034 3.52359 7.11703 3.41653 8.16457 3.41653C10.3057 3.41653 12.4162 3.92123 14.311 4.88476C13.2172 5.92476 12.2621 7.11774 11.4765 8.433C11.3225 8.69301 11.153 8.98359 10.9681 9.36596C10.8449 9.58004 10.7525 9.8095 10.6447 10.0389C10.4906 10.3601 10.352 10.7118 10.2133 11.0789C9.52011 12.9295 9.16586 14.8718 9.16586 16.8754C9.16586 21.433 10.999 25.7001 14.3263 28.8812C14.5728 29.1106 14.8193 29.34 15.112 29.5695C15.3122 29.7377 15.5279 29.9212 15.759 30.0895C15.99 30.273 16.2673 30.4718 16.6062 30.7012C16.7295 30.7777 16.8835 30.8236 17.0529 30.8236C17.207 30.8236 17.3764 30.7777 17.4997 30.6859C17.8385 30.4565 18.1004 30.2577 18.3469 30.0742C18.5626 29.9212 18.7783 29.753 18.9939 29.5542C19.2866 29.3095 19.5485 29.08 19.7641 28.8659C23.0915 25.7001 24.9247 21.433 24.9247 16.8754C24.9247 14.8871 24.5703 12.9447 23.8771 11.0789C23.7385 10.7118 23.5999 10.3753 23.4458 10.0389C23.3534 9.8095 23.2455 9.59535 23.1377 9.38126C22.9683 9.06007 22.7989 8.73888 22.5986 8.41769C21.8129 7.10243 20.8578 5.90947 19.7641 4.85417C21.6589 3.89064 23.7693 3.38594 25.9105 3.38594C26.958 3.38594 27.9748 3.50829 28.9606 3.72241C29.4998 3.84476 30.0235 3.9977 30.5473 4.18123L30.6705 4.22711H30.8246C31.1019 4.22711 31.3638 4.07417 31.5024 3.84476C31.7796 3.38594 32.0415 2.88124 32.288 2.36124C32.3804 2.193 32.3958 1.94829 32.3034 1.74947ZM15.5587 26.4801C15.5433 26.5259 15.5433 26.5565 15.5279 26.6024C13.1094 24.0636 11.6305 20.6377 11.6305 16.8754C11.6305 16.4471 11.6614 16.0189 11.6922 15.5906C11.7846 14.566 11.9849 13.5565 12.2929 12.6083C13.1864 13.5413 13.9413 14.6118 14.5574 15.7589C15.6049 17.7318 16.1903 19.9647 16.1903 22.3354C16.1749 23.773 15.9592 25.1648 15.5587 26.4801ZM22.4753 16.8754C22.4753 18.5118 22.1981 20.0871 21.6743 21.5554C21.6743 21.5706 21.6743 21.5706 21.6743 21.5706C21.6589 21.5859 21.6589 21.6166 21.6435 21.6318C21.0273 23.3295 20.0876 24.8895 18.9169 26.2353C18.8091 26.3577 18.6858 26.4801 18.578 26.6024C18.424 26.0977 18.3007 25.5777 18.1929 25.0424C18.0235 24.1707 17.9156 23.253 17.9156 22.3354C17.9156 20.4541 18.2853 18.6495 18.9631 17.013C19.6409 15.3766 20.6114 13.8777 21.8283 12.6083C22.2289 13.9542 22.4753 15.3766 22.4753 16.8754ZM20.2725 9.30478C19.2404 9.54948 18.1621 9.67184 17.0529 9.67184C15.9438 9.67184 14.8655 9.54948 13.8334 9.30478C14.6961 7.94359 15.7898 6.73537 17.0529 5.74123C18.3161 6.75068 19.4098 7.94359 20.2725 9.30478Z" fill="#93C2DB"/>
<path d="M12.2326 12C14.2508 13.6092 17.7445 18.8423 15.5732 26.902C13.5549 24.943 10.0612 19.2201 12.2326 12Z" fill="#93C2DB"/>
<path d="M18.518 26.902C20.5362 25.2928 24.0299 20.0597 21.8585 12C19.8403 13.959 16.3466 19.6819 18.518 26.902Z" fill="#93C2DB"/>
<path d="M49.8586 19.382H53.718C53.2863 23.0766 50.3076 25.5211 45.7099 25.5211C40.5466 25.5211 37.2743 22.0463 37.2743 17.2308C37.2406 15.4791 37.7421 13.7589 38.7119 12.2989C39.1648 11.6362 39.7251 11.0534 40.3696 10.5745C41.9242 9.46396 43.7992 8.89028 45.7099 8.94054C50.3076 8.94054 53.2907 11.3806 53.718 15.0796H49.8586C49.4528 13.3077 47.972 12.1911 45.7315 12.1911C43.6334 12.1911 42.1655 13.1827 41.4878 14.8511C41.193 15.6095 41.0464 16.4173 41.0561 17.2308C41.0412 18.0705 41.1954 18.9047 41.5093 19.6838C42.2001 21.3091 43.6679 22.2705 45.7229 22.2705C47.972 22.2705 49.4528 21.1496 49.8586 19.382Z" fill="#93C2DB"/>
<path d="M60.5179 14.1409C56.7966 14.1409 54.5085 16.5378 54.5085 19.8315C54.5085 23.1252 56.7966 25.5221 60.5179 25.5221C64.2393 25.5221 66.51 23.1252 66.51 19.8315C66.51 16.5378 64.2217 14.1409 60.5179 14.1409ZM60.5179 22.6294C58.8818 22.6294 57.9276 21.4654 57.9276 19.8315C57.9276 18.1976 58.8688 17.0293 60.5179 17.0293C62.167 17.0293 63.1082 18.1933 63.1082 19.8315C63.1082 21.4697 62.1368 22.6294 60.5179 22.6294Z" fill="#93C2DB"/>
<path d="M73.2832 22.6079C71.8025 22.6079 70.9046 21.6206 70.9046 19.8315C70.9046 18.0424 71.8025 17.0509 73.2832 17.0509C74.5394 17.0509 75.1869 17.5208 75.4417 18.5296H78.8738C78.6022 15.8437 76.4952 14.1409 73.2619 14.1409C69.6917 14.1409 67.4724 16.4257 67.4724 19.8315C67.4724 23.2373 69.6917 25.5221 73.2619 25.5221C76.4908 25.5221 78.5978 23.8408 78.8738 21.211H75.4373C75.1869 22.1595 74.5394 22.6079 73.2832 22.6079Z" fill="#93C2DB"/>
<path d="M86.7094 19.8315L91.0263 14.7228H86.9855L83.4329 19.2883V9.83838H80.0139V25.5221H83.4241V20.8144L86.8776 25.5221H91.0696L86.7094 19.8315Z" fill="#93C2DB"/>
<path d="M98.344 14.5462C97.6394 14.5424 96.9555 14.7847 96.4108 15.231C95.8662 15.6774 95.4947 16.2997 95.3605 16.9906V14.7229H91.907V25.5222H95.3605V21.3534C95.3605 18.9565 96.1247 17.6804 97.9851 17.6804L99.816 15.1584C99.417 14.7809 98.893 14.5631 98.344 14.5462Z" fill="#93C2DB"/>
<path d="M105.009 14.1409C101.284 14.1409 98.9958 16.5378 98.9958 19.8315C98.9958 23.1252 101.284 25.5221 105.009 25.5221C108.735 25.5221 110.997 23.1252 110.997 19.8315C110.997 16.5378 108.709 14.1409 105.009 14.1409ZM105.009 22.6294C103.369 22.6294 102.419 21.4654 102.419 19.8315C102.419 18.1976 103.36 17.0293 105.009 17.0293C106.658 17.0293 107.599 18.1933 107.599 19.8315C107.599 21.4697 106.624 22.6294 105.009 22.6294Z" fill="#93C2DB"/>
<path d="M120.53 14.4297V15.9773C120.188 15.3897 119.691 14.9073 119.093 14.5833C118.495 14.2594 117.82 14.1062 117.141 14.1408C113.998 14.1408 112.003 16.6025 112.003 19.8314C112.003 23.0605 113.864 25.5221 117.093 25.5221C118.595 25.5221 119.942 24.7806 120.525 23.7071V25.229H123.935V14.4512L120.53 14.4297ZM118.086 22.6768C116.493 22.6768 115.496 21.4654 115.496 19.8314C115.496 18.1976 116.484 17.0077 118.086 17.0077C119.791 17.0077 120.676 18.301 120.676 19.8314C120.676 21.3619 119.791 22.6768 118.086 22.6768Z" fill="#93C2DB"/>
<path d="M130.986 22.6079C129.505 22.6079 128.607 21.6206 128.607 19.8315C128.607 18.0424 129.505 17.0509 130.986 17.0509C132.242 17.0509 132.894 17.5208 133.144 18.5296H136.567C136.299 15.8437 134.189 14.1409 130.955 14.1409C127.385 14.1409 125.166 16.4257 125.166 19.8315C125.166 23.2373 127.385 25.5221 130.955 25.5221C134.184 25.5221 136.295 23.8408 136.567 21.211H133.135C132.894 22.1595 132.25 22.6079 130.986 22.6079Z" fill="#93C2DB"/>
<path d="M144.628 14.4297C142.987 14.4297 141.757 15.0807 141.127 16.2921V9.82544H137.694V25.5221H141.127V19.8746C141.127 18.2192 141.843 17.3224 143.212 17.3224C144.58 17.3224 145.12 18.1501 145.12 19.9651V25.5221H148.574V18.8572C148.578 15.9084 147.252 14.4297 144.628 14.4297Z" fill="#93C2DB"/>
<path d="M164.141 22.3061H159.88V9.83838H156.245V25.5221H166.07L164.141 22.3061Z" fill="#93C2DB"/>
<path d="M173.604 14.4297V15.9773C173.262 15.3897 172.766 14.9073 172.168 14.5833C171.57 14.2594 170.894 14.1062 170.215 14.1408C167.076 14.1408 165.077 16.6025 165.077 19.8314C165.077 23.0605 166.938 25.5221 170.172 25.5221C171.674 25.5221 173.021 24.7806 173.625 23.7071V25.229H177.035V14.4512L173.604 14.4297ZM171.156 22.6768C169.563 22.6768 168.565 21.4654 168.565 19.8314C168.565 18.1976 169.55 17.0077 171.156 17.0077C172.861 17.0077 173.746 18.301 173.746 19.8314C173.746 21.3619 172.861 22.6768 171.156 22.6768Z" fill="#93C2DB"/>
<path d="M185.35 14.1408C184.651 14.1159 183.957 14.2719 183.336 14.5936C182.715 14.9155 182.188 15.3921 181.806 15.9774V9.54517H178.396V25.229H181.806V23.7072C182.174 24.2839 182.685 24.7548 183.291 25.0732C183.897 25.3916 184.575 25.5463 185.26 25.5221C188.243 25.5221 190.332 23.2114 190.332 19.8315C190.332 16.4516 188.299 14.1408 185.35 14.1408ZM184.271 22.6768C182.747 22.6768 181.681 21.5344 181.681 19.8315C181.681 18.1286 182.734 17.0077 184.271 17.0077C185.808 17.0077 186.831 18.1717 186.831 19.8315C186.831 21.4913 185.782 22.6768 184.258 22.6768H184.271Z" fill="#93C2DB"/>
<path d="M197.87 18.8571L195.582 18.2277C194.718 18.0035 194.39 17.6931 194.39 17.1973C194.39 16.7016 194.887 16.3352 195.625 16.3352C196.545 16.3352 197.106 16.7361 197.106 17.4991H200.46C200.46 15.3436 198.686 14.1624 195.634 14.1624C192.854 14.1624 191.014 15.5031 191.014 17.5422C191.014 19.1805 192.003 20.2755 193.73 20.7023L195.996 21.2627C196.916 21.4869 197.162 21.78 197.162 22.2715C197.162 22.8967 196.644 23.2588 195.905 23.2588C194.853 23.2588 194.132 22.7414 194.132 22.0042H190.721C190.721 24.1081 192.763 25.5437 195.836 25.5437C198.708 25.5437 200.586 24.2201 200.586 21.9784C200.59 20.3229 199.558 19.2883 197.87 18.8571Z" fill="#93C2DB"/>
</svg>
