<svg width="107" height="20" viewBox="0 0 107 20" fill="none" xmlns="http://www.w3.org/2000/svg">
<g clip-path="url(#clip0)">
<path fill-rule="evenodd" clip-rule="evenodd" d="M82.51 11.4487C82.5624 10.1652 83.5054 9.37935 84.946 9.37935C86.3606 9.37935 87.1988 10.1652 87.2252 11.4487H82.51ZM84.7888 5.76464C80.5454 5.76464 77.6636 8.51504 77.6636 12.5749C77.6636 16.7405 80.5191 19.2813 85.1819 19.2813C87.2307 19.2813 89.0727 18.7224 90.579 17.6419C90.8831 17.4238 90.928 16.9869 90.6794 16.7077L89.147 14.986C89.0523 14.8793 88.924 14.8081 88.7833 14.7841C88.6427 14.7602 88.498 14.785 88.3733 14.8544C87.4749 15.3544 86.4595 15.5878 85.4439 15.5878C83.7934 15.5878 82.7456 14.8278 82.4836 13.8326H91.0397C91.1932 13.8318 91.3412 13.7756 91.4566 13.6744C91.572 13.5732 91.647 13.4338 91.6679 13.2818C92.2944 8.85849 89.5448 5.76464 84.7888 5.76464V5.76464ZM106.21 6.05265H102.536C102.276 6.05265 102.043 6.21176 101.948 6.45376L100.691 9.66764L99.3547 13.8589L98.0189 9.66764L96.7612 6.45376C96.7149 6.3355 96.6339 6.23396 96.529 6.1624C96.4241 6.09084 96.3 6.05259 96.173 6.05265H92.3964C92.2921 6.05266 92.1895 6.07847 92.0977 6.12777C92.0059 6.17708 91.9277 6.24835 91.8701 6.33522C91.8125 6.4221 91.7773 6.52188 91.7677 6.62566C91.758 6.72944 91.7742 6.83399 91.8148 6.92999L96.7556 18.6077C96.8039 18.722 96.8849 18.8196 96.9883 18.8882C97.0917 18.9567 97.2131 18.9933 97.3372 18.9933H101.293C101.547 18.9933 101.777 18.8408 101.875 18.6066L106.792 6.92916C106.832 6.83316 106.848 6.72864 106.839 6.62493C106.829 6.52122 106.794 6.42154 106.736 6.33476C106.678 6.24799 106.6 6.17682 106.508 6.1276C106.417 6.07837 106.314 6.05263 106.21 6.05265V6.05265ZM37.9791 10.6894C37.0361 10.6367 36.6957 10.4532 36.6957 10.0868C36.6957 9.61525 37.1932 9.43202 38.1887 9.43202C39.3 9.43202 40.2718 9.60638 41.0613 9.91241C41.3582 10.0274 41.6933 9.91601 41.8497 9.63853L43.0067 7.58364C43.0493 7.50813 43.076 7.42466 43.0849 7.33842C43.0939 7.25219 43.0851 7.16503 43.059 7.08236C43.0328 6.99968 42.99 6.92327 42.9331 6.85786C42.8762 6.79245 42.8064 6.73944 42.7281 6.70213C41.5109 6.1214 39.7865 5.68591 38.0052 5.68591C34.2854 5.68591 32.0326 7.38876 32.0326 10.0344C32.0326 12.497 34.2593 14.1209 37.4552 14.2517C38.6862 14.3041 39.0793 14.54 39.0793 14.9586C39.0793 15.378 38.6602 15.5878 37.848 15.5878C36.5047 15.5878 34.9235 15.291 33.6728 14.7488C33.364 14.6149 33.0055 14.7363 32.852 15.0359L31.749 17.189C31.5954 17.4895 31.7016 17.8598 31.9951 18.0261C33.4011 18.8242 35.2969 19.3595 37.4815 19.3595C41.5154 19.3595 43.7682 17.7096 43.7682 14.9589C43.7682 12.3393 41.5417 10.8987 37.9791 10.6894V10.6894ZM68.3749 15.3259C66.8295 15.3259 65.7816 14.1996 65.7816 12.5234C65.7816 10.8466 66.8295 9.72003 68.3749 9.72003C69.9205 9.72003 70.9681 10.8466 70.9681 12.5231C70.9681 14.1996 69.9205 15.3259 68.3749 15.3259V15.3259ZM74.7719 0.160165L71.2675 1.89351C71.1619 1.94571 71.0731 2.02638 71.011 2.1264C70.9489 2.22642 70.916 2.34182 70.916 2.45956V7.20526C69.8942 6.26221 68.6368 5.79069 67.1438 5.79069C63.5812 5.79069 61.0662 8.56743 61.0662 12.5231C61.0662 16.4788 63.5812 19.2552 67.1438 19.2552C68.794 19.2552 70.1825 18.6526 71.2827 17.4739L71.454 18.4691C71.4795 18.6157 71.5559 18.7487 71.6698 18.8446C71.7837 18.9404 71.9278 18.993 72.0766 18.993H75.0518C75.1348 18.993 75.2169 18.9767 75.2935 18.9449C75.3701 18.9132 75.4397 18.8667 75.4984 18.808C75.557 18.7494 75.6035 18.6798 75.6352 18.6032C75.667 18.5266 75.6833 18.4445 75.6833 18.3615V0.725934C75.6833 0.25774 75.1915 -0.0474598 74.7719 0.159887V0.160165ZM59.7447 17.3894C59.7447 16.7572 59.4936 16.1508 59.0466 15.7038C58.5996 15.2567 57.9933 15.0055 57.3611 15.0054C56.7288 15.0054 56.1225 15.2566 55.6754 15.7037C55.2283 16.1508 54.9771 16.7571 54.9771 17.3894H54.9874C54.984 17.7046 55.0431 18.0173 55.1614 18.3095C55.2797 18.6017 55.4547 18.8676 55.6764 19.0917C55.8981 19.3158 56.1621 19.4937 56.453 19.6151C56.7439 19.7365 57.056 19.799 57.3712 19.799C57.6864 19.799 57.9985 19.7365 58.2894 19.6151C58.5803 19.4937 58.8443 19.3158 59.066 19.0917C59.2876 18.8676 59.4627 18.6017 59.581 18.3095C59.6992 18.0173 59.7584 17.7046 59.755 17.3894H59.7447V17.3894ZM29.7814 2.40467C29.7848 2.08946 29.7257 1.77671 29.6074 1.48451C29.4891 1.19231 29.3141 0.926475 29.0924 0.702378C28.8707 0.478281 28.6067 0.300376 28.3158 0.178959C28.0249 0.0575429 27.7128 -0.00497437 27.3976 -0.00497437C27.0824 -0.00497437 26.7703 0.0575429 26.4794 0.178959C26.1885 0.300376 25.9245 0.478281 25.7028 0.702378C25.4812 0.926475 25.3061 1.19231 25.1878 1.48451C25.0696 1.77671 25.0104 2.08946 25.0138 2.40467H25.0241C25.0308 3.03244 25.285 3.6322 25.7313 4.07373C26.1776 4.51525 26.7801 4.7629 27.4079 4.7629C28.0357 4.7629 28.6381 4.51525 29.0845 4.07373C29.5308 3.6322 29.7849 3.03244 29.7917 2.40467H29.7814ZM29.7371 6.44378C29.6887 6.32947 29.6077 6.23195 29.5042 6.16338C29.4007 6.09481 29.2793 6.05822 29.1552 6.05819H25.6505C25.4831 6.05819 25.3225 6.12472 25.204 6.24315C25.0856 6.36157 25.0191 6.52218 25.0191 6.68966V18.3615C25.0191 18.529 25.0856 18.6896 25.204 18.808C25.3225 18.9265 25.4831 18.993 25.6505 18.993H29.1552C29.3227 18.993 29.4833 18.9265 29.6017 18.808C29.7201 18.6896 29.7867 18.529 29.7867 18.3615V6.68966C29.7867 6.60234 29.7689 6.51918 29.7371 6.44378" fill="#93C2DB"/>
<path fill-rule="evenodd" clip-rule="evenodd" d="M49.8537 11.4487C49.9061 10.1652 50.8491 9.37935 52.2897 9.37935C53.7043 9.37935 54.5426 10.1652 54.5689 11.4487H49.8537V11.4487ZM52.1328 5.76463C47.8892 5.76463 45.0076 8.51503 45.0076 12.5749C45.0076 16.7404 47.8628 19.2813 52.5256 19.2813C52.7604 19.2813 52.9922 19.2724 53.2209 19.2563C53.3808 19.2451 53.5305 19.1736 53.6399 19.0563C53.7492 18.939 53.81 18.7847 53.8099 18.6243V16.1955C53.8099 15.829 53.4956 15.5521 53.1299 15.5762C53.016 15.5838 52.9018 15.5877 52.7876 15.5878C51.1371 15.5878 50.0896 14.8278 49.8274 13.8326H58.3835C58.7034 13.8326 58.9678 13.592 59.0124 13.2754C59.6356 8.85571 56.8863 5.76463 52.1328 5.76463V5.76463ZM15.5458 15.666C14.6812 15.666 14.1575 15.2735 14.1575 14.5924C14.1575 13.9113 14.6815 13.4919 15.5982 13.4919C16.3053 13.4919 17.2747 13.7541 17.7199 14.0158C17.563 14.9852 16.6984 15.6663 15.5458 15.6663V15.666ZM15.7293 5.73857C13.8934 5.73857 12.2482 6.07648 10.85 6.69658C10.7175 6.75437 10.6088 6.85554 10.5415 6.98343C10.4743 7.11132 10.4527 7.25829 10.4802 7.40012L10.8696 9.38018C10.9428 9.75135 11.3248 9.98004 11.6832 9.85891C12.7968 9.48136 14.0954 9.24851 15.179 9.24851C16.7508 9.24851 17.5103 9.74636 17.6938 10.8466C16.9079 10.5843 15.8341 10.4011 14.8123 10.4011C11.538 10.4011 9.44233 12.1558 9.44233 14.8541C9.44233 17.5263 11.276 19.2292 14.1051 19.2292C15.7817 19.2292 17.013 18.6789 18.0345 17.4215L18.2277 18.4757C18.2543 18.621 18.3311 18.7523 18.4445 18.8469C18.558 18.9414 18.7009 18.9932 18.8486 18.9933H21.8299C21.9974 18.9932 22.158 18.9266 22.2764 18.8082C22.3948 18.6898 22.4613 18.5293 22.4614 18.3618V10.8726C22.4614 10.777 22.4531 10.6883 22.4503 10.5954C22.4323 10.0918 22.3685 9.62772 22.2546 9.2061C21.6137 6.83297 19.4513 5.7383 15.7293 5.7383V5.73857ZM7.12492 5.69006C5.82207 5.69006 4.76732 6.7365 4.7457 8.03408L4.06157 6.45819C3.92102 6.19041 3.73336 6.05625 3.47362 6.05625H0.631467C0.548495 6.05625 0.466336 6.0726 0.389687 6.10437C0.313038 6.13614 0.243401 6.1827 0.184756 6.2414C0.126112 6.30009 0.0796101 6.36977 0.0479085 6.44645C0.016207 6.52312 -7.2603e-05 6.6053 2.43395e-07 6.68827V18.3624C2.354e-07 18.4453 0.0163356 18.5274 0.0480732 18.604C0.0798107 18.6806 0.126329 18.7502 0.184969 18.8088C0.24361 18.8674 0.313224 18.9139 0.389836 18.9456C0.466447 18.9773 0.548554 18.9936 0.631467 18.9935H4.13475C4.21766 18.9936 4.29977 18.9773 4.37638 18.9456C4.45299 18.9139 4.5226 18.8674 4.58124 18.8088C4.63988 18.7502 4.6864 18.6806 4.71814 18.604C4.74988 18.5274 4.76621 18.4453 4.76621 18.3624V8.31461C4.88901 9.51573 5.89165 10.456 7.12492 10.456C7.75693 10.456 8.36304 10.2049 8.80994 9.75804C9.25683 9.31115 9.50789 8.70503 9.50789 8.07303C9.50789 7.44103 9.25683 6.83491 8.80994 6.38802C8.36304 5.94113 7.75693 5.69006 7.12492 5.69006" fill="#93C2DB"/>
</g>
<defs>
<clipPath id="clip0">
<rect width="107" height="20" fill="white"/>
</clipPath>
</defs>
</svg>
