<svg xmlns="http://www.w3.org/2000/svg" viewBox="0 0 450 120" width="120" height="32">
<path d="M135.6 94.68V34.49h7.89l.55 5.63.46-.7c2.42-3.62 7.56-6 13.12-6 11.17 0 19.27 9 19.27 21.42s-8.1 21.5-19.27 21.5c-5.34 0-10.48-2.34-12.8-5.83l-.55-.83v25zM156 41c-6.56 0-11.71 4.73-11.71 10.76V58c0 6 5.15 10.77 11.71 10.77 7.33 0 12.06-5.45 12.06-13.87S163.31 41 156 41zm32 34.35V34.49h7.81l.64 6.56.46-.93a11.89 11.89 0 0111-6.4 11.48 11.48 0 014.06.69v7.72a27.89 27.89 0 00-3.62-.26c-7.71 0-11.62 4.32-11.62 12.84v20.64zm50.86 1.03c-12.26 0-21.16-9-21.16-21.5s8.9-21.42 21.16-21.42S260 42.47 260 54.88s-8.87 21.5-21.14 21.5zm0-35.37c-7.25 0-12.31 5.7-12.31 13.87 0 8.35 4.95 13.95 12.31 13.95s12.32-5.6 12.32-13.95c0-8.17-5.06-13.88-12.32-13.88zm50.87 54.7c-10.39 0-18-5.2-20-13.56l8.19-2.15c1.71 5.33 5.93 8.27 11.88 8.27 7.65 0 12.41-4.89 12.41-12.75v-6.59l-.55.78c-2.52 3.58-7.59 5.81-13.24 5.81-11.11 0-19.17-8.83-19.17-21s8.24-21.07 19.17-21.07c5.65 0 10.86 2.34 13.3 6l.46.7.55-5.63h7.8v40.72c.01 12.63-7.96 20.47-20.8 20.47zm.43-54.7c-7.1 0-12.06 5.56-12.06 13.52s5 13.53 12.06 13.53c6.57 0 11.71-4.69 11.71-10.68v-5.7c0-5.98-5.14-10.68-11.71-10.68zm50.11 35.37c-11.16 0-19.26-9-19.26-21.5s8.1-21.42 19.26-21.42c5.61 0 10.8 2.34 13.21 6l.47.7.54-5.63h7.81v40.82h-7.81l-.49-5.63-.47.7c-2.46 3.58-7.65 5.96-13.26 5.96zM341.91 41c-7.21 0-12.05 5.57-12.05 13.87s4.73 13.87 12.05 13.87c6.68 0 11.72-4.63 11.72-10.77v-6.2c0-6.03-5.15-10.77-11.72-10.77zm53.55 35.38c-10 0-14.52-4.77-14.52-15.46V42h-7.16v-7.51h7.16V24.31h8.68v10.18h11.21V42h-11.21v18.7c0 6.18 1.95 8.26 7.74 8.26a19.37 19.37 0 003.79-.34v7.21a24.44 24.44 0 01-5.69.55zm34.85 0c-12.36 0-21-8.73-21-21.24s8.9-21.68 21.16-21.68c11.67 0 19.52 8 19.52 20a23.42 23.42 0 01-.26 3.45h-31.66v.33c.8 7.39 5.43 11.76 12.41 11.76 4.9 0 8.62-2.18 10.76-6.29l7.81 2.09c-2.73 7.2-9.91 11.58-18.74 11.58zm.17-35.8c-6.17 0-10.53 3.53-12 9.68l-.09.37h22.91l-.06-.35c-.95-6.28-4.79-9.7-10.76-9.7z" fill="#93C2DB"/>
<path d="M35.53 120a85.73 85.73 0 01-17.29-3.49c-6.22-1.82-14.5-5-14.57-11.6 0-4.73 2.7-8.78 8.38-12.39a79.16 79.16 0 018-4.22c2.44-1.12 7.33-3.26 11-4.64V24.87L9 22.49v63.28A4.24 4.24 0 014.52 90 4.25 4.25 0 010 85.77V17.45a4.53 4.53 0 014.52-4.52A4 4 0 015 13l31 3.35a4.51 4.51 0 014 4.5V80c4.27-1.73 8.41-3.51 12-5.15 11.35-5.18 19-10.46 23.35-16.19 5.28-6.87 6.09-15.38 5.84-21.3a31.33 31.33 0 00-6.27-17.58 27.5 27.5 0 00-10.48-8.63 31.05 31.05 0 00-8.32-2.43c-3-.41-4.48-2.55-4.32-4.69s1.92-3.75 4.44-4c4.32-.36 7.52.73 11.88 2.68a38.81 38.81 0 0114.31 11.6 40.85 40.85 0 018 22.62A44.85 44.85 0 0188 54.34a36.81 36.81 0 01-5.44 9.83C74.64 74.5 60.6 80.88 56 83c-4.34 2-14 6-15.9 6.76v25.74a4.54 4.54 0 01-1.55 3.41 4.59 4.59 0 01-2.84 1.09zm-4.48-26.6c-2.76 1-7 2.56-8.6 3.3s-6.08 2.83-8.06 4.55c-.5.43-2.08 1.93-1.69 3.15s2.23 1.87 9.52 3.83c2.59.7 5.63 1.37 8.83 2z" fill="#93C2DB"/>
</svg>
