<svg width="120" height="25" viewBox="0 0 120 25" fill="none" xmlns="http://www.w3.org/2000/svg">
<path d="M36.1603 17.2583V1.20759H38.2643L38.4109 2.70892L38.5336 2.52225C39.1789 1.55692 40.5496 0.922253 42.0323 0.922253C45.0109 0.922253 47.1709 3.32225 47.1709 6.63425C47.1709 9.94625 45.0109 12.3676 42.0323 12.3676C40.6083 12.3676 39.2376 11.7436 38.6189 10.8129L38.4723 10.5916V17.2583H36.1603ZM41.6003 2.94359C39.8509 2.94359 38.4776 4.20492 38.4776 5.81292V7.47692C38.4776 9.07692 39.8509 10.3489 41.6003 10.3489C43.5549 10.3489 44.8163 8.89559 44.8163 6.65025C44.8163 4.40492 43.5496 2.94359 41.6003 2.94359ZM50.1336 12.1036V1.20759H52.2163L52.3869 2.95692L52.5096 2.70892C52.7866 2.17575 53.2094 1.73225 53.7287 1.4301C54.248 1.12794 54.8425 0.979568 55.4429 1.00225C55.812 0.997826 56.1788 1.06016 56.5256 1.18625V3.24492C56.2057 3.20088 55.8832 3.17771 55.5603 3.17559C53.5043 3.17559 52.4616 4.32759 52.4616 6.59959V12.1036H50.1336ZM63.6963 12.3783C60.4269 12.3783 58.0536 9.97825 58.0536 6.64492C58.0536 3.31159 60.4269 0.93292 63.6963 0.93292C66.9656 0.93292 69.3336 3.33559 69.3336 6.64492C69.3336 9.95425 66.9683 12.3783 63.6963 12.3783ZM63.6963 2.94625C61.7629 2.94625 60.4136 4.46625 60.4136 6.64492C60.4136 8.87159 61.7336 10.3649 63.6963 10.3649C65.6589 10.3649 66.9816 8.87159 66.9816 6.64492C66.9816 4.46625 65.6323 2.94359 63.6963 2.94359V2.94625ZM77.2616 17.5329C74.4909 17.5329 72.4616 16.1463 71.9283 13.9169L74.1123 13.3436C74.5683 14.7649 75.6936 15.5489 77.2803 15.5489C79.3203 15.5489 80.5896 14.2449 80.5896 12.1489V10.3916L80.4429 10.5996C79.7709 11.5543 78.4189 12.1489 76.9123 12.1489C73.9496 12.1489 71.8003 9.79425 71.8003 6.54892C71.8003 3.30359 73.9976 0.930254 76.9123 0.930254C78.4189 0.930254 79.8083 1.55425 80.4589 2.53025L80.5816 2.71692L80.7283 1.21559H82.8083V12.0743C82.8109 15.4423 80.6856 17.5329 77.2616 17.5329ZM77.3763 2.94625C75.4829 2.94625 74.1603 4.42892 74.1603 6.55159C74.1603 8.67425 75.4936 10.1596 77.3763 10.1596C79.1283 10.1596 80.4989 8.90892 80.4989 7.31159V5.79159C80.4989 4.19692 79.1283 2.94359 77.3763 2.94359V2.94625ZM90.7389 12.3783C87.7629 12.3783 85.6029 9.97825 85.6029 6.64492C85.6029 3.31159 87.7629 0.93292 90.7389 0.93292C92.2349 0.93292 93.6189 1.55692 94.2616 2.53292L94.3869 2.71959L94.5309 1.21825H96.6136V12.1036H94.5309L94.4003 10.6023L94.2749 10.7889C93.6189 11.7436 92.2349 12.3783 90.7389 12.3783ZM91.1763 2.94359C89.2536 2.94359 87.9629 4.42892 87.9629 6.64225C87.9629 8.85559 89.2243 10.3409 91.1763 10.3409C92.9576 10.3409 94.3016 9.10625 94.3016 7.46892V5.81559C94.3016 4.20759 92.9283 2.94359 91.1763 2.94359ZM105.456 12.3783C102.79 12.3783 101.584 11.1063 101.584 8.25559V3.21025H99.6749V1.20759H101.584V-1.50708H103.899V1.20759H106.888V3.21025H103.899V8.19692C103.899 9.84492 104.419 10.3996 105.963 10.3996C106.302 10.4026 106.641 10.3722 106.974 10.3089V12.2316C106.475 12.3397 105.966 12.3889 105.456 12.3783ZM114.75 12.3783C111.454 12.3783 109.15 10.0503 109.15 6.71425C109.15 3.37825 111.523 0.93292 114.792 0.93292C117.904 0.93292 119.998 3.06625 119.998 6.26625C119.997 6.57421 119.974 6.88172 119.928 7.18625H111.486V7.27425C111.699 9.24492 112.934 10.4103 114.795 10.4103C116.102 10.4103 117.094 9.82892 117.664 8.73292L119.747 9.29026C119.019 11.2103 117.104 12.3783 114.75 12.3783ZM114.795 2.83159C113.15 2.83159 111.987 3.77292 111.595 5.41292L111.571 5.51159H117.68L117.664 5.41825C117.411 3.74359 116.387 2.83159 114.795 2.83159Z" fill="#93C2DB"/>
<path d="M9.47467 24.0102C7.90987 23.8593 6.3648 23.5474 4.864 23.0795C3.20533 22.5942 0.997333 21.7462 0.978667 19.9862C0.978667 18.7248 1.69867 17.6448 3.21333 16.6822C3.90242 16.2667 4.61469 15.891 5.34667 15.5569C5.99733 15.2582 7.30133 14.6875 8.28 14.3195V-1.35781L2.4 -1.99248V14.8822C2.39988 15.036 2.36839 15.1881 2.30745 15.3293C2.24651 15.4706 2.1574 15.5979 2.04557 15.7034C1.93374 15.809 1.80155 15.8907 1.65707 15.9434C1.5126 15.9962 1.35889 16.0189 1.20533 16.0102C1.05101 16.02 0.8963 15.9981 0.750738 15.9459C0.605175 15.8937 0.471836 15.8123 0.358927 15.7066C0.246018 15.601 0.155927 15.4733 0.0942002 15.3315C0.032473 15.1897 0.000415305 15.0368 0 14.8822L0 -3.33648C0.00070443 -3.65594 0.127921 -3.96211 0.353812 -4.188C0.579703 -4.41389 0.885876 -4.54111 1.20533 -4.54181C1.24834 -4.53819 1.29108 -4.53195 1.33333 -4.52315L9.6 -3.62981C9.89439 -3.59631 10.1661 -3.45532 10.3629 -3.23387C10.5597 -3.01242 10.6679 -2.7261 10.6667 -2.42981V13.3435C11.8053 12.8822 12.9093 12.4075 13.8667 11.9702C16.8933 10.5889 18.9333 9.18085 20.0933 7.65285C21.5013 5.82085 21.7173 3.55152 21.6507 1.97285C21.5826 0.276608 20.9993 -1.35864 19.9787 -2.71515C19.2541 -3.70376 18.2932 -4.49498 17.184 -5.01648C16.4784 -5.33515 15.7315 -5.55327 14.9653 -5.66448C14.1653 -5.77381 13.7707 -6.34448 13.8133 -6.91514C13.856 -7.48581 14.3253 -7.91514 14.9973 -7.98181C16.1493 -8.07781 17.0027 -7.78714 18.1653 -7.26714C19.6672 -6.55723 20.976 -5.49623 21.9813 -4.17381C23.2802 -2.42202 24.0234 -0.320693 24.1147 1.85819C24.207 3.43333 23.9868 5.01119 23.4667 6.50085C23.1201 7.44371 22.6308 8.32778 22.016 9.12218C19.904 11.8769 16.16 13.5782 14.9333 14.1435C13.776 14.6768 11.2 15.7435 10.6933 15.9462V22.8102C10.6931 22.9824 10.6561 23.1526 10.5848 23.3095C10.5135 23.4663 10.4096 23.6061 10.28 23.7195C10.0679 23.8997 9.80081 24.0022 9.52267 24.0102H9.47467ZM8.28 16.9168C7.544 17.1835 6.41333 17.5995 5.98667 17.7968C5.56 17.9942 4.36533 18.5515 3.83733 19.0102C3.704 19.1248 3.28267 19.5248 3.38667 19.8502C3.49067 20.1755 3.98133 20.3488 5.92533 20.8715C6.616 21.0582 7.42667 21.2368 8.28 21.4048V16.9168Z" fill="#93C2DB"/>
</svg>
