<svg width="79" height="24" viewBox="0 0 79 24" fill="none" xmlns="http://www.w3.org/2000/svg">
<path d="M76.6913 3.14711C77.5481 3.16152 78.2736 2.45201 78.2755 1.59506C78.2988 0.739627 77.5977 0.0108958 76.7193 0.000118781C75.858 -0.0104686 75.1527 0.688112 75.1332 1.53542C75.1132 2.40504 75.8027 3.13213 76.6913 3.14711Z" fill="#93C2DB"/>
<path d="M47.1012 4.37183C46.4007 4.37183 45.8276 4.94493 45.8276 5.64537V12.2947C45.8276 14.3402 44.1694 15.9984 42.1239 15.9984C40.0784 15.9984 38.4202 14.3402 38.4202 12.2947V5.64537C38.4202 4.94493 37.847 4.37183 37.1466 4.37183C36.4461 4.37183 35.873 4.94493 35.873 5.64537V12.2947C35.873 15.7469 38.6717 18.5455 42.1239 18.5455C45.5761 18.5455 48.3747 15.7469 48.3747 12.2947V5.64537C48.3747 4.94493 47.8016 4.37183 47.1012 4.37183Z" fill="#93C2DB"/>
<path d="M32.1118 0.0722656C31.4114 0.0722656 30.8383 0.645349 30.8383 1.34581V17.2824C30.8383 17.9829 31.4114 18.556 32.1118 18.556C32.8123 18.556 33.3854 17.9829 33.3854 17.2824V1.34581C33.3854 0.645349 32.8123 0.0722656 32.1118 0.0722656Z" fill="#93C2DB"/>
<path d="M76.7052 4.37183C76.0047 4.37183 75.4316 4.94493 75.4316 5.64537V17.272C75.4316 17.9724 76.0047 18.5455 76.7052 18.5455C77.4056 18.5455 77.9787 17.9724 77.9787 17.272V5.64537C77.9787 4.94493 77.4056 4.37183 76.7052 4.37183Z" fill="#93C2DB"/>
<path d="M27.0771 4.37183C26.3767 4.37183 25.8036 4.94493 25.8036 5.64537V12.2947C25.8036 14.3402 24.1454 15.9984 22.0998 15.9984C20.0543 15.9984 18.3961 14.3402 18.3961 12.2947V5.64537C18.3961 4.94493 17.823 4.37183 17.1226 4.37183C16.4221 4.37183 15.849 4.94493 15.849 5.64537V12.2947C15.849 15.7469 18.6476 18.5455 22.0998 18.5455C25.5521 18.5455 28.3507 15.7469 28.3507 12.2947V5.64537C28.3507 4.94493 27.7776 4.37183 27.0771 4.37183Z" fill="#93C2DB"/>
<path d="M66.6914 4.37183C64.6573 4.37183 62.8556 5.34781 61.7141 6.85228C60.5726 5.34781 58.7709 4.37183 56.7368 4.37183C53.2846 4.37183 50.486 7.17043 50.486 10.6227V17.272C50.486 17.9724 51.0591 18.5455 51.7595 18.5455C52.46 18.5455 53.0331 17.9724 53.0331 17.272V10.6227C53.0331 8.57716 54.6913 6.91893 56.7368 6.91893C58.7823 6.91893 60.4406 8.57716 60.4406 10.6227V17.272C60.4406 17.6222 60.5838 17.9406 60.8147 18.1714C61.0455 18.4022 61.3639 18.5455 61.7141 18.5455H61.7141C61.8017 18.5455 61.8872 18.5366 61.9699 18.5195C62.0526 18.5025 62.1325 18.4774 62.2086 18.445C62.3608 18.3803 62.4981 18.2868 62.6135 18.1714C62.8444 17.9406 62.9877 17.6222 62.9877 17.272V10.6227C62.9877 8.57716 64.6459 6.91893 66.6914 6.91893C68.7369 6.91893 70.3951 8.57716 70.3951 10.6227V17.272C70.3951 17.9724 70.9682 18.5455 71.6687 18.5455C72.3691 18.5455 72.9422 17.9724 72.9422 17.272V10.6227C72.9422 7.17043 70.1436 4.37183 66.6914 4.37183Z" fill="#93C2DB"/>
<path d="M7.18306 4.37183C3.26909 4.37183 0.0962093 7.54472 0.0962093 11.4587H0.0961914V22.7265C0.0961914 23.4269 0.669293 24 1.36975 24C2.07019 24 2.6433 23.4269 2.6433 22.7265V11.4587H2.64331C2.64331 8.95145 4.67583 6.91895 7.18306 6.91895C9.69029 6.91895 11.7228 8.95145 11.7228 11.4587C11.7228 13.9659 9.69028 15.9984 7.18306 15.9984C6.47969 15.9984 5.9095 16.5686 5.9095 17.272C5.9095 17.9753 6.47969 18.5455 7.18306 18.5455C11.097 18.5455 14.2699 15.3726 14.2699 11.4587C14.2699 7.54472 11.097 4.37183 7.18306 4.37183Z" fill="#93C2DB"/>
<path d="M26.607 2.94872C26.607 2.94283 26.6054 2.93738 26.6053 2.93152C26.6045 2.90558 26.6017 2.87991 26.5975 2.85423C26.5489 2.29423 26.0842 1.85328 25.5116 1.85328C25.3354 1.85328 25.1714 1.89874 25.024 1.97263C24.7623 0.843162 23.7545 0 22.5455 0C21.4842 0 20.5754 0.648719 20.1915 1.57084C19.9283 1.40109 19.6156 1.30148 19.2791 1.30148C18.3474 1.30148 17.592 2.0568 17.592 2.98852C17.592 3.47511 17.9718 3.52973 18.5939 3.52973L26.0318 3.52976C26.3936 3.52976 26.6056 3.24074 26.6053 2.9486C26.6059 2.94863 26.6064 2.94866 26.607 2.94872Z" fill="#93C2DB"/>
</svg>
