<svg width="77" height="32" viewBox="0 0 77 32" fill="none" xmlns="http://www.w3.org/2000/svg">
<path fill-rule="evenodd" clip-rule="evenodd" d="M4.26862 28.0281C4.34494 28.0672 4.41857 28.1114 4.48902 28.1603C4.55454 28.22 4.60133 28.2974 4.62371 28.3832C4.64907 28.4692 4.66387 28.558 4.66779 28.6476V31.8876C4.66779 31.9096 4.66779 31.9537 4.64575 31.9537C4.6367 31.9622 4.62584 31.9687 4.61398 31.9725C4.60211 31.9763 4.58954 31.9774 4.57719 31.9757H3.77884C3.76688 31.9773 3.75471 31.9762 3.74328 31.9723C3.73184 31.9685 3.72146 31.962 3.71292 31.9535C3.70439 31.9449 3.69794 31.9346 3.69408 31.9231C3.69023 31.9117 3.68906 31.8995 3.69068 31.8876V28.9489H3.04661V31.8876C3.04661 31.9096 3.04661 31.9537 3.02457 31.9537C3.01589 31.9621 3.00545 31.9684 2.99401 31.9722C2.98257 31.976 2.97042 31.9772 2.95845 31.9757H2.22378C2.20174 31.9757 2.15765 31.9757 2.15765 31.9537C2.14928 31.945 2.14295 31.9346 2.13914 31.9231C2.13533 31.9117 2.13412 31.8995 2.13561 31.8876V28.9489H1.494V31.8876C1.49506 31.9024 1.49295 31.9173 1.48782 31.9313C1.48269 31.9453 1.47465 31.958 1.46423 31.9687C1.45382 31.9793 1.44126 31.9876 1.4274 31.9931C1.41353 31.9985 1.39867 32.0009 1.3838 32.0002H0.583001C0.568125 32.0009 0.553264 31.9985 0.539399 31.9931C0.525533 31.9876 0.512978 31.9793 0.502563 31.9687C0.492148 31.958 0.48411 31.9453 0.47898 31.9313C0.473849 31.9173 0.471743 31.9024 0.4728 31.8876V28.0942C0.471743 28.0793 0.473849 28.0644 0.47898 28.0504C0.48411 28.0365 0.492148 28.0237 0.502563 28.0131C0.512978 28.0024 0.525533 27.9941 0.539399 27.9887C0.553264 27.9832 0.568125 27.9808 0.583001 27.9815H4.04577C4.08407 27.9727 4.12383 27.9723 4.1623 27.9803C4.20077 27.9884 4.23705 28.0047 4.26862 28.0281Z" fill="#93C2DB"/>
<path fill-rule="evenodd" clip-rule="evenodd" d="M8.28484 27.9594C8.37446 27.9634 8.46327 27.9782 8.54932 28.0035C8.62628 28.0438 8.70071 28.0888 8.77218 28.1382C8.83639 28.1975 8.88228 28.274 8.90442 28.3586C8.93155 28.4452 8.94719 28.5349 8.95095 28.6255V31.8655C8.95095 31.8875 8.95095 31.9316 8.92891 31.9316C8.91967 31.9399 8.90879 31.9461 8.89697 31.9499C8.88516 31.9537 8.87267 31.955 8.86034 31.9536H8.06199C8.03995 31.9536 7.99587 31.9536 7.99587 31.9316C7.98749 31.9229 7.98117 31.9125 7.97735 31.901C7.97354 31.8896 7.97234 31.8774 7.97383 31.8655V30.8565C7.97383 30.8345 7.97383 30.7904 7.95179 30.7904C7.94311 30.782 7.93267 30.7757 7.92123 30.7719C7.90979 30.7681 7.89764 30.7668 7.88567 30.7683H6.75182C6.72978 30.7683 6.6857 30.7683 6.6857 30.7904C6.67732 30.7991 6.671 30.8095 6.66718 30.8209C6.66337 30.8324 6.66217 30.8445 6.66366 30.8565V31.8777C6.66436 31.8924 6.66199 31.907 6.6567 31.9207C6.6514 31.9344 6.64331 31.9468 6.63294 31.9572C6.62256 31.9676 6.61013 31.9756 6.59644 31.9809C6.58276 31.9862 6.56811 31.9886 6.55346 31.9879H5.75511C5.74025 31.989 5.72534 31.9869 5.71136 31.9817C5.69738 31.9766 5.68465 31.9686 5.674 31.9581C5.66335 31.9477 5.65504 31.9352 5.6496 31.9213C5.64416 31.9074 5.64173 31.8926 5.64246 31.8777V28.6255C5.64622 28.5349 5.66186 28.4452 5.68899 28.3586C5.72814 28.2823 5.77232 28.2087 5.82123 28.1382C5.882 28.074 5.95901 28.0275 6.04408 28.0035C6.12735 27.9676 6.21813 27.9524 6.30857 27.9594H8.28484ZM7.92975 29.8769V28.8778H6.5755V29.8769H7.92975Z" fill="#93C2DB"/>
<path fill-rule="evenodd" clip-rule="evenodd" d="M12.5682 28.0035C12.5765 28.0127 12.5828 28.0236 12.5866 28.0354C12.5904 28.0472 12.5916 28.0597 12.5903 28.072V31.312C12.5864 31.4016 12.5716 31.4904 12.5462 31.5764C12.5059 31.6534 12.4609 31.7278 12.4115 31.7993C12.3522 31.8635 12.2757 31.9094 12.1911 31.9315C12.1069 31.9673 12.0154 31.9824 11.9242 31.9756H10.1928C10.1024 31.9715 10.0128 31.9567 9.92587 31.9315C9.84955 31.8924 9.77592 31.8482 9.70546 31.7993C9.63915 31.7403 9.59221 31.6626 9.57077 31.5764C9.53482 31.4932 9.51969 31.4024 9.52669 31.312V30.0875C9.52599 30.0728 9.52837 30.0582 9.53366 30.0445C9.53895 30.0308 9.54704 30.0184 9.55742 30.008C9.56779 29.9976 9.58022 29.9896 9.59391 29.9843C9.6076 29.979 9.62224 29.9766 9.63689 29.9773H10.4377C10.4523 29.9766 10.467 29.979 10.4807 29.9843C10.4944 29.9896 10.5068 29.9976 10.5172 30.008C10.5275 30.0184 10.5356 30.0308 10.5409 30.0445C10.5462 30.0582 10.5486 30.0728 10.5479 30.0875V30.9103C10.5463 30.9223 10.5474 30.9345 10.5513 30.9459C10.5552 30.9573 10.5616 30.9677 10.5701 30.9763C10.5787 30.9848 10.5891 30.9912 10.6005 30.9951C10.6119 30.9989 10.6241 31.0001 10.6361 30.9985H11.4491C11.4711 30.9985 11.5152 30.9985 11.5152 30.9765C11.5236 30.9678 11.5299 30.9573 11.5337 30.9459C11.5375 30.9345 11.5387 30.9223 11.5373 30.9103V28.0941C11.5373 28.072 11.5373 28.028 11.5593 28.028C11.5675 28.0188 11.5778 28.0118 11.5893 28.0076C11.6009 28.0033 11.6132 28.0019 11.6254 28.0035H12.4287C12.4471 27.9868 12.4711 27.9775 12.496 27.9775C12.5209 27.9775 12.5449 27.9868 12.5634 28.0035H12.5682Z" fill="#93C2DB"/>
<path fill-rule="evenodd" clip-rule="evenodd" d="M16.1848 27.9594C16.2745 27.9633 16.3633 27.9781 16.4493 28.0034C16.5263 28.0438 16.6007 28.0887 16.6722 28.1381C16.7364 28.1975 16.7823 28.2739 16.8044 28.3585C16.8296 28.4455 16.8444 28.5351 16.8485 28.6255V31.2899C16.8446 31.3795 16.8298 31.4683 16.8044 31.5544C16.7658 31.6318 16.7216 31.7062 16.6722 31.7772C16.6123 31.8421 16.5349 31.888 16.4493 31.9095C16.366 31.9454 16.2753 31.9605 16.1848 31.9535H14.1645C14.0741 31.9494 13.9845 31.9346 13.8975 31.9095C13.8212 31.8703 13.7476 31.8261 13.6771 31.7772C13.6108 31.7182 13.5639 31.6405 13.5425 31.5544C13.5065 31.4711 13.4914 31.3803 13.4984 31.2899V28.6255C13.5025 28.5351 13.5173 28.4455 13.5425 28.3585C13.574 28.2777 13.6196 28.2031 13.6771 28.1381C13.7372 28.0743 13.8134 28.0278 13.8975 28.0034C13.9817 27.9677 14.0733 27.9525 14.1645 27.9594H16.1848ZM15.8297 28.9389H14.4755V31.0034H15.8297V28.9389Z" fill="#93C2DB"/>
<path fill-rule="evenodd" clip-rule="evenodd" d="M21.2445 31.8874C21.2496 31.8913 21.2537 31.8963 21.2566 31.902C21.2594 31.9078 21.2609 31.9141 21.2609 31.9205C21.2609 31.9269 21.2594 31.9332 21.2566 31.9389C21.2537 31.9446 21.2496 31.9496 21.2445 31.9535C21.2225 31.9756 21.2225 31.9756 21.176 31.9756H20.265C20.2339 31.9789 20.2027 31.9711 20.1768 31.9535L20.1082 31.8874L19.5107 30.8001C19.5107 30.7781 19.4887 30.7781 19.4666 30.7781H18.7809C18.7589 30.7781 18.7589 30.7781 18.7589 30.8001V31.8654C18.7596 31.8802 18.7572 31.8951 18.7518 31.909C18.7463 31.9228 18.738 31.9354 18.7274 31.9458C18.7167 31.9562 18.704 31.9643 18.69 31.9694C18.676 31.9745 18.6611 31.9766 18.6462 31.9756H17.8479C17.8332 31.9763 17.8186 31.9739 17.8049 31.9686C17.7912 31.9633 17.7788 31.9552 17.7684 31.9449C17.758 31.9345 17.7499 31.922 17.7447 31.9084C17.7394 31.8947 17.737 31.88 17.7377 31.8654V28.072C17.7366 28.0571 17.7387 28.0422 17.7439 28.0283C17.749 28.0143 17.757 28.0015 17.7675 27.9909C17.7779 27.9802 17.7904 27.9719 17.8043 27.9665C17.8182 27.9611 17.833 27.9586 17.8479 27.9594H20.4437C20.5342 27.9631 20.6238 27.9779 20.7107 28.0034C20.7873 28.0443 20.8617 28.0893 20.9335 28.1381C20.9977 28.1975 21.0436 28.2739 21.0658 28.3585C21.1016 28.4427 21.1167 28.5342 21.1099 28.6255V30.134C21.1104 30.2779 21.064 30.418 20.9776 30.5332C20.8931 30.6458 20.7773 30.731 20.6446 30.7781H20.6225C20.6005 30.7781 20.6005 30.8001 20.6005 30.8221V30.8564L21.2445 31.8874ZM20.1107 28.8973H18.7369V29.8769H20.1107V28.8973Z" fill="#93C2DB"/>
<path fill-rule="evenodd" clip-rule="evenodd" d="M26.6324 31.0009C26.6447 30.9992 26.6573 31.0003 26.6692 31.0042C26.681 31.008 26.6919 31.0144 26.7009 31.023C26.7093 31.0316 26.7156 31.0421 26.7195 31.0535C26.7233 31.065 26.7245 31.0771 26.723 31.0891V31.836C26.723 31.8581 26.723 31.9021 26.7009 31.9021C26.6919 31.9107 26.681 31.9171 26.6692 31.921C26.6573 31.9248 26.6447 31.9259 26.6324 31.9242H24.1835C24.1686 31.9252 24.1537 31.9231 24.1397 31.918C24.1257 31.9129 24.113 31.9048 24.1023 31.8944C24.0917 31.884 24.0834 31.8714 24.0779 31.8576C24.0725 31.8437 24.0701 31.8288 24.0708 31.814V28.0279C24.0701 28.0131 24.0725 27.9982 24.0779 27.9843C24.0834 27.9705 24.0917 27.9579 24.1023 27.9475C24.113 27.9371 24.1257 27.9291 24.1397 27.9239C24.1537 27.9188 24.1686 27.9167 24.1835 27.9177H24.9818C24.9967 27.917 25.0115 27.9194 25.0254 27.9249C25.0393 27.9303 25.0518 27.9386 25.0622 27.9493C25.0727 27.9599 25.0807 27.9727 25.0858 27.9866C25.091 28.0006 25.0931 28.0155 25.092 28.0304V30.8564C25.0906 30.8688 25.0919 30.8813 25.0957 30.8931C25.0995 30.9049 25.1058 30.9158 25.114 30.925C25.1227 30.9334 25.1332 30.9397 25.1446 30.9435C25.156 30.9473 25.1682 30.9485 25.1802 30.9471H26.6495V31.0132L26.6324 31.0009Z" fill="#93C2DB"/>
<path fill-rule="evenodd" clip-rule="evenodd" d="M30.3423 28.0034C30.3506 28.0126 30.3568 28.0235 30.3606 28.0353C30.3644 28.0471 30.3657 28.0596 30.3643 28.0719V28.8066C30.3659 28.8186 30.3648 28.8307 30.3609 28.8422C30.357 28.8536 30.3506 28.864 30.3421 28.8725C30.3335 28.8811 30.3231 28.8875 30.3117 28.8914C30.3003 28.8952 30.2881 28.8964 30.2762 28.8948H28.366C28.344 28.8948 28.344 28.8948 28.344 28.9168V29.5388C28.344 29.5609 28.344 29.5609 28.366 29.5609H30.0092C30.0212 29.5593 30.0333 29.5604 30.0448 29.5643C30.0562 29.5681 30.0666 29.5746 30.0751 29.5831C30.0837 29.5917 30.0901 29.602 30.094 29.6135C30.0978 29.6249 30.099 29.6371 30.0974 29.649V30.227C30.0974 30.249 30.0974 30.2931 30.0753 30.2931C30.0667 30.3015 30.0562 30.3078 30.0448 30.3116C30.0333 30.3154 30.0212 30.3166 30.0092 30.3151H28.366C28.344 30.3151 28.344 30.3151 28.344 30.3372V30.6262V30.9592C28.344 30.9813 28.344 30.9813 28.366 30.9813H30.2762C30.2982 30.9813 30.3423 30.9813 30.3423 31.0033C30.3506 31.012 30.357 31.0224 30.3608 31.0339C30.3646 31.0453 30.3658 31.0574 30.3643 31.0694V31.7796C30.3643 31.8016 30.3643 31.8457 30.3423 31.8457C30.3336 31.8541 30.3232 31.8604 30.3117 31.8642C30.3003 31.868 30.2881 31.8693 30.2762 31.8678H27.4354C27.4206 31.8688 27.4056 31.8667 27.3917 31.8616C27.3777 31.8564 27.3649 31.8484 27.3543 31.838C27.3437 31.8276 27.3353 31.815 27.3299 31.8012C27.3245 31.7873 27.322 31.7724 27.3228 31.7576V27.9617C27.3228 27.9397 27.3228 27.8956 27.3448 27.8956C27.354 27.8873 27.3649 27.8811 27.3767 27.8773C27.3885 27.8735 27.401 27.8722 27.4134 27.8736H30.2517C30.2737 27.9227 30.3044 27.9675 30.3423 28.0058V28.0034Z" fill="#93C2DB"/>
<path fill-rule="evenodd" clip-rule="evenodd" d="M33.9789 27.9594C34.0693 27.9635 34.1589 27.9783 34.2459 28.0034C34.3217 28.0443 34.3953 28.0892 34.4663 28.1381C34.5301 28.1982 34.5766 28.2743 34.601 28.3585C34.6261 28.4455 34.6409 28.5351 34.645 28.6255V31.8654C34.645 31.8874 34.645 31.9315 34.623 31.9315C34.6139 31.9399 34.603 31.9463 34.5911 31.9501C34.5793 31.9539 34.5668 31.9551 34.5544 31.9535H33.734C33.712 31.9535 33.6679 31.9535 33.6679 31.9315C33.6595 31.9228 33.6532 31.9124 33.6494 31.9009C33.6456 31.8895 33.6444 31.8774 33.6459 31.8654V30.8564C33.6459 30.8344 33.6459 30.7903 33.6238 30.7903C33.6152 30.7819 33.6047 30.7756 33.5933 30.7718C33.5818 30.768 33.5697 30.7668 33.5577 30.7683H32.4018C32.3798 30.7683 32.3357 30.7683 32.3357 30.7903C32.3273 30.799 32.321 30.8094 32.3172 30.8209C32.3134 30.8323 32.3122 30.8445 32.3137 30.8564V31.8776C32.3144 31.8923 32.312 31.9069 32.3067 31.9206C32.3014 31.9343 32.2933 31.9467 32.2829 31.9571C32.2726 31.9675 32.2601 31.9756 32.2465 31.9809C32.2328 31.9862 32.2181 31.9885 32.2035 31.9878H31.4076C31.3927 31.9889 31.3778 31.9868 31.3638 31.9817C31.3498 31.9765 31.3371 31.9685 31.3265 31.9581C31.3158 31.9477 31.3075 31.9351 31.3021 31.9212C31.2966 31.9074 31.2942 31.8925 31.2949 31.8776V28.6255C31.2987 28.5348 31.3143 28.4451 31.3415 28.3585C31.3806 28.2822 31.4248 28.2086 31.4737 28.1381C31.5338 28.0743 31.6099 28.0278 31.6941 28.0034C31.7783 27.9677 31.8698 27.9525 31.961 27.9594H33.9789ZM33.6238 29.8695V28.8704H32.2647V29.8769L33.6238 29.8695Z" fill="#93C2DB"/>
<path fill-rule="evenodd" clip-rule="evenodd" d="M38.8765 29.8232C38.8848 29.8325 38.891 29.8433 38.8948 29.8552C38.8986 29.867 38.8999 29.8795 38.8985 29.8918V31.3122C38.8946 31.4018 38.8798 31.4906 38.8545 31.5766C38.8158 31.654 38.7716 31.7285 38.7222 31.7995C38.6624 31.8643 38.5849 31.9103 38.4994 31.9317C38.4161 31.9677 38.3253 31.9828 38.2349 31.9758H36.2145C36.1241 31.9717 36.0345 31.9569 35.9476 31.9317C35.8713 31.8926 35.7977 31.8484 35.7272 31.7995C35.6609 31.7405 35.6139 31.6628 35.5925 31.5766C35.5565 31.4934 35.5414 31.4026 35.5484 31.3122V28.6526C35.5523 28.563 35.5671 28.4742 35.5925 28.3882C35.6238 28.3064 35.6694 28.231 35.7272 28.1653C35.7865 28.1011 35.863 28.0552 35.9476 28.0331C36.0312 27.9954 36.1231 27.9794 36.2145 27.9865H38.59C38.612 27.9865 38.6561 27.9865 38.6561 28.0086C38.6644 28.0178 38.6706 28.0287 38.6744 28.0405C38.6782 28.0523 38.6795 28.0648 38.6781 28.0771V28.8314C38.6781 28.8534 38.6781 28.8975 38.6561 28.8975C38.6474 28.9059 38.637 28.9122 38.6255 28.916C38.6141 28.9199 38.6019 28.9211 38.59 28.9196H36.6798C36.6578 28.9196 36.6137 28.9196 36.6137 28.9416C36.6053 28.9503 36.599 28.9607 36.5952 28.9722C36.5914 28.9836 36.5902 28.9958 36.5917 29.0077V30.8567C36.5901 30.869 36.5913 30.8815 36.5951 30.8934C36.5989 30.9052 36.6053 30.9161 36.6137 30.9252C36.6224 30.9336 36.6328 30.9399 36.6443 30.9437C36.6557 30.9476 36.6679 30.9488 36.6798 30.9473H37.8112C37.8236 30.9494 37.8363 30.9486 37.8483 30.9448C37.8603 30.941 37.8711 30.9344 37.88 30.9255C37.8889 30.9166 37.8955 30.9057 37.8993 30.8937C37.9031 30.8818 37.904 30.869 37.9018 30.8567V29.8771C37.9018 29.8551 37.9018 29.8085 37.9239 29.8085C37.9325 29.8002 37.943 29.7938 37.9544 29.79C37.9659 29.7862 37.978 29.785 37.99 29.7865H38.7883C38.8215 29.7919 38.8522 29.8073 38.8765 29.8306V29.8232Z" fill="#93C2DB"/>
<path fill-rule="evenodd" clip-rule="evenodd" d="M43.101 28.0033C43.1093 28.0126 43.1155 28.0235 43.1193 28.0353C43.1231 28.0471 43.1244 28.0596 43.123 28.0719V31.3118C43.1191 31.4015 43.1043 31.4903 43.079 31.5763C43.0403 31.6537 42.9961 31.7282 42.9467 31.7992C42.8861 31.8631 42.809 31.9088 42.7239 31.9314C42.6398 31.9676 42.5482 31.9827 42.4569 31.9755H40.439C40.3486 31.9718 40.2589 31.957 40.1721 31.9314C40.0953 31.8917 40.0209 31.8475 39.9492 31.7992C39.8844 31.7393 39.8384 31.6619 39.817 31.5763C39.781 31.493 39.7659 31.4023 39.7729 31.3118V28.0719C39.7719 28.0571 39.774 28.0421 39.7791 28.0282C39.7842 28.0142 39.7923 28.0014 39.8027 27.9908C39.8131 27.9802 39.8256 27.9718 39.8395 27.9664C39.8534 27.961 39.8682 27.9585 39.8831 27.9593H40.6815C40.6965 27.9582 40.7117 27.9603 40.7258 27.9656C40.74 27.9709 40.7529 27.9791 40.7635 27.9898C40.7742 28.0005 40.7825 28.0134 40.7878 28.0275C40.793 28.0417 40.7952 28.0568 40.7941 28.0719V30.8882C40.7924 30.9005 40.7935 30.9131 40.7973 30.925C40.8011 30.9368 40.8076 30.9477 40.8161 30.9567C40.8248 30.9651 40.8353 30.9714 40.8467 30.9753C40.8582 30.9791 40.8703 30.9803 40.8823 30.9788H42.0137C42.0256 30.9803 42.0378 30.9791 42.0492 30.9753C42.0607 30.9714 42.0711 30.9651 42.0798 30.9567C42.0884 30.9477 42.0948 30.9368 42.0986 30.925C42.1024 30.9131 42.1035 30.9005 42.1018 30.8882V28.0719C42.1018 28.0499 42.1018 28.0033 42.1239 28.0033C42.1329 27.9948 42.1438 27.9883 42.1557 27.9845C42.1675 27.9807 42.1801 27.9796 42.1924 27.9813H42.9908C43.0089 27.9716 43.0297 27.9685 43.0499 27.9725C43.07 27.9765 43.0881 27.9874 43.101 28.0033Z" fill="#93C2DB"/>
<path fill-rule="evenodd" clip-rule="evenodd" d="M47.0732 28.0035C47.0815 28.0127 47.0877 28.0236 47.0915 28.0354C47.0953 28.0472 47.0966 28.0597 47.0952 28.072V28.8067C47.0969 28.8187 47.0957 28.8308 47.0918 28.8423C47.088 28.8537 47.0815 28.8641 47.073 28.8726C47.0645 28.8812 47.0541 28.8876 47.0426 28.8915C47.0312 28.8953 47.019 28.8965 47.0071 28.8949H45.0994C45.0773 28.8949 45.0773 28.8949 45.0773 28.9169V29.5389C45.0773 29.561 45.0773 29.561 45.0994 29.561H46.7402C46.7521 29.5594 46.7643 29.5605 46.7757 29.5644C46.7871 29.5682 46.7975 29.5747 46.8061 29.5832C46.8146 29.5918 46.821 29.6021 46.8249 29.6136C46.8288 29.625 46.8299 29.6372 46.8283 29.6491V30.2271C46.8283 30.2491 46.8283 30.2932 46.8063 30.2932C46.7976 30.3016 46.7872 30.3079 46.7757 30.3117C46.7643 30.3155 46.7521 30.3167 46.7402 30.3152H45.0994C45.0773 30.3152 45.0773 30.3152 45.0773 30.3373V30.6263V30.9593C45.0773 30.9813 45.0773 30.9813 45.0994 30.9813H47.0071C47.0291 30.9813 47.0732 30.9813 47.0732 31.0034C47.0816 31.0121 47.0879 31.0225 47.0917 31.0339C47.0955 31.0454 47.0967 31.0575 47.0952 31.0695V31.7797C47.0952 31.8017 47.0952 31.8458 47.0732 31.8458C47.0645 31.8542 47.0541 31.8605 47.0426 31.8643C47.0312 31.8681 47.0191 31.8693 47.0071 31.8679H44.1664C44.1517 31.8686 44.1371 31.8662 44.1234 31.8609C44.1097 31.8556 44.0972 31.8475 44.0869 31.8371C44.0765 31.8268 44.0684 31.8143 44.0631 31.8006C44.0578 31.787 44.0555 31.7723 44.0561 31.7576V27.9618C44.0561 27.9398 44.0562 27.8957 44.0782 27.8957C44.0869 27.8873 44.0973 27.881 44.1088 27.8772C44.1202 27.8734 44.1323 27.8722 44.1443 27.8737H46.985C47.0057 27.923 47.0356 27.9679 47.0732 28.0059V28.0035Z" fill="#93C2DB"/>
<path fill-rule="evenodd" clip-rule="evenodd" d="M53.2201 27.9592C53.2421 27.9592 53.2862 27.9592 53.2862 27.9812C53.2946 27.9904 53.3009 28.0012 53.3048 28.0131C53.3086 28.0249 53.3097 28.0374 53.3082 28.0498V31.8358C53.3082 31.8579 53.3082 31.9019 53.2862 31.9019C53.2775 31.9103 53.2671 31.9166 53.2556 31.9204C53.2442 31.9243 53.232 31.9255 53.2201 31.924H52.4217C52.3997 31.924 52.3556 31.924 52.3556 31.9019C52.3493 31.8922 52.3452 31.8813 52.3435 31.8699C52.3419 31.8585 52.3426 31.8469 52.3458 31.8358V30.5036C52.3473 30.4916 52.3461 30.4795 52.3423 30.468C52.3385 30.4566 52.3321 30.4462 52.3238 30.4375C52.3145 30.4292 52.3036 30.4229 52.2918 30.4191C52.28 30.4153 52.2675 30.4141 52.2552 30.4154H51.1213C51.0993 30.4154 51.0552 30.4154 51.0552 30.4375C51.0468 30.4462 51.0405 30.4566 51.0367 30.468C51.0329 30.4795 51.0317 30.4916 51.0332 30.5036V31.8358C51.0339 31.8505 51.0315 31.8651 51.0262 31.8788C51.0209 31.8925 51.0128 31.9049 51.0025 31.9153C50.9921 31.9257 50.9797 31.9338 50.966 31.939C50.9523 31.9443 50.9376 31.9467 50.923 31.946H50.1222C50.1075 31.9467 50.0929 31.9443 50.0792 31.939C50.0655 31.9338 50.0531 31.9257 50.0427 31.9153C50.0323 31.9049 50.0242 31.8925 50.0189 31.8788C50.0137 31.8651 50.0113 31.8505 50.012 31.8358V28.0498C50.0109 28.0349 50.013 28.02 50.0182 28.006C50.0233 27.9921 50.0313 27.9793 50.0417 27.9687C50.0522 27.958 50.0647 27.9497 50.0786 27.9443C50.0924 27.9388 50.1073 27.9364 50.1222 27.9371H50.923C50.9379 27.9364 50.9527 27.9388 50.9666 27.9443C50.9804 27.9497 50.993 27.958 51.0034 27.9687C51.0138 27.9793 51.0219 27.9921 51.027 28.006C51.0321 28.02 51.0342 28.0349 51.0332 28.0498V29.3355C51.0325 29.3501 51.0349 29.3648 51.0401 29.3785C51.0454 29.3921 51.0535 29.4046 51.0639 29.4149C51.0743 29.4253 51.0867 29.4334 51.1004 29.4387C51.1141 29.444 51.1287 29.4464 51.1434 29.4457H52.2748C52.2871 29.4472 52.2997 29.446 52.3115 29.4422C52.3233 29.4384 52.3342 29.4321 52.3434 29.4236C52.3517 29.415 52.358 29.4045 52.3619 29.3931C52.3657 29.3816 52.3669 29.3695 52.3654 29.3575V28.0718C52.3654 28.0498 52.3654 28.0033 52.3874 28.0033C52.3961 27.9949 52.4066 27.9886 52.418 27.9847C52.4294 27.9809 52.4416 27.9797 52.4536 27.9812H53.2299V27.9592H53.2201Z" fill="#93C2DB"/>
<path fill-rule="evenodd" clip-rule="evenodd" d="M56.9256 27.9594C57.016 27.9632 57.1057 27.978 57.1925 28.0035C57.2807 28.05 57.3468 28.0941 57.4153 28.1382C57.4796 28.1975 57.5255 28.274 57.5476 28.3586C57.5728 28.4455 57.5876 28.5351 57.5917 28.6255V31.8655C57.5917 31.8875 57.5917 31.9316 57.5696 31.9316C57.5609 31.94 57.5505 31.9463 57.5391 31.9501C57.5276 31.9539 57.5155 31.9551 57.5035 31.9536H56.7052C56.6831 31.9536 56.6366 31.9536 56.6366 31.9316C56.6282 31.9229 56.6219 31.9125 56.6181 31.901C56.6143 31.8896 56.6131 31.8774 56.6146 31.8655V30.8565C56.6146 30.8345 56.6146 30.7904 56.5925 30.7904C56.5838 30.782 56.5734 30.7757 56.5619 30.7719C56.5505 30.7681 56.5384 30.7669 56.5264 30.7683H55.395C55.373 30.7683 55.3289 30.7683 55.3289 30.7904C55.3205 30.7991 55.3142 30.8095 55.3104 30.821C55.3065 30.8324 55.3053 30.8445 55.3068 30.8565V31.8777C55.3076 31.8926 55.3051 31.9074 55.2997 31.9213C55.2943 31.9352 55.2859 31.9477 55.2753 31.9581C55.2647 31.9686 55.2519 31.9766 55.2379 31.9817C55.224 31.9869 55.209 31.989 55.1942 31.9879H54.3958C54.3812 31.9886 54.3665 31.9862 54.3529 31.9809C54.3392 31.9757 54.3267 31.9676 54.3164 31.9572C54.306 31.9468 54.2979 31.9344 54.2926 31.9207C54.2873 31.907 54.2849 31.8924 54.2856 31.8777V28.6255C54.2897 28.5351 54.3045 28.4455 54.3297 28.3586C54.3689 28.2823 54.4131 28.2087 54.462 28.1382C54.5231 28.0745 54.6 28.028 54.6848 28.0035C54.7689 27.9675 54.8605 27.9524 54.9517 27.9594H56.9256ZM56.5925 29.8696V28.8704H55.2407V29.8769L56.5925 29.8696Z" fill="#93C2DB"/>
<path fill-rule="evenodd" clip-rule="evenodd" d="M59.5211 28.9586C59.5127 28.9673 59.5064 28.9777 59.5025 28.9891C59.4987 29.0006 59.4975 29.0127 59.499 29.0247V30.8883C59.4973 30.9007 59.4984 30.9132 59.5022 30.9251C59.5061 30.937 59.5125 30.9478 59.5211 30.9569C59.5303 30.9652 59.5412 30.9714 59.553 30.9752C59.5648 30.979 59.5773 30.9803 59.5896 30.9789H61.4312C61.4533 30.9789 61.4973 30.9789 61.4973 31.001C61.5057 31.0097 61.512 31.0201 61.5158 31.0315C61.5197 31.043 61.5209 31.0551 61.5194 31.0671V31.8214C61.5194 31.8434 61.5194 31.8875 61.4973 31.8875C61.4887 31.8959 61.4782 31.9022 61.4668 31.906C61.4553 31.9098 61.4432 31.911 61.4312 31.9095H59.1439C59.0543 31.9056 58.9655 31.8908 58.8794 31.8654C58.8021 31.8268 58.7276 31.7826 58.6566 31.7332C58.5923 31.6729 58.5464 31.5957 58.5243 31.5103C58.4882 31.4263 58.4731 31.3347 58.4803 31.2434V28.5496C58.4844 28.4592 58.4992 28.3696 58.5243 28.2827C58.5635 28.2064 58.6077 28.1327 58.6566 28.0623C58.7156 27.996 58.7933 27.949 58.8794 27.9276C58.9627 27.8916 59.0535 27.8765 59.1439 27.8835H61.4312C61.4533 27.8835 61.4973 27.8835 61.4973 27.9055C61.5057 27.9142 61.512 27.9247 61.5158 27.9361C61.5197 27.9475 61.5209 27.9597 61.5194 27.9717V28.7259C61.5194 28.7504 61.5194 28.7945 61.4973 28.7945C61.4887 28.8029 61.4782 28.8092 61.4668 28.813C61.4553 28.8168 61.4432 28.818 61.4312 28.8165H59.5896C59.5676 28.9267 59.5455 28.9488 59.5211 28.9488V28.9586Z" fill="#93C2DB"/>
<path fill-rule="evenodd" clip-rule="evenodd" d="M64.7376 29.6468C64.7155 29.6689 64.7155 29.6689 64.7376 29.6909L66.0698 31.8949C66.0749 31.8988 66.079 31.9038 66.0818 31.9096C66.0846 31.9153 66.0861 31.9216 66.0861 31.928C66.0861 31.9344 66.0846 31.9407 66.0818 31.9464C66.079 31.9522 66.0749 31.9572 66.0698 31.9611C66.0477 31.9831 66.0477 31.9831 66.0012 31.9831H65.0486C65.0175 31.9864 64.9863 31.9786 64.9604 31.9611L64.8918 31.8949L64.0274 30.3423C64.0053 30.3203 64.0053 30.3203 64.0053 30.3423L63.54 30.8517C63.526 30.8623 63.5145 30.876 63.5064 30.8917C63.4984 30.9074 63.494 30.9247 63.4935 30.9423C63.4757 30.9761 63.468 31.0144 63.4715 31.0525V31.8949C63.4725 31.9098 63.4704 31.9247 63.4653 31.9387C63.4602 31.9527 63.4521 31.9654 63.4417 31.976C63.4313 31.9867 63.4187 31.995 63.4049 32.0004C63.391 32.0059 63.3761 32.0083 63.3613 32.0076H62.585C62.5701 32.0083 62.5552 32.0059 62.5414 32.0004C62.5275 31.995 62.5149 31.9867 62.5045 31.976C62.4941 31.9654 62.4861 31.9527 62.4809 31.9387C62.4758 31.9247 62.4737 31.9098 62.4748 31.8949V28.0942C62.4737 28.0794 62.4758 28.0645 62.4809 28.0505C62.4861 28.0365 62.4941 28.0238 62.5045 28.0131C62.5149 28.0025 62.5275 27.9941 62.5414 27.9887C62.5552 27.9833 62.5701 27.9808 62.585 27.9816H63.3833C63.3982 27.9808 63.413 27.9833 63.4269 27.9887C63.4408 27.9941 63.4533 28.0025 63.4637 28.0131C63.4742 28.0238 63.4822 28.0365 63.4873 28.0505C63.4925 28.0645 63.4946 28.0794 63.4935 28.0942V29.8085L64.9825 28.0795C65.008 28.0522 65.0378 28.029 65.0706 28.011C65.0974 27.9956 65.1279 27.9879 65.1588 27.9889H66.1139C66.1359 27.9889 66.1579 27.9889 66.1579 28.011C66.1596 28.0233 66.1585 28.0359 66.1547 28.0477C66.1509 28.0596 66.1445 28.0705 66.1359 28.0795L64.7376 29.6542V29.6468Z" fill="#93C2DB"/>
<path fill-rule="evenodd" clip-rule="evenodd" d="M67.8208 31.8654C67.8215 31.88 67.8191 31.8947 67.8138 31.9084C67.8085 31.922 67.8004 31.9345 67.79 31.9449C67.7797 31.9552 67.7672 31.9633 67.7536 31.9686C67.7399 31.9739 67.7252 31.9763 67.7106 31.9756H66.9122C66.8976 31.9763 66.8829 31.9739 66.8692 31.9686C66.8556 31.9633 66.8431 31.9552 66.8327 31.9449C66.8224 31.9345 66.8143 31.922 66.809 31.9084C66.8037 31.8947 66.8013 31.88 66.802 31.8654V28.072C66.801 28.0571 66.8031 28.0422 66.8082 28.0283C66.8133 28.0143 66.8214 28.0015 66.8318 27.9909C66.8422 27.9802 66.8548 27.9719 66.8686 27.9665C66.8825 27.9611 66.8974 27.9586 66.9122 27.9594H67.7106C67.7254 27.9586 67.7403 27.9611 67.7542 27.9665C67.768 27.9719 67.7806 27.9802 67.791 27.9909C67.8014 28.0015 67.8095 28.0143 67.8146 28.0283C67.8197 28.0422 67.8218 28.0571 67.8208 28.072V31.8654Z" fill="#93C2DB"/>
<path fill-rule="evenodd" clip-rule="evenodd" d="M71.6918 28.0279C71.7689 28.0671 71.8433 28.1113 71.9147 28.1601C71.9795 28.22 72.0255 28.2974 72.0469 28.383C72.0829 28.4663 72.098 28.557 72.091 28.6475V31.8874C72.091 31.9094 72.091 31.9535 72.0689 31.9535C72.0603 31.9619 72.0498 31.9682 72.0384 31.972C72.0269 31.9758 72.0148 31.977 72.0028 31.9756H71.202C71.1901 31.9772 71.1779 31.976 71.1665 31.9721C71.155 31.9683 71.1446 31.9618 71.1361 31.9533C71.1276 31.9448 71.1211 31.9344 71.1173 31.923C71.1134 31.9115 71.1122 31.8993 71.1139 31.8874V29.0687C71.1154 29.0565 71.114 29.0441 71.1098 29.0326C71.1055 29.0211 71.0985 29.0108 71.0894 29.0026C71.0807 28.9942 71.0703 28.9879 71.0588 28.9841C71.0474 28.9802 71.0352 28.979 71.0233 28.9805H69.8919C69.8698 28.9805 69.8257 28.9805 69.8257 29.0026C69.8257 29.0246 69.8037 29.0467 69.8037 29.0687V31.8874C69.8048 31.9022 69.8026 31.9172 69.7975 31.9311C69.7924 31.9451 69.7843 31.9579 69.7739 31.9685C69.7635 31.9791 69.751 31.9875 69.7371 31.9929C69.7232 31.9983 69.7084 32.0008 69.6935 32H68.8927C68.8778 32.0008 68.863 31.9983 68.8491 31.9929C68.8352 31.9875 68.8227 31.9791 68.8123 31.9685C68.8018 31.9579 68.7938 31.9451 68.7887 31.9311C68.7835 31.9172 68.7814 31.9022 68.7825 31.8874V28.094C68.7814 28.0792 68.7835 28.0643 68.7887 28.0503C68.7938 28.0363 68.8018 28.0236 68.8123 28.0129C68.8227 28.0023 68.8352 27.994 68.8491 27.9885C68.863 27.9831 68.8778 27.9806 68.8927 27.9814H71.491C71.5255 27.9744 71.561 27.975 71.5952 27.983C71.6295 27.9911 71.6616 28.0064 71.6894 28.0279H71.6918Z" fill="#93C2DB"/>
<path fill-rule="evenodd" clip-rule="evenodd" d="M76.3204 29.8229C76.3286 29.8321 76.3349 29.843 76.3387 29.8548C76.3425 29.8666 76.3438 29.8791 76.3424 29.8914V31.3118C76.3385 31.4014 76.3237 31.4902 76.2983 31.5763C76.2597 31.6537 76.2155 31.7282 76.1661 31.7991C76.1055 31.863 76.0283 31.9088 75.9432 31.9314C75.8591 31.9674 75.7675 31.9825 75.6763 31.9755H73.651C73.5606 31.9717 73.471 31.9569 73.3841 31.9314C73.307 31.8922 73.2326 31.848 73.1613 31.7991C73.0964 31.7393 73.0505 31.6619 73.029 31.5763C72.9931 31.493 72.9779 31.4022 72.9849 31.3118V28.6523C72.9889 28.5627 73.0037 28.4738 73.029 28.3878C73.0589 28.3052 73.1038 28.2289 73.1613 28.1625C73.2215 28.0982 73.2988 28.0523 73.3841 28.0303C73.4677 27.9923 73.5596 27.9762 73.651 27.9837H76.024C76.0461 27.9837 76.0902 27.9837 76.0902 28.0058C76.0985 28.015 76.1047 28.0259 76.1085 28.0377C76.1123 28.0495 76.1136 28.062 76.1122 28.0743V28.8286C76.1122 28.8506 76.1122 28.8947 76.0902 28.8947C76.0815 28.9031 76.071 28.9094 76.0596 28.9132C76.0482 28.9171 76.036 28.9183 76.024 28.9168H74.1163C74.0943 28.9168 74.0502 28.9168 74.0502 28.9388C74.0418 28.9475 74.0355 28.9579 74.0317 28.9694C74.0279 28.9808 74.0267 28.993 74.0282 29.0049V30.8563C74.0267 30.8687 74.0278 30.8812 74.0316 30.893C74.0355 30.9049 74.0418 30.9157 74.0502 30.9249C74.0589 30.9333 74.0693 30.9396 74.0808 30.9434C74.0922 30.9472 74.1044 30.9484 74.1163 30.9469H75.2477C75.2597 30.9484 75.2719 30.9472 75.2833 30.9434C75.2947 30.9396 75.3052 30.9333 75.3139 30.9249C75.3223 30.9157 75.3286 30.9049 75.3324 30.893C75.3362 30.8812 75.3374 30.8687 75.3359 30.8563V29.8767C75.3359 29.8547 75.3359 29.8082 75.3579 29.8082C75.3666 29.7998 75.3771 29.7935 75.3885 29.7897C75.3999 29.7858 75.4121 29.7846 75.4241 29.7861H76.2249C76.2419 29.7865 76.2586 29.7906 76.2739 29.7983C76.2891 29.8059 76.3025 29.8168 76.313 29.8302L76.3204 29.8229Z" fill="#93C2DB"/>
<path fill-rule="evenodd" clip-rule="evenodd" d="M26.8569 2.59521C26.6316 2.10295 26.3244 1.65248 25.9484 1.263C25.5651 0.879401 25.1132 0.571208 24.6161 0.354454C24.0947 0.136613 23.5378 0.0162576 22.9729 -0.000639285H1.13838C1.04263 -0.00892485 0.946202 0.00315813 0.855453 0.0348147C0.764705 0.0664713 0.681687 0.116984 0.611862 0.18303C0.545817 0.252854 0.495304 0.335872 0.463648 0.426621C0.431991 0.517369 0.419908 0.613793 0.428194 0.709547V25.2746C0.428194 25.7399 0.651045 25.9628 1.11634 25.9628H6.10968C6.57498 25.9628 6.79783 25.7399 6.79783 25.2746V6.14614H10.8581V25.2746C10.8578 25.3649 10.8754 25.4543 10.9099 25.5376C10.9445 25.621 10.9952 25.6967 11.0592 25.7602C11.1233 25.8238 11.1993 25.874 11.2829 25.908C11.3665 25.9419 11.456 25.9589 11.5463 25.9579H16.116C16.2047 25.9621 16.2932 25.9468 16.3753 25.9129C16.4574 25.879 16.5311 25.8275 16.591 25.762C16.7076 25.6257 16.7703 25.4515 16.7674 25.2722V6.14614H20.8203V25.2746C20.818 25.4543 20.8816 25.6285 20.9991 25.7644C21.0558 25.8316 21.1274 25.8847 21.2081 25.9196C21.2889 25.9544 21.3766 25.9701 21.4644 25.9652H26.5018C26.5923 25.9656 26.6819 25.948 26.7655 25.9135C26.8492 25.879 26.9252 25.8284 26.9891 25.7644C27.0531 25.7004 27.1038 25.6244 27.1382 25.5408C27.1727 25.4572 27.1903 25.3675 27.19 25.2771V4.23844C27.1936 3.67357 27.0802 3.11408 26.8569 2.59521Z" fill="#93C2DB"/>
<path fill-rule="evenodd" clip-rule="evenodd" d="M49.6252 19.8609C49.5634 19.7935 49.4874 19.7405 49.4028 19.7058C49.3181 19.6711 49.2268 19.6555 49.1355 19.6601V19.6821H38.632C38.5393 19.6886 38.4461 19.6763 38.3582 19.646C38.2703 19.6157 38.1893 19.568 38.1202 19.5058C38.048 19.4469 37.9904 19.372 37.9522 19.2869C37.9139 19.2019 37.896 19.1092 37.8998 19.016V0.734844C37.8998 0.26955 37.6549 0.0246582 37.1651 0.0246582H31.8951C31.4053 0.0246582 31.1604 0.26955 31.1604 0.734844V25.2754C31.1604 25.7407 31.4053 25.9856 31.8951 25.9856H49.1379C49.2291 25.9886 49.3199 25.9723 49.4043 25.9377C49.4887 25.903 49.5648 25.851 49.6277 25.7848C49.7578 25.6472 49.8297 25.4648 49.8285 25.2754V20.3776C49.8313 20.2822 49.8148 20.1872 49.7799 20.0984C49.7449 20.0096 49.6923 19.9288 49.6252 19.8609Z" fill="#93C2DB"/>
<path fill-rule="evenodd" clip-rule="evenodd" d="M76.1417 0.222863C76.0749 0.156552 75.9953 0.104548 75.9077 0.0700226C75.8201 0.0354975 75.7264 0.0191755 75.6323 0.0220522H70.2619C70.1678 0.0193186 70.0741 0.0357064 69.9866 0.0702235C69.899 0.104741 69.8194 0.156669 69.7525 0.222863C69.6805 0.286975 69.6233 0.365938 69.5849 0.454304C69.5464 0.542669 69.5276 0.638332 69.5296 0.734687V9.061C69.5334 9.15528 69.5177 9.24933 69.4833 9.33721C69.449 9.42509 69.3968 9.50491 69.3301 9.57162C69.2634 9.63834 69.1835 9.69052 69.0957 9.72487C69.0078 9.75921 68.9137 9.77499 68.8195 9.77119H61.2964C60.8678 9.77119 60.6401 9.57283 60.5862 9.21039V0.734687C60.5862 0.269393 60.3413 0.0245011 59.8515 0.0245011H54.508C54.0182 0.0245011 53.7733 0.269393 53.7733 0.734687V25.3414C53.7733 25.8067 54.0182 26.0516 54.508 26.0516H59.854C60.3438 26.0516 60.5887 25.8067 60.5887 25.3414V16.5939C60.6253 16.4686 60.6946 16.3553 60.7895 16.2657C60.9331 16.1484 61.1134 16.0852 61.2988 16.0869H68.8219C68.915 16.079 69.0087 16.0909 69.0969 16.1217C69.1851 16.1525 69.2658 16.2016 69.3337 16.2657C69.3991 16.3291 69.4504 16.4053 69.4846 16.4897C69.5188 16.574 69.5349 16.6646 69.5321 16.7555V25.3439C69.5333 25.4397 69.5536 25.5344 69.5919 25.6222C69.6302 25.7101 69.6856 25.7895 69.7549 25.8557C69.8223 25.9211 69.9021 25.9723 69.9896 26.0064C70.077 26.0405 70.1705 26.0567 70.2643 26.054H75.6348C75.7287 26.0568 75.8221 26.0407 75.9096 26.0066C75.9971 25.9725 76.0769 25.9212 76.1442 25.8557C76.2157 25.7913 76.2727 25.7122 76.3111 25.6239C76.3496 25.5356 76.3686 25.4401 76.367 25.3439V0.734687C76.3661 0.638568 76.3456 0.543644 76.3069 0.455666C76.2681 0.367688 76.212 0.288488 76.1417 0.222863Z" fill="#93C2DB"/>
</svg>
