<svg width="147" height="24" viewBox="0 0 147 24" fill="none" xmlns="http://www.w3.org/2000/svg">
<path fill-rule="evenodd" clip-rule="evenodd" d="M31.8587 4.73279C32.5161 4.64514 33.1588 4.60132 33.7577 4.60132C34.4004 4.60132 35.0432 4.64514 35.6713 4.73279L39.7614 13.2051L43.9683 4.73279C44.4796 4.64514 45.0493 4.60132 45.6774 4.60132C46.3055 4.60132 46.9044 4.64514 47.4887 4.73279L48.3359 20.3043C47.7078 20.3919 47.1089 20.4358 46.5538 20.4358C45.9987 20.4358 45.4437 20.3919 44.8886 20.3043L44.4357 9.04198L40.8277 16.8277C40.594 16.8569 40.3603 16.8862 40.1119 16.9154C39.8636 16.9446 39.6153 16.9446 39.367 16.9446C39.1479 16.9446 38.9434 16.93 38.7242 16.9154C38.5051 16.9008 38.286 16.8716 38.0523 16.8277L34.6926 8.88129L34.3274 20.3043C33.8015 20.3919 33.2903 20.4358 32.7936 20.4358C32.2678 20.4358 31.7273 20.3919 31.1576 20.3043L31.8587 4.73279ZM139.589 10.8241H138.099L137.982 10.3713L142.262 4.90807H142.788V8.35543H145.548C145.592 8.58915 145.621 8.79365 145.636 8.96894C145.651 9.15884 145.665 9.34873 145.665 9.53863C145.665 9.75774 145.651 9.96224 145.636 10.1521C145.621 10.3566 145.592 10.5758 145.548 10.8095H142.788V15.4546C142.788 15.9221 142.831 16.3019 142.904 16.594C142.977 16.8862 143.094 17.1053 143.24 17.2806C143.386 17.4412 143.562 17.5581 143.781 17.6165C144 17.675 144.248 17.7042 144.54 17.7042C144.774 17.7042 144.993 17.6896 145.212 17.6457C145.432 17.6019 145.621 17.5727 145.797 17.5435C145.899 17.8356 145.987 18.1278 146.03 18.4492C146.074 18.7559 146.103 19.0335 146.103 19.2818C146.103 19.4425 146.103 19.5885 146.089 19.7054C146.074 19.8223 146.074 19.9245 146.06 20.0414C145.358 20.202 144.628 20.2897 143.883 20.2897C142.495 20.2897 141.444 19.9683 140.713 19.3256C139.983 18.6829 139.618 17.6165 139.618 16.1558V10.8241H139.589ZM131.686 15.031C130.839 14.7827 130.167 14.4321 129.685 13.9501C129.203 13.468 128.969 12.7523 128.969 11.7882C128.969 10.6342 129.378 9.72852 130.211 9.07119C131.043 8.41386 132.168 8.09249 133.6 8.09249C134.198 8.09249 134.783 8.15092 135.352 8.25317C135.937 8.35543 136.521 8.51611 137.105 8.73522C137.076 9.12962 137.003 9.53863 136.872 9.96224C136.755 10.3859 136.609 10.7657 136.433 11.087C136.068 10.9409 135.659 10.7949 135.221 10.6926C134.783 10.5758 134.315 10.5173 133.833 10.5173C133.322 10.5173 132.913 10.5904 132.621 10.751C132.329 10.9117 132.183 11.1601 132.183 11.5106C132.183 11.8466 132.285 12.0803 132.489 12.2264C132.694 12.3579 132.986 12.4893 133.366 12.6208L134.666 13.0152C135.089 13.1321 135.484 13.2781 135.82 13.4534C136.156 13.6287 136.463 13.8478 136.696 14.1108C136.945 14.3737 137.135 14.695 137.266 15.0748C137.397 15.4546 137.47 15.9221 137.47 16.4625C137.47 17.0322 137.354 17.5581 137.12 18.0401C136.886 18.5222 136.536 18.9458 136.097 19.311C135.645 19.6762 135.104 19.9537 134.461 20.1582C133.819 20.3627 133.103 20.465 132.285 20.465C131.92 20.465 131.584 20.4504 131.277 20.4358C130.97 20.4066 130.678 20.3773 130.4 20.3189C130.123 20.2605 129.845 20.202 129.568 20.129C129.29 20.056 128.998 19.9537 128.677 19.8369C128.706 19.4279 128.779 19.0042 128.896 18.5952C129.013 18.1716 129.159 17.7626 129.349 17.3682C129.845 17.5727 130.327 17.7188 130.78 17.821C131.233 17.9233 131.701 17.9671 132.183 17.9671C132.402 17.9671 132.635 17.9525 132.884 17.9087C133.132 17.8649 133.366 17.8064 133.585 17.7042C133.804 17.6019 133.979 17.4705 134.125 17.3098C134.271 17.1491 134.344 16.9446 134.344 16.6817C134.344 16.3165 134.228 16.0535 134.009 15.8929C133.789 15.7322 133.483 15.5861 133.088 15.4692L131.686 15.031ZM121.826 20.4358C120.862 20.4358 120.029 20.2751 119.328 19.9683C118.612 19.6616 118.028 19.2234 117.575 18.6683C117.108 18.1132 116.757 17.4559 116.523 16.7109C116.29 15.9659 116.173 15.1625 116.173 14.286C116.173 13.4242 116.29 12.6062 116.523 11.8466C116.757 11.087 117.108 10.4297 117.575 9.8746C118.043 9.31952 118.627 8.88129 119.328 8.55993C120.029 8.23857 120.876 8.07789 121.826 8.07789C122.79 8.07789 123.623 8.23857 124.338 8.55993C125.054 8.88129 125.653 9.31952 126.121 9.8746C126.588 10.4297 126.939 11.087 127.172 11.8466C127.406 12.6062 127.508 13.4242 127.508 14.286C127.508 15.1479 127.391 15.9659 127.172 16.7109C126.939 17.4559 126.588 18.1132 126.121 18.6683C125.653 19.2234 125.054 19.6616 124.338 19.9683C123.623 20.2897 122.79 20.4358 121.826 20.4358ZM121.826 17.9671C122.673 17.9671 123.287 17.6457 123.666 17.0176C124.046 16.3895 124.222 15.4692 124.222 14.286C124.222 13.1028 124.032 12.1826 123.666 11.5545C123.287 10.9263 122.673 10.605 121.826 10.605C120.993 10.605 120.38 10.9263 120.015 11.5545C119.635 12.1826 119.46 13.1028 119.46 14.286C119.46 15.4692 119.649 16.3895 120.015 17.0176C120.38 17.6604 120.979 17.9671 121.826 17.9671ZM98.0742 8.35543C98.2934 8.3116 98.4978 8.28239 98.717 8.25317C98.9361 8.22396 99.1698 8.22396 99.4327 8.22396C99.6957 8.22396 99.9148 8.23857 100.119 8.25317C100.324 8.28239 100.528 8.3116 100.733 8.35543C100.777 8.42846 100.82 8.54532 100.864 8.6914C100.908 8.83747 100.937 8.98355 100.967 9.14423C100.996 9.30491 101.025 9.46559 101.04 9.61167C101.069 9.75774 101.083 9.88921 101.098 10.0061C101.215 9.77235 101.376 9.55324 101.58 9.31952C101.785 9.0858 102.018 8.88129 102.281 8.706C102.559 8.51611 102.865 8.37003 103.201 8.25317C103.537 8.13632 103.932 8.07789 104.355 8.07789C106.196 8.07789 107.379 8.77904 107.89 10.1814C108.197 9.61166 108.621 9.12962 109.176 8.706C109.731 8.28239 110.432 8.07789 111.294 8.07789C112.638 8.07789 113.617 8.44307 114.259 9.18805C114.887 9.93303 115.209 11.087 115.209 12.65V20.1728C114.654 20.2605 114.113 20.3043 113.587 20.3043C113.047 20.3043 112.506 20.2605 111.966 20.1728V13.4972C111.966 12.6792 111.864 12.0365 111.659 11.5983C111.455 11.1601 111.046 10.9409 110.418 10.9409C110.155 10.9409 109.906 10.9848 109.658 11.0578C109.41 11.1308 109.176 11.2769 108.971 11.4814C108.767 11.6859 108.592 11.9781 108.475 12.3433C108.343 12.723 108.285 13.2051 108.285 13.7894V20.1582C107.73 20.2459 107.189 20.2897 106.663 20.2897C106.123 20.2897 105.582 20.2459 105.042 20.1582V13.4972C105.042 12.6792 104.94 12.0365 104.735 11.5983C104.531 11.1601 104.122 10.9409 103.494 10.9409C103.231 10.9409 102.982 10.9848 102.719 11.0578C102.456 11.1308 102.223 11.2769 102.018 11.5106C101.814 11.7297 101.653 12.0365 101.522 12.4309C101.405 12.8253 101.332 13.3512 101.332 13.9793V20.1728C100.777 20.2605 100.236 20.3043 99.7103 20.3043C99.1698 20.3043 98.6293 20.2605 98.0888 20.1728V8.35543H98.0742ZM89.4266 8.35543C89.6604 8.3116 89.8649 8.28239 90.084 8.25317C90.2885 8.22396 90.5076 8.22396 90.7559 8.22396C90.9896 8.22396 91.2087 8.23857 91.4279 8.26778C91.647 8.297 91.8661 8.34082 92.0852 8.38464C92.129 8.45768 92.1728 8.57454 92.2167 8.72061C92.2605 8.86669 92.2897 9.01276 92.3189 9.17344C92.3481 9.33412 92.3773 9.49481 92.3919 9.65549C92.4212 9.81617 92.4358 9.94764 92.4504 10.0499C92.7864 9.58245 93.1954 9.15883 93.6774 8.77904C94.1594 8.39925 94.773 8.22396 95.5033 8.22396C95.6494 8.22396 95.8247 8.23857 96.0292 8.25317C96.2337 8.26778 96.3652 8.297 96.4674 8.32621C96.4966 8.47229 96.5258 8.64757 96.5405 8.85208C96.5551 9.05658 96.5697 9.26109 96.5697 9.46559C96.5697 9.72853 96.5551 10.0061 96.5405 10.3128C96.5112 10.6196 96.482 10.9117 96.409 11.1747C96.2483 11.1454 96.0584 11.1308 95.8539 11.1308C95.6494 11.1308 95.5179 11.1308 95.4741 11.1308C95.2112 11.1308 94.919 11.1601 94.6123 11.2039C94.2909 11.2623 93.9842 11.3938 93.692 11.6275C93.3999 11.8612 93.1661 12.1972 92.9762 12.65C92.7863 13.1028 92.6841 13.7456 92.6841 14.5636V20.1874C92.4066 20.2313 92.129 20.2605 91.8661 20.2751C91.5885 20.2897 91.3256 20.3043 91.0627 20.3043C90.7997 20.3043 90.5368 20.2897 90.2739 20.2751C90.0109 20.2605 89.7334 20.2313 89.4412 20.1874V8.35543H89.4266ZM80.4869 15.2501C80.5453 16.1704 80.8667 16.8277 81.451 17.2367C82.0353 17.6457 82.7949 17.8503 83.7297 17.8503C84.241 17.8503 84.7815 17.8064 85.3219 17.7042C85.8624 17.6019 86.3737 17.4705 86.8703 17.2806C87.031 17.5873 87.1771 17.9525 87.3086 18.3761C87.4254 18.7997 87.4985 19.2526 87.5131 19.7492C86.3299 20.202 84.986 20.4358 83.496 20.4358C82.4005 20.4358 81.4656 20.2897 80.6768 19.9829C79.888 19.6762 79.2453 19.2526 78.7632 18.7121C78.2666 18.1716 77.9014 17.5289 77.6677 16.7839C77.4339 16.0389 77.3171 15.2209 77.3171 14.3445C77.3171 13.4826 77.4339 12.6646 77.6823 11.905C77.9306 11.1454 78.2812 10.4735 78.7632 9.91842C79.2453 9.34873 79.8442 8.91051 80.5453 8.57454C81.2465 8.25317 82.0791 8.07789 83.0286 8.07789C83.8466 8.07789 84.577 8.22396 85.2197 8.51611C85.8624 8.80826 86.4029 9.20266 86.8557 9.69931C87.3086 10.196 87.6445 10.7949 87.8782 11.496C88.112 12.1826 88.2142 12.9276 88.2142 13.731C88.2142 14.0231 88.1996 14.3006 88.185 14.5928C88.1558 14.8703 88.1412 15.1041 88.112 15.2647H80.4869V15.2501ZM85.1174 12.986C85.0882 12.2556 84.8837 11.6713 84.5185 11.2185C84.1387 10.7657 83.6275 10.5465 82.9555 10.5465C82.196 10.5465 81.6117 10.7657 81.2173 11.1893C80.8229 11.6129 80.5891 12.2118 80.5161 13.0006H85.1174V12.986ZM70.1156 10.8241H68.6257L68.5088 10.3713L72.7888 4.90807H73.3146V8.35543H76.0754C76.1193 8.58915 76.1485 8.79365 76.1631 8.96894C76.1777 9.15884 76.1923 9.34873 76.1923 9.53863C76.1923 9.75774 76.1777 9.96224 76.1631 10.1521C76.1485 10.3566 76.1193 10.5758 76.0754 10.8095H73.3146V15.4546C73.3146 15.9221 73.3585 16.3019 73.4315 16.594C73.5045 16.8862 73.6214 17.1053 73.7675 17.2806C73.9135 17.4412 74.0888 17.5581 74.3079 17.6165C74.5271 17.675 74.7754 17.7042 75.0675 17.7042C75.3013 17.7042 75.5204 17.6896 75.7395 17.6457C75.9586 17.6019 76.1485 17.5727 76.3238 17.5435C76.426 17.8356 76.5137 18.1278 76.5575 18.4492C76.6013 18.7559 76.6305 19.0335 76.6305 19.2818C76.6305 19.4425 76.6305 19.5885 76.6159 19.7054C76.6013 19.8223 76.6013 19.9245 76.5867 20.0414C75.8855 20.202 75.1552 20.2897 74.4102 20.2897C73.0225 20.2897 71.9708 19.9683 71.2404 19.3256C70.51 18.6829 70.1448 17.6165 70.1448 16.1558V10.8241H70.1156ZM61.541 10.8241H60.0511L59.9342 10.3713L64.2142 4.90807H64.7401V8.35543H67.5009C67.5447 8.58915 67.5739 8.79365 67.5885 8.96894C67.6031 9.15884 67.6177 9.34873 67.6177 9.53863C67.6177 9.75774 67.6031 9.96224 67.5885 10.1521C67.5739 10.3566 67.5447 10.5758 67.5009 10.8095H64.7401V15.4546C64.7401 15.9221 64.7839 16.3019 64.8569 16.594C64.93 16.8862 65.0468 17.1053 65.1929 17.2806C65.339 17.4412 65.5143 17.5581 65.7334 17.6165C65.9525 17.675 66.2008 17.7042 66.493 17.7042C66.7267 17.7042 66.9458 17.6896 67.1649 17.6457C67.384 17.6019 67.5739 17.5727 67.7492 17.5435C67.8515 17.8356 67.9391 18.1278 67.9829 18.4492C68.0267 18.7559 68.056 19.0335 68.056 19.2818C68.056 19.4425 68.056 19.5885 68.0414 19.7054C68.0267 19.8223 68.0267 19.9245 68.0121 20.0414C67.311 20.202 66.5806 20.2897 65.8356 20.2897C64.4479 20.2897 63.3962 19.9683 62.6658 19.3256C61.9354 18.6829 61.5703 17.6165 61.5703 16.1558V10.8241H61.541ZM56.2239 14.7535C56.034 14.7243 55.8441 14.695 55.625 14.6804C55.4059 14.6512 55.216 14.6512 55.0553 14.6512C54.3104 14.6512 53.7115 14.7827 53.2878 15.0456C52.8496 15.3086 52.6305 15.7468 52.6305 16.3311C52.6305 16.7255 52.7182 17.0322 52.8788 17.2513C53.0395 17.4705 53.244 17.6165 53.4777 17.7188C53.7115 17.821 53.9598 17.8795 54.2373 17.9087C54.5003 17.9379 54.734 17.9379 54.9385 17.9379C55.1722 17.9379 55.3913 17.9233 55.625 17.8795C55.8588 17.8356 56.0487 17.8064 56.2239 17.7772V14.7535ZM56.2239 12.4017C56.2239 12.0365 56.1655 11.7443 56.034 11.5106C55.9172 11.2769 55.7419 11.1016 55.5374 10.9702C55.3183 10.8387 55.0553 10.751 54.7486 10.7072C54.4418 10.6634 54.0913 10.6342 53.7115 10.6342C52.8935 10.6342 52.017 10.7949 51.0821 11.1162C50.863 10.7218 50.7023 10.342 50.6001 9.99146C50.4978 9.64088 50.4394 9.21726 50.4394 8.73522C51.1113 8.5015 51.7833 8.34082 52.4552 8.23857C53.1272 8.13632 53.7553 8.07789 54.325 8.07789C55.9026 8.07789 57.1442 8.45768 58.0353 9.21726C58.9263 9.97685 59.3791 11.2039 59.3791 12.8691V19.72C58.8387 19.8807 58.1959 20.0414 57.4364 20.202C56.6768 20.3481 55.8149 20.4358 54.8508 20.4358C54.0767 20.4358 53.3609 20.3627 52.7182 20.2313C52.0754 20.0998 51.5204 19.8661 51.0529 19.5447C50.5855 19.2234 50.2349 18.8143 49.972 18.3177C49.7236 17.821 49.5922 17.1929 49.5922 16.4625C49.5922 15.7322 49.7529 15.1187 50.0596 14.622C50.3664 14.1254 50.7754 13.731 51.272 13.4388C51.7687 13.1467 52.3238 12.9276 52.9227 12.7961C53.5362 12.6646 54.1351 12.6062 54.7486 12.6062C55.1868 12.6062 55.6835 12.6354 56.2093 12.6792V12.4017H56.2239Z" fill="#93C2DB"/>
<path fill-rule="evenodd" clip-rule="evenodd" d="M19.0481 2.2934L19.1795 4.83509C21.2392 7.11385 22.0572 10.3421 21.0347 13.3804C19.5009 17.9087 14.4467 20.2897 9.72854 18.6975C5.01034 17.1053 2.45404 12.1534 3.98782 7.6105C5.02494 4.55755 7.63967 2.48329 10.678 1.94282L12.3141 3.10941e-05C7.18684 -0.131436 2.36639 3.03838 0.62811 8.15097C-1.48997 14.4322 1.86974 21.2392 8.15093 23.3573C14.4321 25.4754 21.2392 22.1157 23.3573 15.8345C25.0809 10.7511 23.182 5.28792 19.0481 2.2934Z" fill="#93C2DB"/>
<path fill-rule="evenodd" clip-rule="evenodd" d="M16.112 9.80154L16.0244 6.23733L15.9513 4.19229L15.9075 2.41018C15.9075 2.41018 15.9221 1.54834 15.8929 1.35845C15.8929 1.31463 15.8783 1.28541 15.8637 1.2562V1.24159V1.22698C15.8345 1.16855 15.776 1.12473 15.7176 1.09551C15.6446 1.0663 15.5715 1.08091 15.5131 1.11012C15.5131 1.11012 15.4985 1.11012 15.4985 1.12473C15.4693 1.13934 15.4401 1.15394 15.4109 1.18316C15.2648 1.32923 14.7535 2.01578 14.7535 2.01578L13.6434 3.40349L12.3433 4.9957L10.1084 7.77111C10.1084 7.77111 9.08584 9.04195 9.30495 10.6196C9.52406 12.1972 10.7073 12.9567 11.6129 13.2635C12.5186 13.5703 13.9209 13.6725 15.0457 12.5623C16.1412 11.4376 16.112 9.80154 16.112 9.80154Z" fill="#93C2DB"/>
</svg>
