<svg width="94" height="24" viewBox="0 0 94 24" fill="none" xmlns="http://www.w3.org/2000/svg">
<g clip-path="url(#clip0)">
<path d="M91.3854 4.31075H91.7966C91.9934 4.31075 92.1278 4.28104 92.2003 4.22311C92.2348 4.19542 92.2624 4.16005 92.2808 4.11981C92.2993 4.07958 92.308 4.03559 92.3065 3.99136C92.3073 3.93183 92.2892 3.87357 92.2548 3.82497C92.2192 3.77486 92.169 3.73688 92.1111 3.71615C92.0506 3.69015 91.9366 3.67976 91.7706 3.67976H91.3854V4.31075ZM91.0456 5.49401V3.39378H91.7676C92.0138 3.39378 92.1932 3.41347 92.3042 3.45172C92.4142 3.49035 92.5018 3.55868 92.5679 3.65599C92.6333 3.75144 92.6663 3.85431 92.6663 3.96202C92.6663 4.11614 92.6106 4.2491 92.5014 4.36312C92.3915 4.4764 92.2459 4.54065 92.0651 4.55439C92.1393 4.58521 92.1988 4.62235 92.2437 4.66544C92.3269 4.74751 92.4305 4.88679 92.5531 5.08214L92.8086 5.49439H92.3915L92.2066 5.16273C92.0591 4.9035 91.9425 4.74046 91.8552 4.67472C91.7928 4.62532 91.7033 4.60044 91.5849 4.60044H91.3854V5.49401H91.0456ZM91.9005 2.78135C91.6257 2.78135 91.3583 2.85192 91.0976 2.99231C90.8403 3.13124 90.6283 3.34125 90.4871 3.59731C90.3436 3.84602 90.2678 4.12799 90.2672 4.41512C90.2672 4.697 90.3389 4.96701 90.4826 5.22624C90.6274 5.48399 90.8291 5.68528 91.0891 5.82938C91.336 5.97133 91.6157 6.04623 91.9005 6.04665C92.1828 6.04665 92.4532 5.9746 92.7116 5.82938C92.9663 5.69005 93.1759 5.48077 93.3155 5.22624C93.4566 4.97916 93.5311 4.69965 93.5317 4.41512C93.5317 4.13137 93.4585 3.85803 93.3125 3.59731C93.172 3.34063 92.9599 3.13031 92.702 2.99193C92.4409 2.85155 92.1735 2.78135 91.9005 2.78135ZM91.9005 2.45898C92.2285 2.45898 92.5497 2.54329 92.8617 2.71153C93.1705 2.87582 93.4244 3.12711 93.5918 3.43426C93.7675 3.74846 93.854 4.07492 93.854 4.41512C93.854 4.7516 93.7686 5.07583 93.5967 5.38668C93.4294 5.69248 93.1781 5.94403 92.8725 6.11164C92.5761 6.27973 92.2413 6.36827 91.9005 6.36865C91.5595 6.36836 91.2243 6.27982 90.9275 6.11164C90.6223 5.94353 90.3711 5.6921 90.2033 5.38668C90.0346 5.0906 89.9453 4.75591 89.9441 4.41512C89.9441 4.07492 90.0317 3.74846 90.2078 3.43426C90.3762 3.12772 90.6302 2.87675 90.9387 2.7119C91.2521 2.54329 91.5719 2.45898 91.9005 2.45898Z" fill="#93C2DB"/>
<path fill-rule="evenodd" clip-rule="evenodd" d="M11.0007 0.0433683C10.0214 0.0693658 9.03568 0.274003 8.09865 0.611599C4.46977 2.12614 1.94614 5.43079 0.80448 9.39579C0.611727 10.1401 0.45537 10.8851 0.371435 11.6539C0.371435 11.6787 0.311269 12.4356 0.419345 12.2314C0.527421 12.0516 0.57533 11.7868 0.635496 11.5822C1.18813 9.72001 1.86184 8.02535 2.89506 6.41536C5.37077 2.77385 9.34802 0.431103 13.5533 1.72912C14.3347 1.99281 15.0315 2.37794 15.7282 2.83439C15.86 2.93058 16.8335 3.69973 16.6173 3.00263C16.4372 2.45074 15.9807 1.98093 15.5837 1.60842C14.2474 0.451901 12.6334 -8.47019e-05 11.0007 0.0433683ZM41.6938 3.68673C41.1293 3.68673 40.697 3.87986 40.3962 4.2765C40.0835 4.66053 39.9397 5.23767 39.9397 5.99494V11.4745C39.2426 10.7057 38.5221 10.1523 37.7894 9.77906C37.285 9.53559 36.7452 9.37352 36.1901 9.29885C35.824 9.24963 35.455 9.22569 35.0856 9.22717C33.2472 9.22717 31.7449 9.87525 30.6159 11.1725C29.4857 12.4705 28.9212 14.2737 28.9212 16.5926C28.9212 17.6864 29.0661 18.707 29.342 19.6444C29.6309 20.5818 30.051 21.3985 30.6036 22.0956C31.1351 22.7695 31.8074 23.3192 32.5735 23.7063C33.3308 24.0777 34.1475 24.2708 35.037 24.2708C35.434 24.2708 35.8184 24.2337 36.1901 24.162C36.4266 24.1247 36.6597 24.0687 36.8872 23.9945C37.45 23.8026 37.9807 23.5272 38.4616 23.1774C38.9548 22.8164 39.435 22.3481 39.9397 21.7836V22.1431C39.9397 22.8291 40.1083 23.3457 40.4322 23.7178C40.7564 24.0781 41.1898 24.2708 41.6938 24.2708C42.1863 24.2708 42.619 24.0907 42.9436 23.742C43.2682 23.3813 43.4238 22.8532 43.4238 22.1431V5.80182C43.4238 5.11734 43.28 4.58847 42.9792 4.22785C42.6676 3.8676 42.2346 3.68673 41.6938 3.68673ZM87.041 3.68673C86.4765 3.68673 86.0438 3.87986 85.7437 4.2765C85.4429 4.66053 85.2869 5.23767 85.2869 5.99494V11.4745C84.5902 10.7057 83.8689 10.1523 83.1365 9.77906C82.6797 9.55066 82.1393 9.38353 81.538 9.29885C81.1716 9.24959 80.8022 9.22564 80.4324 9.22717C78.5947 9.22717 77.1047 9.87525 75.9627 11.1725C74.8336 12.4705 74.2684 14.2737 74.2684 16.5926C74.2684 17.6864 74.4125 18.707 74.7007 19.6444C74.9889 20.5818 75.3974 21.3985 75.9504 22.0956C76.4821 22.7698 77.1548 23.3195 77.9214 23.7063C78.6779 24.0777 79.4958 24.2708 80.3849 24.2708C80.7927 24.2708 81.1774 24.2337 81.538 24.162C81.7787 24.1263 82.006 24.0665 82.2344 23.9945C82.7971 23.8027 83.3277 23.5272 83.8084 23.1774C84.3016 22.8164 84.7944 22.3481 85.2865 21.7836V22.1431C85.2865 22.8291 85.4548 23.3457 85.7794 23.7178C86.1158 24.0781 86.5363 24.2708 87.0406 24.2708C87.558 24.2708 87.9776 24.0907 88.303 23.742C88.6276 23.3813 88.7954 22.8532 88.7954 22.1431V5.80182C88.7954 5.11734 88.6395 4.58847 88.3394 4.22785C88.0267 3.8676 87.6062 3.68673 87.0406 3.68673H87.041ZM10.0537 4.68764C9.54573 4.67435 9.04262 4.78917 8.59075 5.02152C7.08883 5.77805 6.48755 7.61644 7.2567 9.11835C8.0136 10.6206 9.85126 11.2219 11.3535 10.4531C12.8555 9.69587 13.4564 7.85748 12.6876 6.35631C12.4406 5.86587 12.0652 5.45164 11.6014 5.15777C11.1375 4.86391 10.6026 4.70142 10.0537 4.68764ZM51.9194 9.17852C50.8498 9.19078 49.8767 9.3709 48.9876 9.70664C48.074 10.068 47.3056 10.585 46.6809 11.2461C46.0555 11.9183 45.5749 12.7242 45.2503 13.6609C44.9257 14.5986 44.7578 15.62 44.7578 16.713C44.7578 19.0442 45.4308 20.87 46.7522 22.2274C48.0019 23.5139 49.7207 24.1861 51.9194 24.2578C52.0512 24.2704 52.1716 24.2708 52.3038 24.2708C53.3493 24.2708 54.2625 24.1382 55.0677 23.8623C55.8725 23.5852 56.5332 23.2495 57.0617 22.8402C57.6028 22.4205 57.9872 21.9875 58.252 21.5426C58.5165 21.0984 58.6479 20.7021 58.6479 20.3779C58.6479 20.0054 58.5283 19.7049 58.2999 19.4999C58.0604 19.2964 57.7469 19.1876 57.3744 19.1876C57.0142 19.1876 56.7505 19.2722 56.5574 19.4282C56.1878 19.7801 55.8114 20.1247 55.4283 20.4618C55.1257 20.7162 54.8087 20.9528 54.4787 21.1704C54.1296 21.3866 53.7819 21.5556 53.4091 21.6514C53.0488 21.7591 52.6403 21.8074 52.1957 21.8074C52.0992 21.8074 52.0033 21.8074 51.9194 21.7951C51.3671 21.7591 50.8498 21.6031 50.3818 21.3142C49.8407 20.9903 49.3958 20.5101 49.0723 19.885C48.7354 19.2362 48.5668 18.4912 48.5549 17.6504H55.8123C56.7743 17.6504 57.5308 17.5063 58.0712 17.2418C58.6004 16.9536 58.8648 16.3523 58.8648 15.4272C58.8648 14.4178 58.6123 13.4328 58.0953 12.4598C57.5787 11.4979 56.798 10.7057 55.7648 10.0918C54.7308 9.47972 53.4807 9.17852 52.0397 9.17852H51.9194ZM66.7592 9.17852C65.6896 9.19078 64.7043 9.3709 63.8274 9.70664C62.9138 10.068 62.145 10.585 61.5073 11.2461C60.8945 11.9183 60.4147 12.7242 60.0908 13.6609C59.7658 14.5986 59.5976 15.62 59.5976 16.713C59.5976 19.0442 60.2583 20.87 61.5801 22.2274C62.8291 23.5139 64.5602 24.1861 66.7592 24.2578C66.8799 24.2704 67.0106 24.2708 67.1428 24.2708C68.1768 24.2708 69.1019 24.1382 69.9067 23.8623C70.7115 23.5852 71.3726 23.2495 71.9011 22.8402C72.4307 22.4205 72.8263 21.9875 73.0911 21.5426C73.3551 21.0984 73.4877 20.7021 73.4877 20.3779C73.4877 20.0054 73.367 19.7049 73.1267 19.4999C72.8987 19.2964 72.5867 19.1876 72.202 19.1876C71.8528 19.1876 71.5888 19.2722 71.3964 19.4282C70.9277 19.8609 70.5563 20.2093 70.2677 20.4618C69.961 20.7163 69.6398 20.9529 69.3058 21.1704C68.9705 21.3866 68.6091 21.5556 68.2492 21.6514C67.876 21.7591 67.4804 21.8074 67.0355 21.8074C66.9389 21.8074 66.8431 21.8074 66.7592 21.7951C66.2062 21.7591 65.6892 21.6031 65.2205 21.3142C64.6679 20.9903 64.2352 20.5101 63.8991 19.885C63.5745 19.2362 63.4059 18.4912 63.394 17.6504H70.6391C71.6129 17.6504 72.3698 17.5063 72.8987 17.2418C73.4398 16.9536 73.7031 16.3523 73.7031 15.4272C73.7031 14.4178 73.4398 13.4328 72.9228 12.4598C72.4062 11.4979 71.6367 10.7057 70.5912 10.0918C69.5576 9.47972 68.3209 9.17852 66.8665 9.17852H66.7592ZM16.2931 9.2034C15.7523 9.2034 15.3312 9.38316 15.0311 9.73152C14.7187 10.068 14.5624 10.5969 14.5624 11.3055V22.0113C14.5624 22.7318 14.7306 23.297 15.0786 23.6818C15.4277 24.0777 15.8597 24.2708 16.4008 24.2708C16.9534 24.2708 17.3976 24.0777 17.7467 23.7063C18.0951 23.3215 18.2756 22.7678 18.2756 22.0113V17.3856C18.2756 15.8591 18.3595 14.8382 18.5396 14.2852C18.7918 13.5888 19.2011 13.0484 19.7415 12.6518C20.2826 12.267 20.8831 12.0628 21.5442 12.0628C22.5526 12.0628 23.2378 12.3874 23.5746 13.0354C23.9107 13.685 24.0797 14.6213 24.0797 15.8476V22.0113C24.0797 22.7318 24.2472 23.297 24.596 23.6818C24.944 24.0777 25.3889 24.2708 25.9415 24.2708C26.4819 24.2708 26.9265 24.0777 27.2629 23.6933C27.5998 23.3215 27.7795 22.7559 27.7795 22.0113V15.1267C27.7795 14.3101 27.7439 13.6363 27.6715 13.1197C27.5994 12.5909 27.4438 12.0992 27.1913 11.642C26.8069 10.8613 26.242 10.2604 25.4728 9.8396C24.7037 9.41881 23.8272 9.2034 22.8534 9.2034C21.8439 9.2034 20.9548 9.40693 20.1738 9.80395C19.405 10.2121 18.6964 10.8372 18.0345 11.7018V11.2461C18.0345 10.8134 17.9629 10.4409 17.8069 10.1282C17.6509 9.8162 17.4344 9.58742 17.1703 9.43107C16.9051 9.27471 16.6169 9.2034 16.2931 9.2034ZM51.9079 11.7623H51.9194C52.8798 11.7623 53.6612 12.0746 54.2499 12.6997C54.8516 13.324 55.1873 14.2737 55.2831 15.5475H48.5546C48.6872 14.2982 49.0474 13.3485 49.6361 12.712C50.2247 12.075 50.9816 11.7623 51.9075 11.7623H51.9079ZM66.7469 11.7623H66.7592C67.7203 11.7623 68.5003 12.0746 69.0889 12.6997C69.6783 13.324 70.0267 14.2737 70.111 15.5475H63.3943C63.5143 14.2982 63.8749 13.3485 64.4758 12.712C65.0649 12.075 65.8218 11.7623 66.7469 11.7623ZM36.1433 11.9785H36.1901C36.8271 11.9785 37.4161 12.1708 37.945 12.5437C38.4976 12.9158 38.931 13.4566 39.2549 14.1656C39.568 14.8746 39.7358 15.7277 39.7358 16.7133C39.7358 17.7703 39.568 18.6472 39.2549 19.3439C38.931 20.041 38.4976 20.5573 37.9572 20.8934C37.428 21.2298 36.8271 21.3992 36.1901 21.3992H36.179C35.5302 21.3992 34.9408 21.2187 34.4 20.8703C33.8481 20.5101 33.427 19.9812 33.115 19.2845C32.8023 18.5755 32.6463 17.7224 32.6463 16.713C32.6463 15.7637 32.7911 14.9225 33.0793 14.2135C33.3794 13.493 33.788 12.9396 34.3283 12.5552C34.8572 12.1582 35.47 11.9785 36.1433 11.9785ZM81.5016 11.9785H81.538C82.175 11.9785 82.7636 12.1708 83.3044 12.5437C83.8451 12.9158 84.2782 13.4566 84.602 14.1656C84.9266 14.8746 85.083 15.7277 85.083 16.7133C85.083 17.7703 84.9266 18.6472 84.602 19.3439C84.2782 20.041 83.8444 20.5573 83.3159 20.8934C82.7838 21.2284 82.1668 21.404 81.538 21.3992H81.5265C80.8781 21.3992 80.2883 21.2187 79.7476 20.8703C79.2076 20.5101 78.7749 19.9812 78.4625 19.2845C78.1502 18.5755 77.9938 17.7224 77.9938 16.713C77.9938 15.7637 78.1368 14.9229 78.4377 14.2135C78.7262 13.493 79.147 12.9396 79.6759 12.5552C80.2174 12.1582 80.8172 11.9785 81.5016 11.9785ZM12.1112 12.0992C11.1493 12.6748 10.0202 12.9998 8.81878 12.9998C8.56698 12.9998 8.32632 12.9883 8.07377 12.9638V21.8074C8.07377 22.6244 8.26615 23.2372 8.63903 23.6461C9.02342 24.0665 9.49249 24.2708 10.0812 24.2708C10.6813 24.2708 11.1749 24.0665 11.5463 23.658C11.9196 23.2495 12.1112 22.6367 12.1112 21.8074V12.0995V12.0992Z" fill="#93C2DB"/>
</g>
<defs>
<clipPath id="clip0">
<rect width="93.4286" height="24" fill="white"/>
</clipPath>
</defs>
</svg>
