<svg width="161" height="32" viewBox="0 0 161 32" fill="none" xmlns="http://www.w3.org/2000/svg">
<g clip-path="url(#clip0)">
<path d="M39.8444 0.8C35.8444 0.8 34.4044 3.6 34.4044 6.24V7.84H33.6044C32.9644 7.84 32.4844 8.32 32.4844 8.96C32.4844 9.6 32.9644 10.08 33.6044 10.08H34.4044V21.12C34.4044 21.76 34.8844 22.32 35.6044 22.32C36.3244 22.32 36.8044 21.84 36.8044 21.12V10H39.3644C40.0044 10 40.4844 9.52 40.4844 8.88C40.4844 8.24 40.0044 7.76 39.3644 7.76H36.8044V6.16C36.8044 4.72 37.3644 2.96 39.9244 2.96C40.5644 2.96 41.0444 2.48 41.0444 1.92C40.9644 1.28 40.4844 0.8 39.8444 0.8V0.8ZM48.9644 7.44C47.3644 7.36 45.9244 8.08 44.9644 9.36V8.72C44.9644 8.08 44.4844 7.52 43.7644 7.52C43.0444 7.52 42.5644 8.08 42.5644 8.72V21.04C42.5644 21.68 43.0444 22.24 43.7644 22.24C44.4844 22.24 44.9644 21.76 44.9644 21.04V14.24C44.9644 11.36 46.4844 9.68 48.9644 9.68C49.6044 9.68 50.0844 9.2 50.0844 8.56C50.0844 7.92 49.5244 7.44 48.9644 7.44ZM63.1244 13.52C63.1244 12.16 62.7244 10.8 62.0044 9.68C60.8844 8.16 59.0444 7.28 57.1244 7.44C53.0444 7.44 50.7244 10.16 50.7244 14.88C50.7244 19.76 53.0444 22.4 57.4444 22.4C59.2044 22.48 60.9644 21.84 62.3244 20.64C62.5644 20.48 62.7244 20.16 62.7244 19.84C62.7244 19.28 62.2444 18.8 61.6844 18.8C61.4444 18.8 61.2044 18.88 61.0444 19.04C60.0844 19.84 58.8044 20.32 57.5244 20.32C54.8844 20.32 53.2044 18.56 53.1244 15.76H61.7644C63.1244 15.6 63.1244 14.32 63.1244 13.52V13.52ZM57.2044 9.52C59.6044 9.52 60.8044 10.88 60.8844 13.52H53.1244C53.3644 10.96 54.8044 9.52 57.2044 9.52V9.52ZM70.9644 13.68C69.2044 13.04 67.7644 12.56 67.7644 11.28C67.7644 9.84 69.3644 9.68 70.2444 9.68C71.4444 9.6 72.6444 10.08 73.4444 10.88C73.8444 11.28 74.5644 11.28 74.9644 10.88C75.2044 10.64 75.2844 10.4 75.2844 10.08C75.2844 9.84 75.2044 9.6 75.0444 9.36C73.8444 8 72.0844 7.2 70.3244 7.36C67.3644 7.36 65.5244 8.88 65.5244 11.2C65.5244 14.08 68.0844 14.96 70.3244 15.76C72.0044 16.32 73.5244 16.8 73.5244 18.08C73.5244 19.76 71.6044 20.08 70.4844 20.08C69.1244 20.16 67.7644 19.6 66.8044 18.64C66.5644 18.4 66.3244 18.32 66.0044 18.24C65.4444 18.24 64.9644 18.72 64.9644 19.28C64.9644 19.52 65.0444 19.76 65.2044 20C66.5644 21.6 68.4844 22.4 70.4844 22.4C73.8444 22.4 75.8444 20.8 75.8444 18.24C75.6844 15.28 73.2044 14.48 70.9644 13.68V13.68ZM84.8044 7.36C83.3644 7.28 81.9244 7.92 80.9644 9.04V1.2C80.9644 0.56 80.4844 0 79.7644 0C79.1244 0 78.6444 0.48 78.6444 1.2V21.04C78.6444 21.68 79.1244 22.24 79.7644 22.24C80.4044 22.24 80.9644 21.76 80.9644 21.04V13.6C80.9644 10.88 82.2444 9.52 84.8044 9.52C87.3644 9.52 88.2444 10.64 88.2444 13.36V21.04C88.2444 21.68 88.7244 22.24 89.4444 22.24C90.0844 22.24 90.5644 21.76 90.5644 21.04V12.96C90.5644 9.28 88.6444 7.36 84.8044 7.36ZM109.924 7.6C109.444 7.6 108.964 7.92 108.804 8.4L105.444 17.84L102.724 8.4C102.484 7.76 101.844 7.52 101.204 7.68C100.884 7.76 100.644 8.08 100.484 8.4L97.7644 17.84L94.5644 8.32C94.4044 7.84 94.0044 7.52 93.4444 7.6C92.8044 7.6 92.3244 8.08 92.3244 8.72C92.3244 8.88 92.3244 9.04 92.4044 9.2L96.8844 21.44C97.0444 21.92 97.4444 22.24 98.0044 22.24C98.4844 22.24 98.9644 21.92 99.1244 21.44L101.764 12.48L104.404 21.44C104.564 21.92 105.044 22.24 105.524 22.24C106.004 22.24 106.484 21.92 106.644 21.44L111.124 9.2C111.204 9.04 111.204 8.88 111.204 8.72C111.044 8.08 110.564 7.6 109.924 7.6ZM118.404 7.36C114.164 7.36 111.844 10 111.844 14.8C111.844 19.6 114.164 22.32 118.404 22.32C122.644 22.32 124.964 19.68 124.964 14.8C124.964 9.92 122.644 7.36 118.404 7.36ZM118.404 20.16C115.604 20.16 114.164 18.4 114.164 14.8C114.164 11.2 115.604 9.44 118.404 9.44C121.204 9.44 122.564 11.28 122.564 14.8C122.564 18.32 121.204 20.24 118.404 20.16ZM133.924 7.44C132.324 7.36 130.884 8.08 129.924 9.36V8.72C129.924 8.08 129.444 7.52 128.804 7.52C128.164 7.52 127.604 8 127.604 8.64V20.96C127.604 21.6 128.084 22.16 128.724 22.16C129.364 22.16 129.924 21.68 129.924 21.04V14.24C129.924 11.36 131.444 9.68 133.924 9.68C134.564 9.68 135.044 9.2 135.044 8.56C135.044 7.92 134.564 7.44 133.924 7.44V7.44ZM142.804 13.52L147.604 9.68C147.924 9.44 148.084 9.12 148.084 8.72C148.084 8.08 147.604 7.6 146.964 7.6C146.644 7.6 146.404 7.68 146.164 7.92L139.284 13.52V1.2C139.284 0.56 138.804 0 138.164 0C137.524 0 136.964 0.48 136.964 1.12V20.96C136.964 21.6 137.444 22.16 138.084 22.16C138.724 22.16 139.284 21.68 139.284 21.04V16.24L140.884 14.96L146.164 21.68C146.404 22 146.804 22.24 147.124 22.24C147.764 22.24 148.244 21.76 148.244 21.12C148.244 20.88 148.164 20.56 148.004 20.4L142.804 13.52V13.52ZM155.924 13.68C154.164 13.04 152.724 12.56 152.724 11.28C152.724 9.84 154.324 9.68 155.204 9.68C156.404 9.6 157.604 10.08 158.404 10.88C158.644 11.12 158.884 11.2 159.204 11.2C159.764 11.12 160.164 10.64 160.164 10.08C160.164 9.84 160.084 9.6 159.924 9.36C158.724 8 156.964 7.2 155.204 7.36C152.244 7.36 150.404 8.88 150.404 11.2C150.404 14.08 152.964 14.96 155.204 15.76C156.884 16.32 158.404 16.8 158.404 18.08C158.404 19.76 156.484 20.08 155.364 20.08C154.004 20.16 152.644 19.6 151.684 18.64C151.444 18.4 151.204 18.32 150.884 18.24C150.324 18.24 149.844 18.72 149.844 19.28C149.844 19.52 149.924 19.76 150.084 20C151.444 21.52 153.364 22.32 155.444 22.24C158.804 22.24 160.804 20.64 160.804 18.08C160.644 15.28 158.164 14.48 155.924 13.68V13.68Z" fill="#93C2DB"/>
<path d="M1.125 20.4C1.525 23.28 2.885 25.92 4.965 28L9.605 23.36C9.605 18.48 12.165 14 16.405 11.52L1.125 20.4Z" fill="#93C2DB"/>
<path d="M9.605 23.3599C7.205 23.3599 4.885 22.7199 2.805 21.5199C2.245 21.1999 1.685 20.7999 1.125 20.3999C1.525 23.2799 2.885 25.9199 4.965 27.9999L9.605 23.3599Z" fill="#93C2DB"/>
<path d="M9.60484 23.3601L4.96484 28.0001C7.04484 30.0801 9.68484 31.4401 12.5648 31.8401L21.3648 16.5601C18.9648 20.7201 14.4848 23.3601 9.60484 23.3601V23.3601Z" fill="#93C2DB"/>
<path d="M11.4448 30.1599C10.2448 28.0799 9.60484 25.7599 9.60484 23.3599L4.96484 27.9999C7.04484 30.0799 9.68484 31.4399 12.5648 31.8399C12.1648 31.2799 11.7648 30.7199 11.4448 30.1599V30.1599Z" fill="#93C2DB"/>
<path d="M26.9648 5.43994L16.4048 11.5199C12.1648 13.9199 7.04484 13.9199 2.80484 11.5199C1.60484 13.5999 0.964844 15.9999 0.964844 18.3999C0.964844 19.0399 1.04484 19.7599 1.12484 20.3999C1.68484 20.7999 2.24484 21.1999 2.80484 21.5199C4.88484 22.7199 7.20484 23.3599 9.60484 23.3599L27.2048 5.75994C27.1248 5.67994 27.0448 5.59994 26.9648 5.43994V5.43994Z" fill="#93C2DB"/>
<path d="M2.805 21.52C4.885 22.72 7.205 23.36 9.605 23.36C9.605 18.48 12.165 14 16.405 11.52L1.125 20.32C1.685 20.8 2.245 21.2 2.805 21.52V21.52Z" fill="#93C2DB"/>
<path d="M2.80484 11.52C1.60484 13.6 0.964844 16 0.964844 18.4C0.964844 19.04 1.04484 19.76 1.12484 20.4L16.4048 11.52C12.2448 14 7.04484 14 2.80484 11.52V11.52Z" fill="#93C2DB"/>
<path d="M27.2047 5.76021C26.9647 5.52021 26.8047 5.36021 26.5647 5.20021C26.0847 4.88021 25.4447 4.72021 24.8847 4.72021H14.5647C9.68469 4.72021 5.20469 7.36021 2.80469 11.5202C7.04469 13.9202 12.1647 13.9202 16.4047 11.5202C12.1647 13.9202 9.60469 18.4802 9.60469 23.3602C14.4847 23.3602 18.9647 20.8002 21.4447 16.5602L27.5247 6.00021C27.3647 5.92021 27.2847 5.84021 27.2047 5.76021V5.76021Z" fill="#93C2DB"/>
<path d="M16.4047 11.5201L26.9647 5.44012C26.8047 5.36012 26.7247 5.20012 26.5647 5.12012L2.80469 11.5201C7.04469 14.0001 12.2447 14.0001 16.4047 11.5201Z" fill="#93C2DB"/>
<path d="M24.8047 4.72021H14.5647C9.68469 4.72021 5.20469 7.36021 2.80469 11.5202L26.5647 5.12021C26.0047 4.88021 25.4447 4.72021 24.8047 4.72021Z" fill="#93C2DB"/>
<path d="M21.4455 16.5602L27.5255 6.00018C27.4455 5.92018 27.3655 5.84018 27.2855 5.68018L9.68555 23.2802C9.68555 25.6802 10.3255 28.0002 11.5255 30.0802C11.8455 30.6402 12.2455 31.2002 12.6455 31.7602C13.2855 31.8402 13.9255 31.9202 14.5655 31.9202C16.9655 31.9202 19.2855 31.2802 21.3655 30.0802C18.9655 25.9202 18.9655 20.7202 21.4455 16.5602V16.5602Z" fill="#93C2DB"/>
<path d="M9.60547 23.3601C9.60547 25.7601 10.2455 28.0801 11.4455 30.1601C11.7655 30.7201 12.1655 31.2801 12.5655 31.8401L21.3655 16.5601C18.9655 20.7201 14.4855 23.3601 9.60547 23.3601V23.3601Z" fill="#93C2DB"/>
<path d="M21.4445 16.5601L12.6445 31.8401C13.2845 31.9201 13.9245 32.0001 14.6445 32.0001C17.0445 32.0001 19.3645 31.3601 21.4445 30.1601C18.9645 25.9201 18.9645 20.7201 21.4445 16.5601V16.5601Z" fill="#93C2DB"/>
<path d="M27.7655 6.39994C27.5255 5.99994 27.2855 5.67994 26.9655 5.43994L16.4055 11.5199C12.1655 13.9199 9.60547 18.4799 9.60547 23.3599C14.4855 23.3599 18.9655 20.7999 21.4455 16.5599C19.0455 20.7999 19.0455 25.9199 21.4455 30.1599C25.6055 27.7599 28.2455 23.2799 28.2455 18.4799V8.15994C28.2455 7.51994 28.0855 6.95994 27.7655 6.39994V6.39994Z" fill="#93C2DB"/>
<path d="M26.9655 5.43994L16.4055 11.5199C12.1655 13.9199 9.60547 18.4799 9.60547 23.3599L27.2055 5.75994C27.1255 5.67994 27.0455 5.51994 26.9655 5.43994V5.43994Z" fill="#93C2DB"/>
<path d="M9.60547 23.3602C14.4855 23.3602 18.9655 20.8002 21.4455 16.5602L27.5255 6.00018C27.4455 5.92018 27.3655 5.84018 27.2855 5.68018L9.60547 23.3602Z" fill="#93C2DB"/>
<path d="M27.5245 6L21.4445 16.56C19.0445 20.8 19.0445 25.92 21.4445 30.16L27.8445 6.4C27.6845 6.24 27.6045 6.16 27.5245 6V6Z" fill="#93C2DB"/>
<path d="M21.4453 30.1599C25.6853 27.7599 28.2453 23.2799 28.2453 18.3999V8.1599C28.2453 7.5199 28.0853 6.9599 27.7653 6.3999L21.4453 30.1599V30.1599Z" fill="#93C2DB"/>
</g>
<defs>
<clipPath id="clip0">
<rect width="160" height="32" fill="white" transform="translate(0.964844)"/>
</clipPath>
</defs>
</svg>
