<svg width="98" height="32" viewBox="0 0 98 32" fill="none" xmlns="http://www.w3.org/2000/svg">
<g clip-path="url(#clip0)">
<path d="M91.7331 9.89067L86.3028 8.63007L85.3331 8.24219L60.4119 8.43613V20.4604L91.7331 20.5573V9.89067Z" fill="#93C2DB"/>
<path d="M81.552 19.3941C81.8429 18.4244 81.7459 17.4547 81.2611 16.8729C80.7762 16.2911 80.0974 15.9032 79.2247 15.8062L62.352 15.6123C62.255 15.6123 62.158 15.5153 62.0611 15.5153C61.9641 15.4184 61.9641 15.3214 62.0611 15.2244C62.158 15.0305 62.255 14.9335 62.4489 14.9335L79.4186 14.7396C81.455 14.6426 83.5883 12.9941 84.3641 11.0547L85.3338 8.53352C85.3338 8.43655 85.4308 8.33958 85.3338 8.24261C84.2671 3.29715 79.8065 -0.387695 74.5702 -0.387695C69.7217 -0.387695 65.552 2.71534 64.0974 7.07897C63.1277 6.40018 61.9641 6.01231 60.6065 6.10928C58.2792 6.30321 56.4368 8.24261 56.1459 10.5699C56.0489 11.1517 56.1459 11.7335 56.2429 12.3153C52.4611 12.4123 49.358 15.5153 49.358 19.3941C49.358 19.782 49.358 20.0729 49.455 20.4608C49.455 20.6547 49.6489 20.7517 49.7459 20.7517H80.8732C81.0671 20.7517 81.2611 20.6547 81.2611 20.4608L81.552 19.3941Z" fill="#93C2DB"/>
<path d="M86.8849 8.5332H86.4C86.3031 8.5332 86.2061 8.63017 86.1091 8.72714L85.4303 11.0544C85.1394 12.0241 85.2364 12.9938 85.7212 13.5756C86.2061 14.1574 86.8849 14.5453 87.7576 14.6423L91.3455 14.8362C91.4425 14.8362 91.5394 14.9332 91.6364 14.9332C91.7334 15.0302 91.7334 15.1271 91.6364 15.2241C91.5394 15.4181 91.4425 15.515 91.2485 15.515L87.5637 15.709C85.5273 15.8059 83.394 17.4544 82.6182 19.3938L82.4243 20.2665C82.3273 20.3635 82.4243 20.5574 82.6182 20.5574H95.4182C95.6122 20.5574 95.7091 20.4605 95.7091 20.2665C95.9031 19.4908 96.097 18.6181 96.097 17.7453C96.097 12.7029 91.9273 8.5332 86.8849 8.5332Z" fill="#93C2DB"/>
<path d="M97.3581 25.9875C96.8733 25.9875 96.4854 25.5996 96.4854 25.1148C96.4854 24.6299 96.8733 24.242 97.3581 24.242C97.8429 24.242 98.2308 24.6299 98.2308 25.1148C98.2308 25.5996 97.8429 25.9875 97.3581 25.9875ZM97.3581 24.436C96.9702 24.436 96.6793 24.7269 96.6793 25.1148C96.6793 25.5026 96.9702 25.7935 97.3581 25.7935C97.746 25.7935 98.0369 25.5026 98.0369 25.1148C98.0369 24.7269 97.746 24.436 97.3581 24.436ZM97.746 25.5996H97.552L97.3581 25.3087H97.1642V25.5996H96.9702V24.7269H97.4551C97.649 24.7269 97.746 24.8239 97.746 25.0178C97.746 25.1148 97.649 25.2117 97.552 25.3087L97.746 25.5996ZM97.4551 25.1148C97.552 25.1148 97.552 25.1148 97.552 25.0178C97.552 24.9208 97.4551 24.9208 97.4551 24.9208H97.1642V25.2117H97.4551V25.1148ZM10.4733 24.242H12.6066V30.0602H16.2914V31.9026H10.4733V24.242ZM18.5217 28.0239C18.5217 25.7936 20.2672 24.0481 22.6914 24.0481C25.1157 24.0481 26.7642 25.7936 26.7642 28.0239C26.7642 30.2542 25.0187 31.9996 22.5945 31.9996C20.2672 31.9996 18.5217 30.2542 18.5217 28.0239ZM24.6308 28.0239C24.6308 26.8602 23.8551 25.8905 22.6914 25.8905C21.5278 25.8905 20.752 26.8602 20.752 27.9269C20.752 28.9935 21.5278 29.9632 22.6914 29.9632C23.8551 30.1572 24.6308 29.1875 24.6308 28.0239ZM29.3823 28.5087V24.242H31.5157V28.5087C31.5157 29.5754 32.0975 30.1572 32.9702 30.1572C33.843 30.1572 34.4248 29.6723 34.4248 28.6057V24.242H36.5581V28.5087C36.5581 31.0299 35.1036 32.0966 32.9702 32.0966C30.7399 31.9996 29.3823 30.9329 29.3823 28.5087ZM39.7581 24.242H42.7642C45.4793 24.242 47.1278 25.7936 47.1278 28.0239C47.1278 30.2542 45.4793 31.9026 42.7642 31.9026H39.8551V24.242H39.7581ZM42.7642 29.9632C44.0248 29.9632 44.8975 29.2845 44.8975 28.0239C44.8975 26.7632 44.0248 26.0845 42.7642 26.0845H41.8914V29.9632H42.7642ZM50.1339 24.242H56.243V26.0845H52.2672V27.3451H55.8551V29.0905H52.2672V31.9026H50.1339V24.242ZM59.249 24.242H61.3823V30.0602H65.0672V31.9026H59.249V24.242ZM70.5945 24.1451H72.7278L76.0248 31.9026H73.6975L73.1157 30.5451H70.1096L69.5278 31.9026H67.2975L70.5945 24.1451ZM72.5339 28.8966L71.6611 26.7632L70.7884 28.8966H72.5339ZM78.7399 24.242H82.3278C83.4914 24.242 84.2672 24.5329 84.849 25.1148C85.3339 25.5996 85.5278 26.1814 85.5278 26.8602C85.5278 28.0239 84.946 28.7996 83.9763 29.1875L85.8187 31.9026H83.3945L81.8429 29.5754H80.8733V31.9026H78.7399V24.242ZM82.2308 27.9269C82.9096 27.9269 83.3945 27.539 83.3945 27.0542C83.3945 26.4723 82.9096 26.1814 82.2308 26.1814H80.8733V28.0239H82.2308V27.9269ZM88.5339 24.242H94.7399V25.9875H90.6672V27.1511H94.352V28.8966H90.6672V30.0602H94.8369V31.9026H88.5339V24.242ZM5.81872 28.9935C5.52781 29.6723 4.84902 30.1572 4.07326 30.1572C2.90962 30.1572 2.13387 29.1875 2.13387 28.1208C2.13387 27.0542 2.90962 26.0845 4.07326 26.0845C4.94599 26.0845 5.62478 26.6663 5.91569 27.3451H8.14599C7.75811 25.5026 6.20659 24.1451 4.07326 24.1451C1.74599 24.1451 -0.0964355 25.8905 -0.0964355 28.1208C-0.0964355 30.3511 1.64902 32.0966 3.97629 32.0966C6.01265 32.0966 7.56417 30.739 8.04902 28.9935H5.81872Z" fill="#93C2DB"/>
</g>
<defs>
<clipPath id="clip0">
<rect width="97.9394" height="32" fill="white"/>
</clipPath>
</defs>
</svg>
