<?xml version="1.0" encoding="UTF-8"?>
<svg width="139px" height="28px" viewBox="0 0 139 28" version="1.1" xmlns="http://www.w3.org/2000/svg" xmlns:xlink="http://www.w3.org/1999/xlink">
    <g id="Page-1" stroke="none" stroke-width="1" fill="none" fill-rule="evenodd">
        <g id="Tree-Nation_Logo" transform="translate(1.000000, 1.000000)">
            <g id="Layer_1">
                <g id="Group" transform="translate(30.576471, 6.500000)" fill="#93C2DB">
                    <path d="M74.3692824,7.84847917 C74.3692824,8.422375 74.3692824,9.00277083 74.3714471,9.5834375 C74.3714471,10.4398125 74.8582353,10.9738958 75.7170824,11.035375 C76.245,11.0773542 76.7721059,11.0982083 77.2984,11.1087708 C77.5259647,11.1098542 77.6520588,11.139375 77.6434,11.41725 C77.6174235,12.2365208 77.6190471,13.052 77.6098471,13.8737083 C77.6087647,14.0486667 77.5822471,14.1838125 77.3525176,14.19275 C75.7552353,14.2450208 74.1833882,14.1672917 72.8426235,13.13 C71.5868235,12.1574375 70.8562353,10.8912917 70.8470353,9.28389583 C70.8267412,6.66547917 70.8502824,4.0438125 70.8318824,1.41997917 C70.8302588,1.054625 70.9257765,0.955770833 71.2875529,0.969041667 C72.1853647,0.999375 73.0858824,0.993958333 73.9864,0.970666667 C74.3113765,0.963354167 74.3825412,1.06383333 74.3792941,1.37420833 C74.3595412,2.39958333 74.3833529,3.43308333 74.3641412,4.46225 C74.3568353,4.775875 74.4485647,4.8676875 74.7632588,4.8579375 C75.5008824,4.83572917 76.2425647,4.8546875 76.9796471,4.85008333 C77.2875765,4.84520833 77.5319176,4.8205625 77.5286706,5.27285417 C77.5251529,5.77741667 77.1893529,5.59758333 76.9677412,5.60489583 C76.2609647,5.6225 75.5512118,5.64335417 74.8449765,5.59785417 C74.4223176,5.57672917 74.3392471,5.724875 74.3625176,6.1091875 C74.3941765,6.68416667 74.3692824,7.2694375 74.3692824,7.84847917 Z" id="Path"></path>
                    <path d="M3.69785882,2.92716667 C3.69785882,3.43822917 3.71896471,3.9528125 3.69109412,4.4679375 C3.67242353,4.8043125 3.80068235,4.86822917 4.10022353,4.85820833 C4.88736471,4.83816667 5.67423529,4.86985417 6.463,4.84358333 C6.81476471,4.83275 6.79663529,5.00933333 6.80448235,5.25579167 C6.81476471,5.50983333 6.76822353,5.62710417 6.47382353,5.61708333 C5.66882353,5.59758333 4.86571765,5.6225 4.06071765,5.60841667 C3.80068235,5.59866667 3.70245882,5.65933333 3.70570588,5.94614583 C3.71923529,7.2158125 3.70570588,8.48520833 3.71355294,9.7573125 C3.71923529,10.452 4.20845882,10.9692917 4.89629412,11.0215625 C5.46967059,11.0648958 6.04683529,11.0941458 6.62237647,11.1076875 C6.86563529,11.1087708 6.96548235,11.1659167 6.96007059,11.4288958 C6.94464706,12.1975208 6.94762353,12.9712917 6.95547059,13.7453333 C6.96007059,14.0876667 6.82991765,14.1981667 6.47382353,14.1987083 C5.28567059,14.2003333 4.10022353,14.2003333 3.01489412,13.6391667 C1.17462353,12.6779792 0.167494118,11.1843333 0.161,9.075625 C0.149094118,6.521125 0.162623529,3.96364583 0.149094118,1.40454167 C0.147470588,1.07872917 0.213223529,0.957395833 0.564717647,0.9693125 C1.48011765,0.995854167 2.39768235,0.9936875 3.31362353,0.9709375 C3.64428235,0.959833333 3.71788235,1.0781875 3.70489412,1.38152083 C3.68270588,1.89529167 3.69785882,2.41204167 3.69785882,2.92716667 Z" id="Path"></path>
                    <path d="M96.4114,9.88189583 C96.4114,11.1683542 96.3978706,12.4537292 96.4206,13.7396458 C96.4249294,14.103375 96.3158824,14.2076458 95.9549176,14.2003333 C95.6064,14.1987083 95.5225176,14.0833333 95.5257647,13.7564375 C95.5352353,10.8281875 95.5352353,7.90752083 95.5225176,4.97547917 C95.5225176,4.63260417 95.6467176,4.55460417 95.9706118,4.55460417 C98.0268118,4.56977083 100.086529,4.49610417 102.139212,4.57166667 C104.937635,4.6808125 107.402694,6.87672917 107.402694,9.86591667 C107.402694,11.184875 107.412435,12.3781667 107.412435,13.7261042 C107.415141,14.0649167 107.343976,14.21225 106.962447,14.1984375 C106.077894,14.1702708 105.218776,14.178125 104.337471,14.2000625 C104.002212,14.2095417 103.901824,14.1161042 103.905612,13.775125 C103.905612,12.00875 103.898035,11.1521042 103.898035,9.24191667 C103.898035,7.3864375 102.145706,5.5055 100.202341,5.60327083 C98.0563059,5.60327083 98.8645529,5.60733333 96.8294588,5.60733333 C96.5034,5.59758333 96.3959765,5.6745 96.4035529,6.02197917 C96.4249294,7.3068125 96.4114,8.59327083 96.4114,9.88189583 Z" id="Path"></path>
                    <path d="M45.6344353,9.3591875 C45.6344353,7.9113125 45.6495882,6.46695833 45.6246941,5.02179167 C45.6171176,4.62502083 45.7432118,4.54864583 46.1085059,4.554875 C48.1157294,4.571125 50.1237647,4.52535417 52.1323412,4.571125 C54.7137529,4.6304375 57.2004588,6.6373125 57.4136824,9.24408333 C57.5381529,10.7989375 57.4369529,12.3537917 57.4891765,13.9121667 C57.4948588,14.1174583 57.4190941,14.196 57.2085765,14.196 C56.2149765,14.1867917 55.2184,14.1819167 54.2234471,14.196 C53.8730353,14.1989792 53.9398706,13.9725625 53.9398706,13.7732292 C53.9339176,12.2449167 53.9688235,10.7206667 53.9203882,9.19370833 C53.8595059,7.31222917 52.1842941,5.516875 50.2452588,5.60354167 C49.1726471,5.65635417 48.0932706,5.629 47.0171412,5.601375 C46.5947529,5.591625 46.4532353,5.68939583 46.4572941,6.14114583 C46.4835412,8.669375 46.4667647,11.1908333 46.4748824,13.7158125 C46.4770471,14.0437917 46.4172471,14.2136042 46.0286824,14.2003333 C45.7142588,14.1957292 45.6244235,14.116375 45.6265882,13.7973333 C45.6430941,12.3193958 45.6344353,10.8414583 45.6344353,9.3591875 Z" id="Path"></path>
                    <path d="M21.9988235,10.5830833 C22.5229529,11.1721458 23.2281059,11.2642292 23.9251412,11.295375 C24.9536471,11.3286875 25.9805294,11.3118958 27.0093059,11.295375 C27.3080353,11.2934792 27.3943529,11.38475 27.3875882,11.6777917 C27.3713529,12.3833125 27.3724353,13.0928958 27.3865059,13.7992292 C27.3875882,14.0825208 27.3050588,14.2087292 27.0003765,14.1989792 C25.4796706,14.1486042 23.9486824,14.3116458 22.4317647,14.103375 C19.9918706,13.762125 17.8011882,11.3874583 18.3123294,8.59327083 C18.6724824,6.62133333 19.7659294,5.30183333 21.6954941,4.720625 C23.9137765,4.05464583 26.1656118,5.0496875 27.0696471,7.07308333 C27.1086118,7.1654375 27.1494706,7.24695833 27.186,7.33579167 C27.3613412,7.77995833 27.2587882,8.02316667 26.7828235,8.23685417 C25.2637412,8.93452083 23.7763176,9.696375 22.2780706,10.434125 C22.1912118,10.4739375 22.1103059,10.5229583 21.9988235,10.5830833 L21.9988235,10.5830833 Z M21.1102118,8.0819375 C21.0977647,8.57025 21.2679647,9.036625 21.5512706,9.47997917 C21.6432706,9.62325 21.7138941,9.6370625 21.8665059,9.55933333 C23.1742588,8.90066667 24.4909412,8.24579167 25.8068118,7.59633333 C25.9675412,7.51427083 25.9924353,7.44439583 25.9296588,7.26239583 C25.5895294,6.202625 24.4122,5.41585417 23.3341765,5.58539583 C22.1008353,5.78310417 21.0547412,6.83447917 21.1102118,8.0819375 Z" id="Shape"></path>
                    <path d="M31.8531059,10.5830833 C32.3775059,11.1721458 33.0826588,11.2642292 33.7805059,11.295375 C34.8076588,11.3286875 35.8353529,11.3118958 36.8646706,11.295375 C37.1628588,11.2934792 37.2499882,11.38475 37.2429529,11.6777917 C37.2264471,12.3833125 37.2283412,13.0928958 37.2424118,13.7992292 C37.2445765,14.0825208 37.1609647,14.2087292 36.8562824,14.1989792 C35.3347647,14.1486042 33.8021529,14.3116458 32.2882118,14.103375 C29.8469647,13.762125 27.6562824,11.3874583 28.1674235,8.59327083 C28.5275765,6.62133333 29.6204824,5.30183333 31.5500471,4.720625 C33.7686,4.05464583 36.0196235,5.0496875 36.9250118,7.07308333 C36.9642471,7.1654375 37.0051059,7.24695833 37.0413647,7.33579167 C37.2172471,7.77995833 37.1149647,8.02316667 36.6376471,8.23685417 C35.1193765,8.93452083 33.6303294,9.696375 32.1326235,10.434125 C32.0463059,10.4739375 31.9640471,10.5229583 31.8531059,10.5830833 Z M30.9653059,8.0819375 C30.9512353,8.57025 31.1225176,9.036625 31.4063647,9.47997917 C31.4989059,9.62325 31.5684471,9.6370625 31.7207882,9.55933333 C33.0307059,8.90066667 34.3479294,8.24579167 35.6624471,7.59633333 C35.8223647,7.51427083 35.8472588,7.44439583 35.7844824,7.26239583 C35.4432706,6.202625 34.2675647,5.41585417 33.1895412,5.58539583 C31.9559294,5.78310417 30.9095647,6.83447917 30.9653059,8.0819375 Z" id="Shape"></path>
                    <path d="M11.8815294,11.4364792 C11.8804471,12.2254167 11.8717882,13.0157083 11.8858588,13.8005833 C11.8904588,14.0749375 11.8498706,14.2006042 11.5278706,14.196 C10.5640353,14.1708125 9.59884706,14.1786667 8.63636471,14.1930208 C8.37741176,14.196 8.30949412,14.109875 8.3122,13.8645 C8.3214,12.335375 8.23210588,10.7989375 8.33763529,9.27875 C8.47265882,7.33552083 10.0082471,5.22410417 12.4026824,4.70572917 C14.4096353,4.27429167 16.3494824,4.60904167 18.0555412,5.8605625 C18.1938118,5.96104167 18.4641294,6.04635417 18.2522588,6.29172917 C18.0880118,6.48104167 17.8958941,6.64354167 17.6055529,6.43933333 C16.9096,5.95372917 16.1535765,5.65960417 15.2774118,5.68939583 C13.7867412,5.7256875 12.3721059,6.9330625 11.9740706,8.56077083 C11.9459294,8.6831875 11.8864,8.80479167 11.8858588,8.92964583 C11.8804471,9.76354167 11.8842353,10.5979792 11.8815294,11.4364792 Z" id="Path"></path>
                    <g transform="translate(78.741176, 0.000000)" id="Path">
                        <path d="M3.85967059,1.9305 C3.85858824,2.94775 2.99351765,3.7895 1.94904706,3.78191667 C0.911070588,3.77541667 0.0901058824,2.929875 0.0928117647,1.87958333 C0.0971411765,0.846083333 0.966270588,-0.0111041667 2.00127059,0.0246458333 C3.13070588,0.0712291667 3.95031765,0.959833333 3.85967059,1.9305 Z"></path>
                        <path d="M3.76604706,9.38545833 C3.76604706,10.8541875 3.75305882,12.3153333 3.77281176,13.7772917 C3.77741176,14.1215208 3.68081176,14.2119792 3.34501176,14.1989792 C2.44530588,14.1786667 1.54587059,14.1821875 0.645894118,14.1984375 C0.320917647,14.2022292 0.194282353,14.1085208 0.198341176,13.7623958 C0.206729412,10.8057083 0.206729412,7.84875 0.198341176,4.88854167 C0.194823529,4.61120833 0.278435294,4.537 0.548752941,4.54160417 C1.51177647,4.55758333 2.47588235,4.55758333 3.4408,4.54160417 C3.73871765,4.53266667 3.77037647,4.652375 3.76983529,4.90235417 C3.76036471,6.4016875 3.76604706,7.89452083 3.76604706,9.38545833 Z"></path>
                    </g>
                    <path d="M41.4116353,9.66522917 C42.1289647,9.66522917 42.8544118,9.67958333 43.5730941,9.66116667 C43.8444941,9.6500625 43.9229647,9.7280625 43.9262118,10.00675 C43.9521882,11.2111458 43.9597647,11.2095208 42.7564588,11.2095208 C41.6151176,11.2095208 40.4808118,11.2000417 39.3446118,11.2179167 C39.0369529,11.2192708 38.9300706,11.1472292 38.9300706,10.8222292 C38.9287176,9.66495833 38.9138353,9.66495833 40.0632941,9.66495833 C40.5130118,9.66522917 40.9632706,9.66522917 41.4116353,9.66522917 Z" id="Path"></path>
                    <g transform="translate(83.341176, 4.604167)">
                        <path d="M5.62363529,0.039 C2.60982353,0.039 0.164517647,2.19347917 0.164517647,4.85008333 C0.164517647,7.50560417 2.60982353,9.66089583 5.62363529,9.66089583 C8.63798824,9.66089583 11.0808588,7.50560417 11.0808588,4.85008333 C11.0808588,2.19347917 8.63798824,0.039 5.62363529,0.039 Z M4.73691765,8.47383333 C2.73781176,8.47383333 1.11644706,6.85045833 1.11644706,4.8498125 C1.11644706,2.848625 2.73781176,1.22579167 4.73691765,1.22579167 C6.73602353,1.22579167 8.35684706,2.848625 8.35684706,4.8498125 C8.35684706,6.85045833 6.73602353,8.47383333 4.73691765,8.47383333 Z" id="Shape"></path>
                        <path d="M2.30189412,3.98233333 C2.30189412,3.28466667 2.86634118,2.72025 3.56175294,2.72025 L3.56175294,2.72025 C4.25770588,2.72025 4.82188235,3.28466667 4.82188235,3.98233333 L4.82188235,3.98233333 C4.82188235,4.6775625 4.25770588,5.243875 3.56175294,5.243875 L3.56175294,5.243875 C2.86634118,5.243875 2.30189412,4.6775625 2.30189412,3.98233333 L2.30189412,3.98233333 Z" id="Path"></path>
                    </g>
                    <path d="M69.4207647,9.5964375 C69.4597294,8.272875 69.0008118,7.1654375 68.0927176,6.24027083 C66.1693765,4.2761875 63.0310941,3.965 60.7256824,5.53502083 C59.3105059,6.4943125 58.4806118,7.85904167 58.6004824,9.58695833 C58.7414588,11.6274167 59.8933529,13.02275 61.7750235,13.7967917 C63.1220118,14.34875 64.5401647,14.1486042 65.9350471,14.1729792 L65.9350471,11.8123958 C65.0134235,12.8299167 63.8271647,13.2559375 62.4985765,13.1091458 C60.9670471,12.935 59.6498235,11.5515833 59.3383765,9.9978125 C59.0369412,8.4914375 59.7604941,6.92060417 61.1951529,6.1140625 C63.9207882,4.571125 66.7960588,6.7266875 66.8504471,9.27225 C66.8850824,10.7699583 66.8748,12.2649583 66.8612706,13.7591458 C66.8569412,14.1085208 66.9619294,14.1987083 67.2947529,14.1838125 C67.8391765,14.1572708 68.3892824,14.1526667 68.9342471,14.1848958 C69.3228118,14.2062917 69.4261765,14.0787292 69.4207647,13.6965833 C69.4002,12.3294167 69.3801765,10.9592708 69.4207647,9.5964375 Z" id="Path" fill-rule="nonzero"></path>
                </g>
                <g id="Group">
                    <path d="M10.6408824,11.206 C10.2479882,11.8159167 9.44975294,12.5379583 8.30164706,12.5728958 C6.86915294,12.6162292 6.03357647,12.146875 5.49023529,11.58625 C4.26852941,12.7467708 3.66187059,13.9644375 3.66187059,15.1669375 C3.66187059,15.7367708 3.76902353,16.2443125 3.95708235,16.6846875 C4.52234118,18.0266667 5.82549412,18.75575 7.08697647,18.75575 C7.90144706,18.75575 8.50918824,18.5190417 8.95024706,18.1604583 C9.65404706,17.5876458 9.92950588,16.7041875 9.92950588,15.975375 C9.92950588,14.4768542 8.92264706,13.9094583 8.05216471,13.9094583 C6.99605882,13.9094583 6.49222353,14.5329167 6.49222353,15.1019375 C6.49222353,15.8694792 7.00688235,16.2053125 7.36568235,16.2053125 C7.94284706,16.2053125 8.18989412,15.8572917 8.18989412,15.5209167 C8.18989412,15.236 7.86897647,14.8462708 7.26718824,14.9955 C7.38841176,14.7100417 7.60271765,14.659125 7.87898824,14.659125 C8.32221176,14.659125 8.70211765,15.0510208 8.70211765,15.5341875 C8.70211765,15.9723958 8.44262353,16.7808333 7.40302353,16.7808333 C6.7482,16.7808333 5.88664706,16.2705833 5.88664706,15.2159583 C5.88664706,14.4378542 6.43052941,13.2342708 8.14524706,13.2342708 C8.97,13.2342708 9.76742353,13.6611042 10.2393294,14.4248542 C10.4176471,14.7149167 10.5499647,15.0512917 10.6178824,15.43425 C10.6276235,15.4965417 10.6370941,15.5588333 10.6441294,15.6208542 C10.7196235,16.2215625 10.6744353,16.8184792 10.6744353,17.4164792 C10.6782235,22.1985833 10.6801176,23.2840833 10.6806588,25.7898333 L11.2294118,25.7898333 C11.2350941,20.8834167 11.2294118,16.1985417 11.2326588,11.5648542 C11.0911412,11.435125 10.8530235,11.2875208 10.6408824,11.206 Z" id="Path" fill="#93C2DB"></path>
                    <path d="M14.8669294,15.6181458 C14.8750471,15.5504375 14.8858706,15.4824583 14.8966941,15.4144792 C14.9700235,14.9992917 15.1050471,14.6287917 15.2985176,14.3143542 C15.8096588,13.4845208 16.6390118,12.9913333 17.5349294,12.9913333 C19.4000941,12.9913333 19.9899765,14.3002708 19.9899765,15.1447292 C19.9899765,16.2917083 19.0542824,16.846375 18.3434471,16.846375 C17.2123882,16.846375 16.9301647,15.9677917 16.9301647,15.4916667 C16.9301647,14.9667917 17.3436235,14.5399583 17.825,14.5399583 C18.1277882,14.5399583 18.3588706,14.5960208 18.4892941,14.906125 C17.8358235,14.74525 17.4875765,15.1680208 17.4875765,15.4778542 C17.4875765,15.8434792 17.7557294,16.22075 18.3829529,16.22075 C18.7720588,16.22075 19.3316353,15.8548542 19.3316353,15.0209583 C19.3316353,14.404 18.7861294,13.7242083 17.6374824,13.7242083 C16.6925882,13.7242083 15.5953529,14.3419792 15.5953529,15.9710417 C15.5953529,16.7621458 15.8967882,17.723875 16.6612,18.3459792 C17.1398706,18.7357083 17.8003765,18.9940833 18.6868235,18.9940833 C20.0573529,18.9940833 21.4736118,18.2010833 22.0902824,16.7429167 C22.2932235,16.2635417 22.4290588,15.7107708 22.4095765,15.0927292 C22.3611412,13.5462708 21.8234824,12.1070625 19.6468706,10.7469375 C18.9582235,11.206 18.3412824,11.4039792 17.3685176,11.3917917 C16.7843176,11.3855625 15.8794706,11.0960417 15.3382941,10.5876875 C14.8409529,10.7480208 14.5787529,10.9018542 14.2754235,11.1093125 C14.2710941,15.7652083 14.2705529,20.9768542 14.2705529,25.7299792 L14.7787176,25.7299792 L14.7806118,17.2531667 C14.7811529,17.2531667 14.7854824,16.2703125 14.8669294,15.6181458 Z" id="Path" fill="#93C2DB"></path>
                    <path d="M14.2781294,11.1989583 C14.2781294,10.668125 14.2800235,10.1410833 14.2805647,9.62054167 C14.2805647,9.07535417 14.2386235,8.53070833 14.3068118,7.983625 C14.3143882,7.92702083 14.3227765,7.869875 14.3311647,7.81272917 C14.3920471,7.463625 14.5143529,7.15704167 14.6756235,6.89352083 C15.1069412,6.19720833 15.8340118,5.80829167 16.5851647,5.80829167 C18.1491647,5.80829167 18.6432588,6.90489583 18.6432588,7.61339583 C18.6432588,8.5759375 17.8599059,9.039875 17.2635294,9.039875 C16.3137647,9.039875 16.0778118,8.3045625 16.0778118,7.9048125 C16.0778118,7.463625 16.4247059,7.10775 16.8276118,7.10775 C17.0814235,7.10775 17.2754353,7.15379167 17.3855647,7.41379167 C16.8381647,7.2775625 16.5448471,7.6334375 16.5448471,7.89316667 C16.5448471,8.20029167 16.7716,8.51825 17.2957294,8.51825 C17.6212471,8.51825 18.0928824,8.21004167 18.0928824,7.51102083 C18.0928824,6.9931875 17.6342353,6.4228125 16.6709412,6.4228125 C15.8775765,6.4228125 14.9570353,6.94064583 14.9570353,8.30754167 C14.9570353,8.97108333 15.2100353,9.77654167 15.8518706,10.2995208 C15.9141059,10.3498958 15.9825647,10.39675 16.0526471,10.4419792 C16.4314706,10.686 16.9225882,10.8425417 17.5503529,10.8425417 C18.0750235,10.8425417 18.6080824,10.7025208 19.0818824,10.4343958 C19.6438941,10.1169792 20.1247294,9.61783333 20.4047882,8.9545625 C20.5758,8.55129167 20.6742941,8.08925 20.6742941,7.56979167 C20.6742941,6.036875 19.5121176,3.48670833 16.4401294,3.48670833 C15.6989882,3.48670833 14.9556824,3.65164583 14.2851647,3.98395833 C13.3348588,4.45520833 12.5209294,5.0984375 11.8785529,6.25652083 C11.9221176,6.2960625 12.0820353,6.4130625 12.1256,6.45477083 C12.8212824,7.10883333 13.4447176,8.09114583 13.6024706,9.31125 C13.6135647,9.38329167 13.6227647,9.45560417 13.6314235,9.5298125 C13.6595647,9.76570833 13.6952824,10.086375 13.6942,10.3287708 C13.6942,10.6849167 13.6942,11.0405208 13.6942,11.3972083 L13.6463059,25.7394583 L14.2727176,25.7215833 C14.2732588,25.7215833 14.2743412,16.1760625 14.2781294,11.1989583 Z" id="Path" fill="#93C2DB"></path>
                    <path d="M13.6955529,9.74864583 C13.6955529,9.50733333 13.6768824,9.267375 13.6487412,9.03147917 C13.6395412,8.95808333 13.6295294,8.8846875 13.6192471,8.81372917 C13.4620353,7.59254167 12.9560353,6.66466667 12.2619765,6.01033333 C12.2178706,5.96970833 12.1713294,5.93097917 12.1256,5.89225 C11.8490588,5.653375 11.5468118,5.45133333 11.2261647,5.29208333 C10.5613294,4.9635625 9.82641176,4.80052083 9.09149412,4.80052083 C6.04981176,4.80052083 4.89872941,7.32577083 4.89872941,8.84433333 C4.89872941,9.35864583 4.9956,9.81635417 5.16390588,10.21475 C5.34438824,10.6399583 5.60658824,10.9944792 5.91884706,11.2793958 C6.49763529,11.805625 7.25284706,12.0848542 7.99263529,12.0848542 C8.72863529,12.0848542 9.27603529,11.8708958 9.67434118,11.5475208 C9.86591765,11.3915208 10.0198824,11.2073542 10.1443529,11.0112708 C10.4333412,10.5584375 10.5594353,10.0338333 10.5594353,9.5745 C10.5594353,8.2216875 9.64863529,7.7081875 8.86284706,7.7081875 C7.90902353,7.7081875 7.45578824,8.2720625 7.45578824,8.78583333 C7.45578824,9.47808333 7.92038824,9.78195833 8.24428235,9.78195833 C8.76435294,9.78195833 8.98785882,9.46779167 8.98785882,9.1641875 C8.98785882,8.90770833 8.69778824,8.55508333 8.15498824,8.69022917 C8.26430588,8.43266667 8.45642353,8.38608333 8.70617647,8.38608333 C9.10718824,8.38608333 9.44921176,8.7400625 9.44921176,9.176375 C9.44921176,9.57314583 9.21623529,10.300875 8.27594118,10.300875 C7.68605882,10.300875 6.90865882,9.84154167 6.90865882,8.88766667 C6.90865882,8.1859375 7.39950588,7.09935417 8.94835294,7.09935417 C9.69165882,7.09935417 10.4130471,7.4839375 10.8378706,8.17375 C10.9994118,8.43564583 11.1190118,8.73979167 11.1798941,9.08510417 C11.1888235,9.14116667 11.1961294,9.19722917 11.2047882,9.25383333 C11.2729765,9.7955 11.2321176,10.335 11.2321176,10.8745 C11.2321176,11.1030833 11.2321176,11.3335625 11.2321176,11.5643125 C11.2345529,16.1974583 11.2356353,20.9435417 11.2361765,25.7892917 L13.6974471,25.7892917 L13.6955529,9.74864583 Z" id="Path" fill="#93C2DB"></path>
                    <path d="M0.168847059,12.9913333 C0.168847059,5.93314583 5.88664706,0.210979167 12.9387176,0.210979167 C19.9907882,0.210979167 25.7088588,5.93341667 25.7088588,12.9913333 C25.7088588,20.0503333 19.9905176,25.7722292 12.9387176,25.7722292 C5.88664706,25.7722292 0.168847059,20.0503333 0.168847059,12.9913333 Z" id="Path" stroke="#93C2DB" stroke-width="0.541666667"></path>
                </g>
            </g>
        </g>
    </g>
</svg>
