<svg width="110" height="32" viewBox="0 0 110 32" fill="none" xmlns="http://www.w3.org/2000/svg">
<path d="M37.0289 25.9858H41.2956V26.3275C41.2956 27.1086 41.2077 27.7921 41.0222 28.3877C40.8465 28.9442 40.5438 29.4617 40.1142 29.9401C39.1574 31.0239 37.9369 31.5609 36.4528 31.5609C35.0078 31.5609 33.7678 31.0434 32.7426 29.9987C31.7077 28.954 31.2 27.6944 31.2 26.2201C31.2 24.7165 31.7272 23.4472 32.7719 22.4025C33.8166 21.3578 35.0957 20.8306 36.5993 20.8306C37.4097 20.8306 38.1615 20.9965 38.8645 21.3285C39.5381 21.6605 40.1923 22.1877 40.8367 22.9298L39.7237 23.994C38.8742 22.8614 37.8393 22.3049 36.6286 22.3049C35.535 22.3049 34.6172 22.6857 33.8752 23.4375C33.1332 24.1795 32.7621 25.1071 32.7621 26.2201C32.7621 27.3722 33.1722 28.3193 34.0021 29.0614C34.7735 29.7546 35.6131 30.0963 36.5114 30.0963C37.2827 30.0963 37.9662 29.8425 38.5813 29.325C39.1964 28.8075 39.5381 28.1826 39.6065 27.4601H37.0289V25.9858Z" fill="#93C2DB"/>
<path d="M46.8209 21.0356H48.3831V31.3754H46.8209V21.0356Z" fill="#93C2DB"/>
<path d="M57.2882 22.5002V31.3656H55.726V22.5002H53.3534V21.0356H59.6607V22.5002H57.2882ZM71.8849 21.5921V23.4375C70.9866 22.6857 70.0493 22.3049 69.0827 22.3049C68.0185 22.3049 67.13 22.6857 66.3977 23.4472C65.6654 24.2088 65.3042 25.1364 65.3042 26.2299C65.3042 27.3137 65.6654 28.2314 66.3977 28.9735C67.13 29.7155 68.0282 30.0866 69.0925 30.0866C69.6392 30.0866 70.1079 29.9987 70.4887 29.8229C70.7035 29.7351 70.928 29.6179 71.1526 29.4617C71.3869 29.3055 71.6213 29.1297 71.8751 28.9149V30.7993C70.9866 31.307 70.0493 31.5609 69.0632 31.5609C67.5889 31.5609 66.3293 31.0434 65.2846 30.0182C64.2497 28.9833 63.7224 27.7237 63.7224 26.2592C63.7224 24.9411 64.1618 23.7694 65.0308 22.7345C66.1048 21.475 67.4912 20.8403 69.1901 20.8403C70.1177 20.8403 71.0159 21.0844 71.8849 21.5921Z" fill="#93C2DB"/>
<path d="M79.3354 24.5309C79.3354 25.6733 79.7162 26.6106 80.4875 27.3429C81.2491 28.0751 82.1278 28.4462 83.1335 28.4462C84.2172 28.4462 85.135 28.0751 85.8771 27.3233C86.6191 26.5618 86.9999 25.644 86.9999 24.5505C86.9999 23.4472 86.6289 22.5294 85.8966 21.7776C85.1643 21.0258 84.2563 20.6547 83.1823 20.6547C82.1083 20.6547 81.2002 21.0258 80.4582 21.7776C79.7064 22.5294 79.3354 23.4374 79.3354 24.5309ZM77.7634 24.5114C77.7634 23.0566 78.3004 21.8069 79.3647 20.7621C80.4289 19.7174 81.6982 19.2 83.192 19.2C84.6664 19.2 85.9259 19.7272 86.9804 20.7817C88.0348 21.8361 88.5621 23.0957 88.5621 24.5797C88.5621 26.0638 88.0348 27.3233 86.9706 28.3583C85.9064 29.403 84.6175 29.9205 83.1042 29.9205C81.7665 29.9205 80.5754 29.4616 79.5111 28.534C78.3492 27.5089 77.7634 26.1712 77.7634 24.5114Z" fill="#93C2DB"/>
<path d="M93.1604 21.0356H94.7226V31.3754H93.1604V21.0356Z" fill="#93C2DB"/>
<path d="M100.766 31.3753V20.3325L108.303 28.2216V21.0355H109.866V32.0001L102.328 24.1404V31.3753H100.766Z" fill="#93C2DB"/>
<path d="M11.0768 14.1272C10.6592 14.1272 10.3229 13.7908 10.3229 13.3733V7.44652C10.3229 7.02898 10.6592 6.69263 11.0768 6.69263C11.4943 6.69263 11.8307 7.02898 11.8307 7.44652V13.3733C11.8191 13.7908 11.4827 14.1272 11.0768 14.1272Z" fill="#93C2DB"/>
<path d="M11.4824 31.9999C5.14967 31.9999 0 26.8502 0 20.5175C0 14.1848 5.14967 9.03516 11.4824 9.03516C14.5443 9.03516 17.4323 10.2298 19.6012 12.3987L20.3435 13.141L17.096 16.1913L15.6926 14.6951L17.3511 13.1294C15.6926 11.7956 13.6397 11.0765 11.4708 11.0765C6.27471 11.0765 2.04131 15.3099 2.04131 20.5059C2.04131 25.702 6.27471 29.9354 11.4708 29.9354" fill="#93C2DB"/>
<path d="M17.2481 26.0966L15.7752 24.67C16.8654 23.545 17.4569 22.072 17.4569 20.5178C17.4569 18.894 16.819 17.3631 15.6476 16.238L14.8821 15.4841L15.7056 14.707L16.4131 15.4493L17.0858 14.7534C18.6515 16.2728 19.5214 18.3257 19.5214 20.5062C19.5098 22.6055 18.7095 24.5888 17.2481 26.0966Z" fill="#93C2DB"/>
<path d="M11.4817 19.1834C10.751 19.1834 10.1479 19.7865 10.1479 20.5172C10.1479 21.2479 10.751 21.851 11.4817 21.851C12.2124 21.851 12.8155 21.2479 12.8155 20.5172C12.8155 19.7749 12.224 19.1834 11.4817 19.1834ZM11.4817 23.9039C9.61436 23.9039 8.09497 22.3845 8.09497 20.5172C8.09497 18.6498 9.61436 17.1305 11.4817 17.1305C13.349 17.1305 14.8684 18.6498 14.8684 20.5172C14.8684 22.3845 13.349 23.9039 11.4817 23.9039ZM18.8814 13.1174L12.9083 18.6382L18.8814 13.1174Z" fill="#93C2DB"/>
<path d="M18.1866 12.3635L19.5785 13.8713L13.6053 19.3921L12.2135 17.8843L18.1866 12.3635Z" fill="#93C2DB"/>
<path d="M20.2275 31.9996H11.2968V29.9467H18.1746V28.0794L11.9811 23.4169L13.2105 21.7815L20.2275 27.0587V31.9996Z" fill="#93C2DB"/>
<path d="M20.9592 8.01454L21.7827 7.19106L22.6062 8.01454L21.7827 8.83802L20.9592 8.01454ZM17.4218 4.04791L17.8161 3.65356L18.2104 4.04791L17.8161 4.44225L17.4218 4.04791Z" fill="#93C2DB"/>
<path d="M22.2929 0.591515C22.2929 0.266762 22.0261 0 21.7014 0C21.3766 0 21.1099 0.266762 21.1099 0.591515C21.1099 0.916269 21.3766 1.18303 21.7014 1.18303C22.0261 1.18303 22.2929 0.927867 22.2929 0.591515Z" fill="#93C2DB"/>
<path d="M7.5045 16.2027C7.08696 16.2027 6.75061 15.8663 6.75061 15.4488V7.44591C6.76221 7.02837 7.09856 6.70361 7.5161 6.70361C7.92204 6.71521 8.2468 7.03996 8.2584 7.44591V15.4488C8.2584 15.8663 7.92204 16.2027 7.5045 16.2027Z" fill="#93C2DB"/>
</svg>
