<svg width="58" height="24" viewBox="0 0 58 24" fill="none" xmlns="http://www.w3.org/2000/svg">
<g clip-path="url(#clip0)">
<path fill-rule="evenodd" clip-rule="evenodd" d="M57.2544 13.7088H49.5168C49.6992 15.5616 51.0528 16.1568 52.5888 16.1568C54.1632 16.1568 55.4304 15.8016 56.4768 15.2448V18.432C55.1489 19.1961 53.6294 19.5626 52.0992 19.488C48.2496 19.488 45.5424 17.088 45.5424 12.3072C45.5424 8.2848 47.8368 5.088 51.5904 5.088C55.3536 5.088 57.312 8.2368 57.312 12.288C57.312 12.672 57.2736 13.4976 57.2544 13.7088ZM51.5712 8.3136C50.5824 8.3136 49.488 9.0144 49.488 10.7904H53.568C53.568 9.0144 52.5408 8.3136 51.5712 8.3136ZM39.312 19.488C37.9296 19.488 37.0848 18.912 36.528 18.4896L36.5088 22.9344L32.5536 23.7696V5.3472H36.1632L36.24 6.3264C37.0772 5.53228 38.1869 5.0891 39.3408 5.088C42.1248 5.088 44.736 7.584 44.736 12.192C44.736 17.2128 42.144 19.488 39.312 19.488ZM38.4 8.592C37.488 8.592 36.9216 8.9184 36.5088 9.3696L36.528 15.2448C36.912 15.6672 37.4688 15.9936 38.4 15.9936C39.8592 15.9936 40.8384 14.4096 40.8384 12.2784C40.8384 10.2144 39.84 8.592 38.4 8.592ZM27.1104 5.3472H31.0752V19.2096H27.1104V5.3472ZM27.1104 0.8352L31.0752 0V3.2256L27.1104 4.0704V0.8448V0.8352ZM22.9632 9.8112V19.2096H19.008V5.3472H22.56L22.6752 6.5184C23.6352 4.8192 25.6224 5.1648 26.1504 5.3472V8.9856C25.6512 8.8224 23.952 8.5728 22.9632 9.8112ZM14.7552 14.3424C14.7552 16.6752 17.2512 15.9552 17.7504 15.744V18.9696C17.2224 19.2576 16.272 19.488 14.976 19.488C14.4358 19.5038 13.8981 19.4095 13.3956 19.2109C12.893 19.0122 12.4361 18.7135 12.0527 18.3327C11.6692 17.952 11.3672 17.4972 11.1651 16.996C10.9629 16.4949 10.8649 15.9578 10.8768 15.4176L10.8864 2.7744L14.7456 1.9488V5.3472H17.76V8.736H14.7552V14.352V14.3424ZM10.0416 15.0144C10.0416 17.8656 7.824 19.488 4.5408 19.488C3.06751 19.4869 1.61016 19.183 0.2592 18.5952V14.8224C1.584 15.5424 3.2352 16.08 4.5408 16.08C5.424 16.08 6.0096 15.8496 6.0096 15.12C6.0096 13.2192 0 13.9296 0 9.552C0 6.7584 2.1888 5.088 5.3952 5.088C6.7008 5.088 8.0064 5.28 9.3216 5.808V9.5328C8.1062 8.89314 6.75873 8.54477 5.3856 8.5152C4.56 8.5152 4.0032 8.7552 4.0032 9.3792C4.0032 11.1552 10.0416 10.3104 10.0416 15.024V15.0144Z" fill="#93C2DB"/>
</g>
<defs>
<clipPath id="clip0">
<rect width="57.6" height="24" fill="white"/>
</clipPath>
</defs>
</svg>
