<svg width="190" height="32" viewBox="0 0 190 32" fill="none" xmlns="http://www.w3.org/2000/svg">
<g clip-path="url(#clip0)">
<g clip-path="url(#clip1)">
<path fill-rule="evenodd" clip-rule="evenodd" d="M15.9936 32V25.8567C22.5671 25.8567 27.6497 19.4039 25.1403 12.5502C24.2106 10.0116 22.1687 7.98689 19.6092 7.0654C12.6994 4.57889 6.1952 9.61823 6.19421 16.1365C6.19421 16.1365 6.19354 16.1381 6.19266 16.1381H0C0 5.75152 10.1172 -2.33565 21.0911 1.06198C25.8866 2.54689 29.6972 6.32631 31.1944 11.0824C34.6198 21.9661 26.4662 32 15.9936 32Z" fill="#F2F8FF"/>
<path fill-rule="evenodd" clip-rule="evenodd" d="M16.0078 25.8724H9.83212V19.7494C9.83212 19.7494 9.83267 19.7482 9.83333 19.7482H16.007C16.0077 19.7482 16.008 19.7488 16.008 19.7488V25.8724H16.0078ZM9.83101 30.5786H5.08751L5.08619 30.5773V25.8724H9.83201V30.5773L9.83101 30.5786ZM5.08972 25.8724H1.11322C1.11157 25.8724 1.11035 25.8711 1.11035 25.8711V21.9291C1.11035 21.9291 1.11157 21.9264 1.11322 21.9264H5.08674C5.08839 21.9264 5.08972 21.9276 5.08972 21.9276V25.8724ZM47.758 10.6326H49.5775C51.6019 10.6326 53.2686 11.0276 54.532 11.8074C55.935 12.6464 56.6467 14.2426 56.6467 16.5513C56.6467 18.9296 55.9333 20.5977 54.5273 21.5104H54.5264C53.3158 22.3044 51.6595 22.7072 49.6028 22.7072H47.758V10.6326ZM56.9431 9.44794C55.1116 8.1878 52.8325 7.5489 50.1693 7.5489H44.3721V25.791H50.1693C52.8258 25.791 55.1058 25.1165 56.9453 23.7875C57.9461 23.0832 58.7325 22.0988 59.2829 20.8622C59.8305 19.6325 60.1082 18.1822 60.1082 16.5514C60.1082 14.9398 59.8305 13.5081 59.2826 12.2954C58.7322 11.0772 57.9452 10.1194 56.9431 9.44805V9.44794ZM64.1438 7.32435C63.5865 7.32435 63.1063 7.52043 62.7197 7.9041C62.3284 8.27376 62.1298 8.74239 62.1298 9.29643C62.1298 9.84926 62.3274 10.3251 62.7169 10.7116C63.1063 11.0978 63.5864 11.2942 64.1438 11.2942C64.7002 11.2942 65.1804 11.0978 65.5704 10.7116C65.9604 10.3245 66.1579 9.8486 66.1579 9.29643C66.1579 8.74305 65.9592 8.27464 65.5704 7.90697C65.1804 7.52043 64.7002 7.32435 64.1438 7.32435ZM62.4825 25.7909H65.7418V12.9429H62.4825V25.7909ZM76.7251 21.6042C76.1555 22.2457 75.4238 22.557 74.4891 22.557C73.5544 22.557 72.8269 22.2458 72.2656 21.6047C71.7068 20.9673 71.423 20.1218 71.423 19.0919C71.423 18.0459 71.7067 17.1897 72.266 16.5475C72.8199 15.9119 73.5676 15.5894 74.4891 15.5894C75.4232 15.5894 76.1549 15.9028 76.7249 16.5488C77.2923 17.1911 77.5802 18.0466 77.5802 19.0919C77.5802 20.1212 77.2923 20.9664 76.7251 21.6042ZM77.5803 14.0161C76.5973 13.149 75.4994 12.643 74.3126 12.643C72.5134 12.643 71.0178 13.2607 69.8683 14.4769C68.7036 15.6832 68.1131 17.2362 68.1131 19.0919C68.1131 20.9059 68.6945 22.4534 69.8433 23.6942C71.0017 24.8948 72.5051 25.5034 74.3126 25.5034C75.5694 25.5034 76.6499 25.1565 77.5299 24.4711V24.7668C77.5299 25.8329 77.2421 26.6621 76.6746 27.2319C76.1077 27.8006 75.3218 28.0886 74.3383 28.0886C72.8335 28.0886 71.8905 27.5022 70.7422 25.9631L68.5226 28.0784L68.5825 28.1616C69.062 28.8292 69.7962 29.4825 70.7656 30.1031C71.7352 30.7213 72.954 31.0351 74.3885 31.0351C76.3235 31.0351 77.8893 30.4434 79.0419 29.277C80.2012 28.1043 80.7892 26.5338 80.7892 24.611V12.9429H77.5802V14.0161H77.5803ZM83.579 25.7909H86.8387V12.9429H83.579V25.7909ZM85.2403 7.32435C84.6829 7.32435 84.2031 7.52043 83.8162 7.9041C83.4248 8.27376 83.2265 8.74239 83.2265 9.29643C83.2265 9.84926 83.4239 10.3251 83.8136 10.7116C84.2031 11.0978 84.6829 11.2942 85.2403 11.2942C85.797 11.2942 86.2771 11.0978 86.6669 10.7116C87.0569 10.3245 87.2542 9.8486 87.2542 9.29643C87.2542 8.74305 87.0559 8.27464 86.6669 7.90697C86.2771 7.52043 85.797 7.32435 85.2402 7.32435H85.2403ZM93.9834 9.47111H90.7743V12.9429H88.9108V15.8893H90.7743V21.2261C90.7743 22.8961 91.1106 24.0911 91.7745 24.7772C92.44 25.4665 93.6218 25.8159 95.2869 25.8159C95.8165 25.8159 96.3495 25.7987 96.8708 25.7648L97.0175 25.7551V22.8108L95.8997 22.8688C95.1237 22.8688 94.6056 22.7336 94.3592 22.4675C94.1098 22.1972 93.9834 21.6249 93.9834 20.7678V15.8894H97.0175V12.9429H93.9834V9.471V9.47111ZM112.302 25.7909H115.562V7.54901H112.302V25.7909ZM148.494 21.1967C147.911 21.8448 147.314 22.4067 146.855 22.6988V22.6994C146.404 22.9861 145.835 23.1317 145.165 23.1317C144.204 23.1317 143.432 22.7848 142.803 22.0701C142.177 21.3594 141.86 20.4462 141.86 19.3541C141.86 18.2621 142.173 17.3501 142.791 16.6445C143.411 15.9346 144.18 15.5894 145.139 15.5894C146.189 15.5894 147.296 16.237 148.245 17.3491L150.399 15.3002C148.995 13.4869 147.203 12.643 145.064 12.643C143.274 12.643 141.723 13.2898 140.453 14.5642C139.19 15.8298 138.549 17.4413 138.549 19.3541C138.549 21.267 139.189 22.8826 140.451 24.1563C141.714 25.4316 143.266 26.0782 145.064 26.0782C147.424 26.0782 149.329 25.0677 150.613 23.2164L148.494 21.1967ZM154.748 17.7626C154.905 17.1483 155.191 16.6364 155.599 16.2388C156.041 15.8078 156.616 15.5894 157.309 15.5894C158.099 15.5894 158.71 15.8122 159.126 16.253C159.512 16.6608 159.73 17.1684 159.775 17.7625H154.748V17.7626ZM161.873 14.7376C161.411 14.099 160.781 13.5848 160.001 13.2089C159.223 12.8333 158.317 12.6429 157.308 12.6429C155.488 12.6429 153.999 13.309 152.881 14.6231C151.796 15.9274 151.246 17.5484 151.246 19.4413C151.246 21.3887 151.85 23.0003 153.04 24.2314C154.223 25.4568 155.807 26.0782 157.748 26.0782C159.946 26.0782 161.75 25.1966 163.109 23.4573L163.183 23.3639L161.056 21.3368C160.859 21.5728 160.58 21.8401 160.325 22.0786C160.003 22.3798 159.7 22.6128 159.377 22.7725C158.89 23.0131 158.343 23.1317 157.732 23.1317C156.829 23.1317 156.081 22.8682 155.509 22.3482C154.974 21.8624 154.662 21.2067 154.579 20.397H163.215L163.244 19.2171C163.244 18.3819 163.13 17.5772 162.904 16.8252C162.68 16.0764 162.331 15.3707 161.873 14.7376H161.873ZM168.604 20.8811C168.974 20.6253 169.496 20.4968 170.157 20.4968C170.941 20.4968 171.774 20.6527 172.631 20.9613V22.2216C171.923 22.8748 170.976 23.2061 169.817 23.2061C169.253 23.2061 168.814 23.0818 168.513 22.8359C168.217 22.5953 168.073 22.2891 168.073 21.9012C168.073 21.4605 168.247 21.1264 168.604 20.8811H168.604ZM174.391 13.9041H174.391C173.403 13.0677 172.038 12.6429 170.333 12.6429C169.248 12.6429 168.234 12.8794 167.316 13.3407C166.468 13.7677 165.634 14.4745 165.105 15.3999L165.137 15.4394L167.225 17.4212C168.085 16.0616 169.04 15.5895 170.308 15.5895C170.989 15.5895 171.555 15.7708 171.989 16.1281C172.421 16.483 172.631 16.9341 172.631 17.5063V18.13C171.823 17.8861 171.017 17.7625 170.232 17.7625C168.61 17.7625 167.29 18.1412 166.31 18.8873C165.317 19.6434 164.813 20.7245 164.813 22.1011C164.813 23.3082 165.238 24.2891 166.078 25.0178C166.925 25.7209 167.984 26.0782 169.225 26.0782C170.466 26.0782 171.628 25.5822 172.681 24.733V25.7909H175.891V17.5314C175.891 15.9674 175.387 14.7474 174.391 13.9041ZM188.431 14.1557C187.523 13.1524 186.247 12.6429 184.638 12.6429C183.345 12.6429 182.295 13.0112 181.509 13.7381V12.9429H178.313V25.7909H181.572V18.7051C181.572 17.7315 181.806 16.9586 182.267 16.4071C182.726 15.8568 183.358 15.5894 184.198 15.5894C184.936 15.5894 185.496 15.8285 185.909 16.3199C186.323 16.8136 186.533 17.4937 186.533 18.3431V25.7909H189.793V18.3431C189.793 16.5635 189.335 15.1552 188.431 14.1557ZM102.417 20.8811C102.787 20.6253 103.31 20.4968 103.971 20.4968C104.755 20.4968 105.587 20.6527 106.445 20.9613V22.2216C105.737 22.8748 104.79 23.2061 103.631 23.2061C103.067 23.2061 102.628 23.0818 102.327 22.8359C102.031 22.5953 101.887 22.2891 101.887 21.9012C101.887 21.4605 102.061 21.1264 102.417 20.8811ZM108.205 13.9041H108.205C107.217 13.0677 105.851 12.6429 104.147 12.6429C103.062 12.6429 102.048 12.8794 101.13 13.3407C100.281 13.7677 99.4479 14.4745 98.9187 15.3999L98.9512 15.4394L101.039 17.4212C101.898 16.0616 102.855 15.5895 104.122 15.5895C104.803 15.5895 105.368 15.7708 105.803 16.1281C106.235 16.483 106.445 16.9341 106.445 17.5063V18.13C105.637 17.8861 104.831 17.7625 104.046 17.7625C102.424 17.7625 101.104 18.1412 100.124 18.8873C99.1305 19.6434 98.627 20.7245 98.627 22.1011C98.627 23.3082 99.0515 24.2891 99.8919 25.0178C100.739 25.7209 101.798 26.0782 103.039 26.0782C104.28 26.0782 105.441 25.5822 106.495 24.733V25.7909H109.705V17.5314C109.705 15.9674 109.201 14.7474 108.205 13.9041H108.205ZM127.389 10.572C124.004 10.572 121.249 13.3036 121.249 16.6617C121.249 20.0199 124.004 22.7514 127.389 22.7514C130.775 22.7514 133.529 20.0199 133.529 16.6617C133.529 13.3036 130.775 10.572 127.389 10.572ZM127.389 26.0653C122.161 26.0653 117.907 21.8471 117.907 16.6617C117.907 11.4762 122.161 7.25781 127.389 7.25781C132.617 7.25781 136.871 11.4762 136.871 16.6617C136.871 21.8471 132.617 26.0653 127.389 26.0653Z" fill="#F2F8FF"/>
</g>
</g>
<defs>
<clipPath id="clip0">
<rect width="189.793" height="32" fill="white"/>
</clipPath>
<clipPath id="clip1">
<rect width="189.793" height="32" fill="white"/>
</clipPath>
</defs>
</svg>
