<svg width="190" height="32" viewBox="0 0 190 32" fill="none" xmlns="http://www.w3.org/2000/svg">
<g clip-path="url(#clip0)">
<path fill-rule="evenodd" clip-rule="evenodd" d="M15.9936 32V25.8567C22.5671 25.8567 27.6497 19.4039 25.1403 12.5502C24.2106 10.0116 22.1687 7.98689 19.6092 7.0654C12.6994 4.57889 6.1952 9.61823 6.19421 16.1365C6.19421 16.1365 6.19354 16.1381 6.19266 16.1381H0C0 5.75152 10.1172 -2.33565 21.0911 1.06198C25.8866 2.54689 29.6972 6.32631 31.1944 11.0824C34.6198 21.9661 26.4662 32 15.9936 32Z" fill="#072540"/>
<path fill-rule="evenodd" clip-rule="evenodd" d="M16.0068 25.8724H9.83114V19.7494C9.83114 19.7494 9.83169 19.7482 9.83235 19.7482H16.006C16.0067 19.7482 16.007 19.7488 16.007 19.7488V25.8724H16.0068ZM9.83004 30.5786H5.08653L5.08521 30.5773V25.8724H9.83103V30.5773L9.83004 30.5786ZM5.08874 25.8724H1.11224C1.11059 25.8724 1.10938 25.8711 1.10938 25.8711V21.9291C1.10938 21.9291 1.11059 21.9264 1.11224 21.9264H5.08576C5.08742 21.9264 5.08874 21.9276 5.08874 21.9276V25.8724ZM47.757 10.6326H49.5766C51.601 10.6326 53.2676 11.0276 54.5311 11.8074C55.934 12.6464 56.6457 14.2426 56.6457 16.5513C56.6457 18.9296 55.9323 20.5977 54.5263 21.5104H54.5254C53.3148 22.3044 51.6586 22.7072 49.6018 22.7072H47.757V10.6326ZM56.9421 9.44794C55.1106 8.1878 52.8315 7.5489 50.1684 7.5489H44.3712V25.791H50.1684C52.8248 25.791 55.1048 25.1165 56.9443 23.7875C57.9451 23.0832 58.7316 22.0988 59.282 20.8622C59.8295 19.6325 60.1072 18.1822 60.1072 16.5514C60.1072 14.9398 59.8295 13.5081 59.2816 12.2954C58.7312 11.0772 57.9442 10.1194 56.9421 9.44805V9.44794ZM64.1429 7.32435C63.5855 7.32435 63.1053 7.52043 62.7187 7.9041C62.3275 8.27376 62.1288 8.74239 62.1288 9.29643C62.1288 9.84926 62.3265 10.3251 62.7159 10.7116C63.1053 11.0978 63.5854 11.2942 64.1429 11.2942C64.6992 11.2942 65.1794 11.0978 65.5694 10.7116C65.9595 10.3245 66.1569 9.8486 66.1569 9.29643C66.1569 8.74305 65.9583 8.27464 65.5694 7.90697C65.1794 7.52043 64.6992 7.32435 64.1429 7.32435ZM62.4815 25.7909H65.7409V12.9429H62.4815V25.7909ZM76.7241 21.6042C76.1545 22.2457 75.4229 22.557 74.4881 22.557C73.5534 22.557 72.8259 22.2458 72.2647 21.6047C71.7058 20.9673 71.422 20.1218 71.422 19.0919C71.422 18.0459 71.7058 17.1897 72.265 16.5475C72.8189 15.9119 73.5666 15.5894 74.4881 15.5894C75.4222 15.5894 76.1539 15.9028 76.7239 16.5488C77.2913 17.1911 77.5792 18.0466 77.5792 19.0919C77.5792 20.1212 77.2913 20.9664 76.7241 21.6042ZM77.5793 14.0161C76.5964 13.149 75.4984 12.643 74.3116 12.643C72.5124 12.643 71.0168 13.2607 69.8673 14.4769C68.7026 15.6832 68.1121 17.2362 68.1121 19.0919C68.1121 20.9059 68.6935 22.4534 69.8423 23.6942C71.0007 24.8948 72.5041 25.5034 74.3116 25.5034C75.5684 25.5034 76.6489 25.1565 77.5289 24.4711V24.7668C77.5289 25.8329 77.2411 26.6621 76.6736 27.2319C76.1068 27.8006 75.3208 28.0886 74.3373 28.0886C72.8325 28.0886 71.8895 27.5022 70.7413 25.9631L68.5217 28.0784L68.5815 28.1616C69.061 28.8292 69.7953 29.4825 70.7647 30.1031C71.7343 30.7213 72.953 31.0351 74.3875 31.0351C76.3225 31.0351 77.8883 30.4434 79.0409 29.277C80.2002 28.1043 80.7883 26.5338 80.7883 24.611V12.9429H77.5792V14.0161H77.5793ZM83.578 25.7909H86.8377V12.9429H83.578V25.7909ZM85.2393 7.32435C84.6819 7.32435 84.2021 7.52043 83.8152 7.9041C83.4238 8.27376 83.2256 8.74239 83.2256 9.29643C83.2256 9.84926 83.423 10.3251 83.8126 10.7116C84.2021 11.0978 84.6819 11.2942 85.2393 11.2942C85.796 11.2942 86.2762 11.0978 86.6659 10.7116C87.056 10.3245 87.2533 9.8486 87.2533 9.29643C87.2533 8.74305 87.055 8.27464 86.6659 7.90697C86.2762 7.52043 85.796 7.32435 85.2392 7.32435H85.2393ZM93.9824 9.47111H90.7734V12.9429H88.9099V15.8893H90.7734V21.2261C90.7734 22.8961 91.1096 24.0911 91.7735 24.7772C92.439 25.4665 93.6208 25.8159 95.2859 25.8159C95.8156 25.8159 96.3485 25.7987 96.8698 25.7648L97.0166 25.7551V22.8108L95.8988 22.8688C95.1227 22.8688 94.6046 22.7336 94.3582 22.4675C94.1089 22.1972 93.9824 21.6249 93.9824 20.7678V15.8894H97.0166V12.9429H93.9824V9.471V9.47111ZM112.301 25.7909H115.561V7.54901H112.301V25.7909ZM148.493 21.1967C147.91 21.8448 147.313 22.4067 146.854 22.6988V22.6994C146.403 22.9861 145.834 23.1317 145.164 23.1317C144.203 23.1317 143.431 22.7848 142.802 22.0701C142.176 21.3594 141.859 20.4462 141.859 19.3541C141.859 18.2621 142.172 17.3501 142.79 16.6445C143.41 15.9346 144.179 15.5894 145.138 15.5894C146.188 15.5894 147.295 16.237 148.244 17.3491L150.398 15.3002C148.994 13.4869 147.202 12.643 145.063 12.643C143.273 12.643 141.722 13.2898 140.452 14.5642C139.189 15.8298 138.548 17.4413 138.548 19.3541C138.548 21.267 139.188 22.8826 140.45 24.1563C141.713 25.4316 143.265 26.0782 145.063 26.0782C147.423 26.0782 149.328 25.0677 150.612 23.2164L148.493 21.1967ZM154.747 17.7626C154.904 17.1483 155.19 16.6364 155.598 16.2388C156.04 15.8078 156.615 15.5894 157.308 15.5894C158.098 15.5894 158.709 15.8122 159.125 16.253C159.511 16.6608 159.729 17.1684 159.774 17.7625H154.747V17.7626ZM161.872 14.7376C161.41 14.099 160.78 13.5848 160 13.2089C159.222 12.8333 158.316 12.6429 157.307 12.6429C155.487 12.6429 153.998 13.309 152.88 14.6231C151.795 15.9274 151.245 17.5484 151.245 19.4413C151.245 21.3887 151.849 23.0003 153.039 24.2314C154.222 25.4568 155.807 26.0782 157.747 26.0782C159.945 26.0782 161.749 25.1966 163.108 23.4573L163.182 23.3639L161.055 21.3368C160.858 21.5728 160.579 21.8401 160.324 22.0786C160.002 22.3798 159.699 22.6128 159.376 22.7725C158.889 23.0131 158.342 23.1317 157.731 23.1317C156.828 23.1317 156.08 22.8682 155.508 22.3482C154.973 21.8624 154.661 21.2067 154.578 20.397H163.214L163.243 19.2171C163.243 18.3819 163.129 17.5772 162.903 16.8252C162.679 16.0764 162.33 15.3707 161.872 14.7376H161.872ZM168.603 20.8811C168.973 20.6253 169.495 20.4968 170.156 20.4968C170.94 20.4968 171.773 20.6527 172.63 20.9613V22.2216C171.922 22.8748 170.975 23.2061 169.816 23.2061C169.252 23.2061 168.813 23.0818 168.512 22.8359C168.216 22.5953 168.072 22.2891 168.072 21.9012C168.072 21.4605 168.246 21.1264 168.603 20.8811H168.603ZM174.39 13.9041H174.39C173.402 13.0677 172.037 12.6429 170.332 12.6429C169.247 12.6429 168.233 12.8794 167.315 13.3407C166.467 13.7677 165.633 14.4745 165.104 15.3999L165.137 15.4394L167.224 17.4212C168.084 16.0616 169.04 15.5895 170.307 15.5895C170.988 15.5895 171.554 15.7708 171.988 16.1281C172.42 16.483 172.63 16.9341 172.63 17.5063V18.13C171.822 17.8861 171.016 17.7625 170.231 17.7625C168.609 17.7625 167.289 18.1412 166.309 18.8873C165.316 19.6434 164.812 20.7245 164.812 22.1011C164.812 23.3082 165.237 24.2891 166.077 25.0178C166.924 25.7209 167.983 26.0782 169.224 26.0782C170.465 26.0782 171.627 25.5822 172.68 24.733V25.7909H175.89V17.5314C175.89 15.9674 175.386 14.7474 174.39 13.9041ZM188.43 14.1557C187.522 13.1524 186.246 12.6429 184.637 12.6429C183.344 12.6429 182.294 13.0112 181.508 13.7381V12.9429H178.312V25.7909H181.571V18.7051C181.571 17.7315 181.805 16.9586 182.266 16.4071C182.725 15.8568 183.357 15.5894 184.197 15.5894C184.935 15.5894 185.495 15.8285 185.908 16.3199C186.322 16.8136 186.532 17.4937 186.532 18.3431V25.7909H189.792V18.3431C189.792 16.5635 189.334 15.1552 188.43 14.1557ZM102.417 20.8811C102.786 20.6253 103.309 20.4968 103.97 20.4968C104.754 20.4968 105.586 20.6527 106.444 20.9613V22.2216C105.736 22.8748 104.789 23.2061 103.63 23.2061C103.066 23.2061 102.627 23.0818 102.326 22.8359C102.03 22.5953 101.886 22.2891 101.886 21.9012C101.886 21.4605 102.06 21.1264 102.417 20.8811ZM108.204 13.9041H108.204C107.216 13.0677 105.85 12.6429 104.146 12.6429C103.061 12.6429 102.047 12.8794 101.129 13.3407C100.28 13.7677 99.4469 14.4745 98.9177 15.3999L98.9502 15.4394L101.038 17.4212C101.897 16.0616 102.854 15.5895 104.121 15.5895C104.802 15.5895 105.367 15.7708 105.802 16.1281C106.234 16.483 106.444 16.9341 106.444 17.5063V18.13C105.636 17.8861 104.83 17.7625 104.045 17.7625C102.423 17.7625 101.103 18.1412 100.123 18.8873C99.1296 19.6434 98.6261 20.7245 98.6261 22.1011C98.6261 23.3082 99.0505 24.2891 99.8909 25.0178C100.738 25.7209 101.797 26.0782 103.038 26.0782C104.279 26.0782 105.44 25.5822 106.494 24.733V25.7909H109.704V17.5314C109.704 15.9674 109.2 14.7474 108.204 13.9041H108.204ZM127.388 10.572C124.003 10.572 121.248 13.3036 121.248 16.6617C121.248 20.0199 124.003 22.7514 127.388 22.7514C130.774 22.7514 133.528 20.0199 133.528 16.6617C133.528 13.3036 130.774 10.572 127.388 10.572ZM127.388 26.0653C122.16 26.0653 117.906 21.8471 117.906 16.6617C117.906 11.4762 122.16 7.25781 127.388 7.25781C132.616 7.25781 136.87 11.4762 136.87 16.6617C136.87 21.8471 132.616 26.0653 127.388 26.0653Z" fill="#072540"/>
</g>
<defs>
<clipPath id="clip0">
<rect width="189.793" height="32" fill="white"/>
</clipPath>
</defs>
</svg>
