<svg width="178" height="30" viewBox="0 0 178 30" fill="none" xmlns="http://www.w3.org/2000/svg">
<g clip-path="url(#clip0)">
<path fill-rule="evenodd" clip-rule="evenodd" d="M14.994 30.0001V24.2408C21.1566 24.2408 25.9216 18.1913 23.569 11.7659C22.6975 9.386 20.7832 7.48783 18.3836 6.62393C11.9057 4.29283 5.808 9.01721 5.80707 15.1281C5.80707 15.1281 5.80645 15.1296 5.80562 15.1296H0C0 5.39217 9.48486 -2.18955 19.7729 0.995725C24.2687 2.38783 27.8411 5.93103 29.2447 10.3899C32.4561 20.5934 24.8121 30.0001 14.994 30.0001Z" fill="white"/>
<path fill-rule="evenodd" clip-rule="evenodd" d="M15.0072 24.2555H9.21755V18.5152C9.21755 18.5152 9.21807 18.514 9.21869 18.514H15.0065C15.0071 18.514 15.0074 18.5147 15.0074 18.5147V24.2555H15.0072ZM9.21651 28.6676H4.76948L4.76824 28.6664V24.2555H9.21745V28.6664L9.21651 28.6676ZM4.77155 24.2555H1.04358C1.04203 24.2555 1.04089 24.2543 1.04089 24.2543V20.5587C1.04089 20.5587 1.04203 20.5561 1.04358 20.5561H4.76876C4.77031 20.5561 4.77155 20.5573 4.77155 20.5573V24.2555ZM44.773 9.96818H46.4789C48.3768 9.96818 49.9392 10.3385 51.1237 11.0696C52.439 11.8561 53.1062 13.3526 53.1062 15.5169C53.1062 17.7467 52.4374 19.3105 51.1193 20.1661H51.1184C49.9835 20.9105 48.4308 21.2881 46.5026 21.2881H44.773V9.96818ZM53.3841 8.85756C51.667 7.67618 49.5304 7.07722 47.0337 7.07722H41.5988V24.1792H47.0337C49.5241 24.1792 51.6617 23.5468 53.3861 22.3009C54.3244 21.6407 55.0617 20.7177 55.5777 19.5585C56.091 18.4056 56.3514 17.0459 56.3514 15.517C56.3514 14.0062 56.091 12.6639 55.5774 11.527C55.0614 10.385 54.3236 9.48704 53.3841 8.85767V8.85756ZM60.1348 6.8667C59.6123 6.8667 59.1621 7.05053 58.7997 7.41022C58.4329 7.75677 58.2467 8.19611 58.2467 8.71553C58.2467 9.2338 58.4319 9.67987 58.797 10.0423C59.1621 10.4043 59.6122 10.5885 60.1348 10.5885C60.6564 10.5885 61.1066 10.4043 61.4722 10.0423C61.8379 9.67936 62.0229 9.23318 62.0229 8.71553C62.0229 8.19673 61.8367 7.7576 61.4722 7.41291C61.1066 7.05053 60.6564 6.8667 60.1348 6.8667ZM58.5773 24.1791H61.6329V12.1341H58.5773V24.1791ZM71.9297 20.254C71.3957 20.8555 70.7098 21.1473 69.8335 21.1473C68.9572 21.1473 68.2751 20.8556 67.749 20.2546C67.225 19.6569 66.959 18.8643 66.959 17.8987C66.959 16.9181 67.225 16.1155 67.7493 15.5134C68.2686 14.9176 68.9696 14.6152 69.8335 14.6152C70.7092 14.6152 71.3951 14.909 71.9295 15.5147C72.4615 16.1167 72.7314 16.9188 72.7314 17.8987C72.7314 18.8637 72.4615 19.6561 71.9297 20.254ZM72.7315 13.1402C71.81 12.3273 70.7806 11.8529 69.668 11.8529C67.9812 11.8529 66.5791 12.432 65.5015 13.5722C64.4096 14.7031 63.8559 16.159 63.8559 17.8987C63.8559 19.5994 64.401 21.0502 65.478 22.2135C66.564 23.339 67.9735 23.9096 69.668 23.9096C70.8462 23.9096 71.8592 23.5844 72.6842 22.9417V23.219C72.6842 24.2185 72.4144 24.9958 71.8824 25.53C71.351 26.0632 70.6141 26.3332 69.6921 26.3332C68.2813 26.3332 67.3973 25.7835 66.3208 24.3406L64.2399 26.3237L64.296 26.4017C64.7456 27.0275 65.4339 27.6399 66.3427 28.2217C67.2517 28.8014 68.3943 29.0956 69.7391 29.0956C71.5532 29.0956 73.0211 28.5408 74.1017 27.4473C75.1886 26.3479 75.7399 24.8756 75.7399 23.0729V12.1341H72.7314V13.1402H72.7315ZM78.3552 24.1791H81.4112V12.1341H78.3552V24.1791ZM79.9128 6.8667C79.3901 6.8667 78.9403 7.05053 78.5776 7.41022C78.2107 7.75677 78.0248 8.19611 78.0248 8.71553C78.0248 9.2338 78.2099 9.67987 78.5752 10.0423C78.9403 10.4043 79.3901 10.5885 79.9128 10.5885C80.4346 10.5885 80.8848 10.4043 81.2501 10.0423C81.6158 9.67936 81.8008 9.23318 81.8008 8.71553C81.8008 8.19673 81.6149 7.7576 81.2501 7.41291C80.8848 7.05053 80.4346 6.8667 79.9127 6.8667H79.9128ZM88.1094 8.87929H85.1009V12.1341H83.3539V14.8964H85.1009V19.8996C85.1009 21.4652 85.4161 22.5856 86.0385 23.2287C86.6624 23.8749 87.7704 24.2026 89.3314 24.2026C89.828 24.2026 90.3276 24.1864 90.8163 24.1547L90.9539 24.1456V21.3853L89.906 21.4397C89.1784 21.4397 88.6927 21.3128 88.4617 21.0634C88.2279 20.81 88.1094 20.2735 88.1094 19.4699V14.8965H90.9539V12.1341H88.1094V8.87918V8.87929ZM105.283 24.1791H108.339V7.07732H105.283V24.1791ZM139.213 19.872C138.666 20.4797 138.107 21.0064 137.677 21.2803V21.2808C137.254 21.5496 136.721 21.6861 136.092 21.6861C135.191 21.6861 134.467 21.3608 133.877 20.6908C133.291 20.0246 132.993 19.1685 132.993 18.1446C132.993 17.1208 133.287 16.2658 133.866 15.6044C134.448 14.9388 135.168 14.6152 136.068 14.6152C137.052 14.6152 138.09 15.2223 138.98 16.2649L140.999 14.344C139.682 12.6441 138.002 11.8529 135.997 11.8529C134.32 11.8529 132.865 12.4593 131.675 13.654C130.49 14.8406 129.89 16.3514 129.89 18.1446C129.89 19.9379 130.49 21.4526 131.673 22.6467C132.857 23.8423 134.312 24.4485 135.997 24.4485C138.21 24.4485 139.996 23.5011 141.2 21.7655L139.213 19.872ZM145.076 16.6526C145.223 16.0767 145.491 15.5967 145.874 15.224C146.289 14.8199 146.828 14.6152 147.477 14.6152C148.217 14.6152 148.791 14.824 149.181 15.2373C149.542 15.6197 149.746 16.0955 149.789 16.6525H145.076V16.6526ZM151.756 13.8167C151.322 13.2179 150.732 12.7358 150.001 12.3835C149.272 12.0314 148.422 11.8528 147.476 11.8528C145.77 11.8528 144.374 12.4773 143.326 13.7093C142.309 14.932 141.793 16.4517 141.793 18.2264C141.793 20.052 142.359 21.5629 143.475 22.717C144.584 23.8658 146.069 24.4485 147.889 24.4485C149.95 24.4485 151.641 23.6219 152.915 21.9914L152.984 21.9037L150.99 20.0034C150.805 20.2247 150.544 20.4752 150.305 20.6988C150.003 20.9812 149.719 21.1997 149.416 21.3494C148.959 21.5749 148.447 21.6861 147.874 21.6861C147.027 21.6861 146.326 21.439 145.79 20.9516C145.288 20.4961 144.995 19.8814 144.918 19.1223H153.014L153.041 18.0161C153.041 17.2331 152.934 16.4787 152.722 15.7737C152.512 15.0718 152.185 14.4102 151.756 13.8167H151.756ZM158.066 19.5761C158.413 19.3364 158.902 19.2158 159.522 19.2158C160.257 19.2158 161.038 19.362 161.842 19.6514V20.8328C161.177 21.4453 160.29 21.7558 159.204 21.7558C158.675 21.7558 158.263 21.6393 157.981 21.4087C157.703 21.1832 157.569 20.8961 157.569 20.5325C157.569 20.1194 157.731 19.8061 158.066 19.5761H158.066ZM163.492 13.0352H163.492C162.566 12.2511 161.285 11.8528 159.687 11.8528C158.67 11.8528 157.719 12.0746 156.859 12.507C156.063 12.9074 155.282 13.5699 154.786 14.4376L154.816 14.4746L156.773 16.3325C157.579 15.0578 158.475 14.6153 159.664 14.6153C160.302 14.6153 160.832 14.7853 161.24 15.1202C161.645 15.4529 161.842 15.8758 161.842 16.4123V16.997C161.084 16.7684 160.328 16.6525 159.593 16.6525C158.072 16.6525 156.835 17.0075 155.915 17.7069C154.984 18.4158 154.512 19.4294 154.512 20.7199C154.512 21.8516 154.91 22.7711 155.698 23.4543C156.492 24.1135 157.485 24.4485 158.649 24.4485C159.812 24.4485 160.901 23.9835 161.889 23.1873V24.1791H164.898V16.4358C164.898 14.9696 164.425 13.8258 163.492 13.0352ZM176.654 13.2711C175.803 12.3305 174.607 11.8528 173.098 11.8528C171.886 11.8528 170.902 12.1981 170.165 12.8796V12.1341H167.168V24.1791H170.224V17.5361C170.224 16.6234 170.443 15.8988 170.875 15.3817C171.305 14.8658 171.898 14.6152 172.685 14.6152C173.377 14.6152 173.902 14.8394 174.289 15.3C174.678 15.7628 174.875 16.4005 174.875 17.1967V24.1791H177.931V17.1967C177.931 15.5284 177.502 14.2081 176.654 13.2711ZM96.0163 19.5761C96.363 19.3364 96.8529 19.2158 97.4724 19.2158C98.2081 19.2158 98.9881 19.362 99.7923 19.6514V20.8328C99.1281 21.4453 98.2408 21.7558 97.1542 21.7558C96.6251 21.7558 96.2141 21.6393 95.9315 21.4087C95.654 21.1832 95.519 20.8961 95.519 20.5325C95.519 20.1194 95.6818 19.8061 96.0163 19.5761ZM101.442 13.0352H101.442C100.516 12.2511 99.2356 11.8528 97.6376 11.8528C96.6207 11.8528 95.67 12.0746 94.8096 12.507C94.0137 12.9074 93.2323 13.5699 92.7362 14.4376L92.7667 14.4746L94.7236 16.3325C95.5297 15.0578 96.4262 14.6153 97.6141 14.6153C98.2526 14.6153 98.7829 14.7853 99.19 15.1202C99.5951 15.4529 99.7923 15.8758 99.7923 16.4123V16.997C99.0343 16.7684 98.2787 16.6525 97.5433 16.6525C96.0226 16.6525 94.785 17.0075 93.8658 17.7069C92.9348 18.4158 92.4628 19.4294 92.4628 20.7199C92.4628 21.8516 92.8607 22.7711 93.6486 23.4543C94.4428 24.1135 95.4354 24.4485 96.5994 24.4485C97.7627 24.4485 98.851 23.9835 99.8392 23.1873V24.1791H102.848V16.4358C102.848 14.9696 102.376 13.8258 101.442 13.0352H101.442ZM119.427 9.91139C116.253 9.91139 113.671 12.4723 113.671 15.6205C113.671 18.7687 116.253 21.3296 119.427 21.3296C122.601 21.3296 125.184 18.7687 125.184 15.6205C125.184 12.4723 122.601 9.91139 119.427 9.91139ZM119.427 24.4364C114.526 24.4364 110.538 20.4817 110.538 15.6205C110.538 10.759 114.526 6.80432 119.427 6.80432C124.329 6.80432 128.316 10.759 128.316 15.6205C128.316 20.4817 124.329 24.4364 119.427 24.4364Z" fill="white"/>
</g>
<defs>
<clipPath id="clip0">
<rect width="177.931" height="30" fill="white"/>
</clipPath>
</defs>
</svg>
