<svg width="11" height="14" viewBox="0 0 11 14" fill="none" xmlns="http://www.w3.org/2000/svg">
<path d="M7.875 6.78125C7.875 6.61719 7.71094 6.45312 7.54688 6.45312H2.95312C2.76172 6.45312 2.625 6.61719 2.625 6.78125V7.54688C2.625 7.73828 2.76172 7.875 2.95312 7.875H7.54688C7.71094 7.875 7.875 7.73828 7.875 7.54688V6.78125ZM7.54688 8.75H2.95312C2.76172 8.75 2.625 8.91406 2.625 9.07812V9.84375C2.625 10.0352 2.76172 10.1719 2.95312 10.1719H7.54688C7.71094 10.1719 7.875 10.0352 7.875 9.84375V9.07812C7.875 8.91406 7.71094 8.75 7.54688 8.75ZM10.5 3.60938C10.5 3.28125 10.3359 2.92578 10.0898 2.67969L7.82031 0.410156C7.57422 0.164062 7.21875 0 6.89062 0H1.3125C0.574219 0 0 0.601562 0 1.3125V12.6875C0 13.4258 0.574219 14 1.3125 14H9.1875C9.89844 14 10.5 13.4258 10.5 12.6875V3.60938ZM7 1.42188L9.07812 3.5H7V1.42188ZM9.1875 12.6875H1.3125V1.3125H5.6875V4.15625C5.6875 4.53906 5.96094 4.8125 6.34375 4.8125H9.1875V12.6875Z" fill="#93C2DB"/>
</svg>
