<svg width="275" height="180" viewBox="0 0 275 180" fill="none" xmlns="http://www.w3.org/2000/svg">
<g filter="url(#filter0_d)">
<path d="M268.374 51.0324H198.877C182.988 51.0324 170.107 63.9132 170.107 79.8025V128.868L192.318 111.496H239.604C255.493 111.496 268.374 98.6154 268.374 82.7261V51.0324Z" fill="url(#paint0_linear)"/>
</g>
<path d="M0.144531 33.3657H130.113C146.002 33.3657 158.883 46.2465 158.883 62.1358V159.099L123.004 131.038H28.9146C13.0253 131.038 0.144531 118.157 0.144531 102.267V33.3657Z" fill="#2C5271"/>
<rect x="19.9375" y="51.9158" width="36.5845" height="7.33446" fill="white"/>
<rect x="19.9375" y="67.7104" width="110.934" height="7.33446" fill="white"/>
<rect x="19.9375" y="82.8327" width="74.2005" height="7.06672" fill="white"/>
<rect x="19.9375" y="97.8494" width="50.3504" height="7.06672" fill="white"/>
<path d="M44.4596 7.71105C44.4801 7.40392 44.5481 7.11075 44.6366 6.83154H39.75V9.00238H44.6298C44.5005 8.59753 44.4324 8.16476 44.4596 7.71105Z" fill="#FF8AE2"/>
<path d="M51.2727 8.12274C51.2522 8.42986 51.1842 8.72303 51.0957 9.00223H55.9618V6.83142H51.1025C51.2318 7.23627 51.2931 7.66903 51.2727 8.12274Z" fill="#FF8AE2"/>
<path d="M52.3337 7.91318C52.3337 8.00392 52.3337 8.09466 52.3268 8.1854C52.2588 9.40691 51.7279 10.5237 50.8364 11.3404C49.9448 12.157 48.7947 12.5619 47.6037 12.4851C45.1468 12.3385 43.248 10.1607 43.4045 7.64095C43.4726 6.41945 44.0034 5.29566 44.895 4.48597C45.7865 3.67629 46.9367 3.26447 48.1277 3.34125C50.4961 3.48783 52.3337 5.51204 52.3337 7.91318ZM45.5075 7.92016C45.5075 9.19052 46.4739 10.2515 47.7194 10.3283C48.3455 10.3632 48.9512 10.1538 49.4208 9.72101C49.8904 9.29522 50.1694 8.70192 50.2103 8.05976C50.2783 6.75449 49.2983 5.58882 47.9984 5.50506L48.0597 4.42315L47.9984 5.50506C47.3723 5.47016 46.7666 5.67956 46.297 6.11232C45.8274 6.53811 45.5483 7.13141 45.5075 7.77357C45.5143 7.82244 45.5075 7.8713 45.5075 7.92016Z" fill="#FF8AE2"/>
<path d="M169.671 44.9415C169.671 44.9415 178.045 29.5592 195.551 32.55C195.551 32.55 190.844 48.9066 169.671 44.9415Z" fill="white"/>
<path d="M161.572 36.2195C161.572 36.2195 152.963 20.9694 164.507 7.27822C164.507 7.27822 175.831 19.8174 161.572 36.2195Z" fill="#93C2DB"/>
<path d="M23.1328 33.7283L23.1328 22.2087L11.3202 22.2087L11.3202 33.7283H23.1328Z" fill="#93C2DB"/>
<path d="M11.3203 45.7488L11.3203 33.7283H-0.000124931L-0.000124931 45.7488H11.3203Z" fill="white"/>
<path d="M198.372 90.3402V72.4768H211.082V76.3844H203.279V79.4547H210.305V83.3623H203.279V90.3402H198.372Z" fill="white" fill-opacity="0.5"/>
<path d="M214.807 90.3402H209.511L215.478 72.4768H222.186L228.152 90.3402H222.857L218.902 77.3962H218.761L214.807 90.3402ZM213.819 83.2925H223.775V86.921H213.819V83.2925Z" fill="white" fill-opacity="0.5"/>
<path d="M235.516 83.7112H239.329L240.706 85.4208L243.036 88.0375L246.072 91.666H241.73L239.576 89.1889L238.129 87.1304L235.516 83.7112ZM246.037 81.4085C246.037 83.3972 245.646 85.0748 244.863 86.4413C244.081 87.802 243.024 88.8341 241.695 89.5378C240.365 90.2355 238.882 90.5844 237.246 90.5844C235.599 90.5844 234.11 90.2326 232.78 89.529C231.456 88.8196 230.403 87.7846 229.62 86.4239C228.844 85.0574 228.455 83.3856 228.455 81.4085C228.455 79.4198 228.844 77.7451 229.62 76.3844C230.403 75.0179 231.456 73.9857 232.78 73.288C234.11 72.5843 235.599 72.2325 237.246 72.2325C238.882 72.2325 240.365 72.5843 241.695 73.288C243.024 73.9857 244.081 75.0179 244.863 76.3844C245.646 77.7451 246.037 79.4198 246.037 81.4085ZM240.989 81.4085C240.989 80.3385 240.844 79.4372 240.556 78.7046C240.274 77.9661 239.853 77.4078 239.294 77.0299C238.741 76.6461 238.058 76.4542 237.246 76.4542C236.434 76.4542 235.749 76.6461 235.19 77.0299C234.637 77.4078 234.216 77.9661 233.928 78.7046C233.645 79.4372 233.504 80.3385 233.504 81.4085C233.504 82.4784 233.645 83.3827 233.928 84.1212C234.216 84.8538 234.637 85.4121 235.19 85.7959C235.749 86.1738 236.434 86.3628 237.246 86.3628C238.058 86.3628 238.741 86.1738 239.294 85.7959C239.853 85.4121 240.274 84.8538 240.556 84.1212C240.844 83.3827 240.989 82.4784 240.989 81.4085Z" fill="white" fill-opacity="0.5"/>
<circle cx="202.79" cy="154.383" r="25.6168" fill="#93C2DB"/>
<path d="M205.963 151.756V147.677H207.519C208.934 147.677 210.088 148.847 210.088 150.29L210.095 161.432C208.539 162.002 207.415 163.506 207.415 165.283C207.415 166.4 207.854 167.41 208.569 168.147C209.299 168.907 210.319 169.377 211.443 169.377C213.662 169.377 215.463 167.532 215.463 165.276C215.463 163.582 214.451 162.131 213.014 161.508L213.006 150.29C213.006 148.794 212.403 147.381 211.398 146.34C210.363 145.284 208.986 144.707 207.527 144.707H205.971V140.628L200.514 146.196L205.963 151.756ZM211.435 163.407C211.949 163.407 212.411 163.62 212.746 163.969C213.073 164.304 213.267 164.767 213.274 165.276C213.274 165.777 213.088 166.248 212.738 166.597C212.388 166.954 211.934 167.144 211.443 167.144C210.43 167.144 209.604 166.309 209.604 165.276C209.604 164.243 210.423 163.407 211.435 163.407Z" fill="white"/>
<path d="M199.636 165.283C199.636 163.59 198.623 162.139 197.186 161.516L197.179 149.963C198.616 149.34 199.621 147.882 199.621 146.188C199.621 143.925 197.812 142.087 195.6 142.087C193.382 142.094 191.58 143.932 191.58 146.196C191.58 147.274 191.99 148.292 192.727 149.067C192.734 149.075 192.749 149.09 192.756 149.097C193.188 149.538 193.702 149.849 194.26 150.047L194.268 161.44C192.712 162.01 191.588 163.514 191.588 165.291C191.588 166.408 192.027 167.418 192.741 168.162C193.471 168.922 194.491 169.393 195.615 169.393C197.834 169.385 199.636 167.547 199.636 165.283ZM195.6 148.064C195.109 148.064 194.647 147.867 194.305 147.518C193.962 147.168 193.761 146.697 193.761 146.196C193.761 145.163 194.58 144.32 195.593 144.32C196.107 144.32 196.568 144.532 196.903 144.882C197.231 145.216 197.432 145.679 197.432 146.188C197.439 147.229 196.613 148.064 195.6 148.064ZM195.615 167.16C194.603 167.16 193.776 166.316 193.776 165.291C193.776 164.79 193.962 164.319 194.312 163.969C194.662 163.62 195.116 163.423 195.608 163.423C196.122 163.423 196.583 163.635 196.918 163.985C197.246 164.319 197.447 164.782 197.447 165.291C197.447 166.316 196.628 167.16 195.615 167.16Z" fill="white"/>
<path d="M232.823 38.5687V29.5799H223.99V38.5687H232.823Z" fill="white"/>
<defs>
<filter id="filter0_d" x="164.352" y="48.1554" width="109.775" height="89.3434" filterUnits="userSpaceOnUse" color-interpolation-filters="sRGB">
<feFlood flood-opacity="0" result="BackgroundImageFix"/>
<feColorMatrix in="SourceAlpha" type="matrix" values="0 0 0 0 0 0 0 0 0 0 0 0 0 0 0 0 0 0 127 0"/>
<feOffset dy="2.87701"/>
<feGaussianBlur stdDeviation="2.87701"/>
<feColorMatrix type="matrix" values="0 0 0 0 0.00392157 0 0 0 0 0.054902 0 0 0 0 0.156863 0 0 0 0.05 0"/>
<feBlend mode="normal" in2="BackgroundImageFix" result="effect1_dropShadow"/>
<feBlend mode="normal" in="SourceGraphic" in2="effect1_dropShadow" result="shape"/>
</filter>
<linearGradient id="paint0_linear" x1="304.375" y1="102.708" x2="143.182" y2="91.5626" gradientUnits="userSpaceOnUse">
<stop stop-color="#FF8AE2"/>
<stop offset="1" stop-color="#9C4668"/>
</linearGradient>
</defs>
</svg>