<svg width="275" height="180" viewBox="0 0 275 180" fill="none" xmlns="http://www.w3.org/2000/svg">
<g filter="url(#filter0_d)">
<path d="M268.375 51.0324H198.878C182.989 51.0324 170.108 63.9132 170.108 79.8025V128.868L192.319 111.496H239.605C255.494 111.496 268.375 98.6154 268.375 82.7261V51.0324Z" fill="url(#paint0_linear)"/>
</g>
<path d="M0.144531 33.3657H130.113C146.002 33.3657 158.883 46.2465 158.883 62.1358V159.099L123.004 131.038H28.9146C13.0253 131.038 0.144531 118.157 0.144531 102.267V33.3657Z" fill="#2C5271"/>
<rect x="19.9375" y="51.9158" width="36.5845" height="7.33446" fill="white"/>
<rect x="19.9375" y="67.7104" width="110.934" height="7.33446" fill="white"/>
<rect x="19.9375" y="82.8327" width="74.2005" height="7.06672" fill="white"/>
<rect x="19.9375" y="97.8494" width="50.3504" height="7.06672" fill="white"/>
<path d="M44.4596 7.71105C44.4801 7.40392 44.5481 7.11075 44.6366 6.83154H39.75V9.00238H44.6298C44.5005 8.59753 44.4324 8.16476 44.4596 7.71105Z" fill="#FF8AE2"/>
<path d="M51.2727 8.12274C51.2522 8.42986 51.1842 8.72303 51.0957 9.00223H55.9618V6.83142H51.1025C51.2318 7.23627 51.2931 7.66903 51.2727 8.12274Z" fill="#FF8AE2"/>
<path d="M52.3346 7.91318C52.3346 8.00392 52.3346 8.09466 52.3278 8.1854C52.2598 9.40691 51.7289 10.5237 50.8374 11.3404C49.9458 12.157 48.7956 12.5619 47.6046 12.4851C45.1478 12.3385 43.249 10.1607 43.4055 7.64095C43.4736 6.41945 44.0044 5.29566 44.896 4.48597C45.7875 3.67629 46.9377 3.26447 48.1287 3.34125C50.4971 3.48783 52.3346 5.51204 52.3346 7.91318ZM45.5085 7.92016C45.5085 9.19052 46.4749 10.2515 47.7203 10.3283C48.3465 10.3632 48.9522 10.1538 49.4218 9.72101C49.8914 9.29522 50.1704 8.70192 50.2112 8.05976C50.2793 6.75449 49.2993 5.58882 47.9994 5.50506L48.0606 4.42315L47.9994 5.50506C47.3733 5.47016 46.7675 5.67956 46.2979 6.11232C45.8283 6.53811 45.5493 7.13141 45.5085 7.77357C45.5153 7.82244 45.5085 7.8713 45.5085 7.92016Z" fill="#FF8AE2"/>
<path d="M169.67 44.9415C169.67 44.9415 178.044 29.5592 195.55 32.55C195.55 32.55 190.843 48.9066 169.67 44.9415Z" fill="#9C4668"/>
<path d="M161.572 36.2195C161.572 36.2195 152.963 20.9694 164.507 7.27822C164.507 7.27822 175.831 19.8174 161.572 36.2195Z" fill="#93C2DB"/>
<path d="M23.1328 33.7283L23.1328 22.2087L11.3202 22.2087L11.3202 33.7283H23.1328Z" fill="#9C4668"/>
<path d="M11.3203 45.7488L11.3203 33.7283H-0.000124931L-0.000124931 45.7488H11.3203Z" fill="#93C2DB"/>
<path d="M198.373 90.3402V72.4768H211.083V76.3844H203.28V79.4547H210.306V83.3623H203.28V90.3402H198.373Z" fill="white" fill-opacity="0.5"/>
<path d="M214.808 90.3402H209.512L215.479 72.4768H222.187L228.153 90.3402H222.858L218.903 77.3962H218.762L214.808 90.3402ZM213.82 83.2925H223.776V86.921H213.82V83.2925Z" fill="white" fill-opacity="0.5"/>
<path d="M235.517 83.7112H239.33L240.707 85.4208L243.037 88.0375L246.073 91.666H241.731L239.577 89.1889L238.13 87.1304L235.517 83.7112ZM246.038 81.4085C246.038 83.3972 245.647 85.0748 244.864 86.4413C244.082 87.802 243.025 88.8341 241.696 89.5378C240.366 90.2355 238.883 90.5844 237.247 90.5844C235.6 90.5844 234.111 90.2326 232.781 89.529C231.457 88.8196 230.404 87.7846 229.621 86.4239C228.845 85.0574 228.456 83.3856 228.456 81.4085C228.456 79.4198 228.845 77.7451 229.621 76.3844C230.404 75.0179 231.457 73.9857 232.781 73.288C234.111 72.5843 235.6 72.2325 237.247 72.2325C238.883 72.2325 240.366 72.5843 241.696 73.288C243.025 73.9857 244.082 75.0179 244.864 76.3844C245.647 77.7451 246.038 79.4198 246.038 81.4085ZM240.99 81.4085C240.99 80.3385 240.845 79.4372 240.557 78.7046C240.275 77.9661 239.854 77.4078 239.295 77.0299C238.742 76.6461 238.059 76.4542 237.247 76.4542C236.435 76.4542 235.75 76.6461 235.191 77.0299C234.638 77.4078 234.217 77.9661 233.929 78.7046C233.646 79.4372 233.505 80.3385 233.505 81.4085C233.505 82.4784 233.646 83.3827 233.929 84.1212C234.217 84.8538 234.638 85.4121 235.191 85.7959C235.75 86.1738 236.435 86.3628 237.247 86.3628C238.059 86.3628 238.742 86.1738 239.295 85.7959C239.854 85.4121 240.275 84.8538 240.557 84.1212C240.845 83.3827 240.99 82.4784 240.99 81.4085Z" fill="white" fill-opacity="0.5"/>
<circle cx="202.789" cy="154.383" r="25.6168" fill="#93C2DB"/>
<path d="M205.963 151.756V147.677H207.519C208.934 147.677 210.088 148.847 210.088 150.29L210.095 161.432C208.539 162.002 207.415 163.506 207.415 165.283C207.415 166.4 207.854 167.41 208.569 168.147C209.299 168.907 210.319 169.377 211.443 169.377C213.662 169.377 215.463 167.532 215.463 165.276C215.463 163.582 214.451 162.131 213.014 161.508L213.006 150.29C213.006 148.794 212.403 147.381 211.398 146.34C210.363 145.284 208.986 144.707 207.527 144.707H205.971V140.628L200.514 146.196L205.963 151.756ZM211.435 163.407C211.949 163.407 212.411 163.62 212.746 163.969C213.073 164.304 213.267 164.767 213.274 165.276C213.274 165.777 213.088 166.248 212.738 166.597C212.388 166.954 211.934 167.144 211.443 167.144C210.43 167.144 209.604 166.309 209.604 165.276C209.604 164.243 210.423 163.407 211.435 163.407Z" fill="white"/>
<path d="M199.636 165.283C199.636 163.59 198.623 162.139 197.186 161.516L197.179 149.963C198.616 149.34 199.621 147.882 199.621 146.188C199.621 143.925 197.812 142.087 195.6 142.087C193.382 142.094 191.58 143.932 191.58 146.196C191.58 147.274 191.99 148.292 192.727 149.067C192.734 149.075 192.749 149.09 192.756 149.097C193.188 149.538 193.702 149.849 194.26 150.047L194.268 161.44C192.712 162.01 191.588 163.514 191.588 165.291C191.588 166.408 192.027 167.418 192.741 168.162C193.471 168.922 194.491 169.393 195.615 169.393C197.834 169.385 199.636 167.547 199.636 165.283ZM195.6 148.064C195.109 148.064 194.647 147.867 194.305 147.518C193.962 147.168 193.761 146.697 193.761 146.196C193.761 145.163 194.58 144.32 195.593 144.32C196.107 144.32 196.568 144.532 196.903 144.882C197.231 145.216 197.432 145.679 197.432 146.188C197.439 147.229 196.613 148.064 195.6 148.064ZM195.615 167.16C194.603 167.16 193.776 166.316 193.776 165.291C193.776 164.79 193.962 164.319 194.312 163.969C194.662 163.62 195.116 163.423 195.608 163.423C196.122 163.423 196.583 163.635 196.918 163.985C197.246 164.319 197.447 164.782 197.447 165.291C197.447 166.316 196.628 167.16 195.615 167.16Z" fill="white"/>
<path d="M232.822 38.5687V29.5799H223.989V38.5687H232.822Z" fill="white"/>
<defs>
<filter id="filter0_d" x="164.353" y="48.1554" width="109.775" height="89.3434" filterUnits="userSpaceOnUse" color-interpolation-filters="sRGB">
<feFlood flood-opacity="0" result="BackgroundImageFix"/>
<feColorMatrix in="SourceAlpha" type="matrix" values="0 0 0 0 0 0 0 0 0 0 0 0 0 0 0 0 0 0 127 0"/>
<feOffset dy="2.87701"/>
<feGaussianBlur stdDeviation="2.87701"/>
<feColorMatrix type="matrix" values="0 0 0 0 0.00392157 0 0 0 0 0.054902 0 0 0 0 0.156863 0 0 0 0.05 0"/>
<feBlend mode="normal" in2="BackgroundImageFix" result="effect1_dropShadow"/>
<feBlend mode="normal" in="SourceGraphic" in2="effect1_dropShadow" result="shape"/>
</filter>
<linearGradient id="paint0_linear" x1="304.375" y1="102.708" x2="143.183" y2="91.5626" gradientUnits="userSpaceOnUse">
<stop stop-color="#FF8AE2"/>
<stop offset="1" stop-color="#9C4668"/>
</linearGradient>
</defs>
</svg>