<svg width="28" height="28" viewBox="0 0 28 28" fill="none" xmlns="http://www.w3.org/2000/svg">
<path d="M26 0H1.9375C0.875 0 0 0.9375 0 2.0625V26C0 27.125 0.875 28 1.9375 28H26C27.0625 28 28 27.125 28 26V2.0625C28 0.9375 27.0625 0 26 0ZM8.4375 24H4.3125V10.6875H8.4375V24ZM6.375 8.8125C5 8.8125 3.9375 7.75 3.9375 6.4375C3.9375 5.125 5 4 6.375 4C7.6875 4 8.75 5.125 8.75 6.4375C8.75 7.75 7.6875 8.8125 6.375 8.8125ZM24 24H19.8125V17.5C19.8125 16 19.8125 14 17.6875 14C15.5 14 15.1875 15.6875 15.1875 17.4375V24H11.0625V10.6875H15V12.5H15.0625C15.625 11.4375 17 10.3125 19 10.3125C23.1875 10.3125 24 13.125 24 16.6875V24Z" fill="#9C4668"/>
</svg>
