<svg width="16" height="13" viewBox="0 0 16 13" fill="none" xmlns="http://www.w3.org/2000/svg">
  <path d="M14.3438 3.21875C14.9688 2.75 15.5312 2.1875 15.9688 1.53125C15.4062 1.78125 14.75 1.96875 14.0938 2.03125C14.7812 1.625 15.2812 1 15.5312 0.21875C14.9062 0.59375 14.1875 0.875 13.4688 1.03125C12.8438 0.375 12 0 11.0625 0C9.25 0 7.78125 1.46875 7.78125 3.28125C7.78125 3.53125 7.8125 3.78125 7.875 4.03125C5.15625 3.875 2.71875 2.5625 1.09375 0.59375C0.8125 1.0625 0.65625 1.625 0.65625 2.25C0.65625 3.375 1.21875 4.375 2.125 4.96875C1.59375 4.9375 1.0625 4.8125 0.625 4.5625V4.59375C0.625 6.1875 1.75 7.5 3.25 7.8125C3 7.875 2.6875 7.9375 2.40625 7.9375C2.1875 7.9375 2 7.90625 1.78125 7.875C2.1875 9.1875 3.40625 10.125 4.84375 10.1562C3.71875 11.0312 2.3125 11.5625 0.78125 11.5625C0.5 11.5625 0.25 11.5312 0 11.5C1.4375 12.4375 3.15625 12.9688 5.03125 12.9688C11.0625 12.9688 14.3438 8 14.3438 3.65625C14.3438 3.5 14.3438 3.375 14.3438 3.21875Z" fill="#FF8AE2"/>
</svg>
