<svg width="30" height="35" viewBox="0 0 30 35" fill="none" xmlns="http://www.w3.org/2000/svg">
<path d="M19.8884 16.3393C19.8884 15.2679 19.0848 14.3973 18.1473 14.3973C17.1429 14.3973 16.3393 15.2679 16.3393 16.3393C16.3393 17.3438 17.1429 18.2143 18.1473 18.2143C19.0848 18.2143 19.8884 17.3438 19.8884 16.3393ZM11.8527 14.3973C10.9152 14.3973 10.1116 15.2679 10.1116 16.3393C10.1116 17.3438 10.9152 18.2143 11.8527 18.2143C12.8571 18.2143 13.5937 17.3438 13.5937 16.3393C13.6607 15.2679 12.8571 14.3973 11.8527 14.3973ZM30 3.54911C30 1.60714 28.3929 0 26.4509 0H3.48214C1.54018 0 0 1.60714 0 3.54911V26.7188C0 28.7277 1.54018 30.2679 3.48214 30.2679H22.9018L22.0312 27.1205C27.0536 31.7411 25.6473 30.5357 30 34.2857V3.54911ZM25.1116 19.8214C25.1116 19.8214 23.6384 22.2991 19.8214 22.433C19.8214 22.433 19.2187 21.6964 18.683 21.0268C20.9598 20.4241 21.8304 19.0179 21.8304 19.0179C21.0937 19.4866 20.4241 19.7545 19.8214 20.0223C16.1384 21.5625 12.0536 21.0268 9.10714 19.4196C9.10714 19.3527 8.70536 19.1518 8.4375 18.9509C8.4375 18.9509 9.24107 20.3571 11.4509 21.0268C10.9152 21.6295 10.3125 22.433 10.3125 22.433C6.49554 22.2991 5.08929 19.8214 5.08929 19.8214C5.08929 14.2634 7.5 9.84375 7.5 9.84375C9.97768 7.96875 12.3214 8.03571 12.3214 8.03571L12.5223 8.23661C9.44196 9.10714 8.03571 10.4464 8.03571 10.4464C8.03571 10.4464 8.37054 10.2455 9.04018 9.97768C12.9911 8.23661 17.7455 8.23661 21.8304 10.4464C21.8304 10.4464 20.4911 9.17411 17.5446 8.30357L17.8125 8.03571C17.8125 8.03571 20.1562 7.96875 22.6339 9.84375C22.6339 9.84375 25.1116 14.2634 25.1116 19.8214Z" fill="white"/>
</svg>
