<svg width="14" height="16" viewBox="0 0 14 16" fill="none" xmlns="http://www.w3.org/2000/svg">
<path d="M9.28125 7.625C9.28125 7.125 8.90625 6.71875 8.46875 6.71875C8 6.71875 7.625 7.125 7.625 7.625C7.625 8.09375 8 8.5 8.46875 8.5C8.90625 8.5 9.28125 8.09375 9.28125 7.625ZM5.53125 6.71875C5.09375 6.71875 4.71875 7.125 4.71875 7.625C4.71875 8.09375 5.09375 8.5 5.53125 8.5C6 8.5 6.34375 8.09375 6.34375 7.625C6.375 7.125 6 6.71875 5.53125 6.71875ZM14 1.65625C14 0.75 13.25 0 12.3438 0H1.625C0.71875 0 0 0.75 0 1.65625V12.4688C0 13.4062 0.71875 14.125 1.625 14.125H10.6875L10.2812 12.6562C12.625 14.8125 11.9688 14.25 14 16V1.65625ZM11.7188 9.25C11.7188 9.25 11.0312 10.4062 9.25 10.4688C9.25 10.4688 8.96875 10.125 8.71875 9.8125C9.78125 9.53125 10.1875 8.875 10.1875 8.875C9.84375 9.09375 9.53125 9.21875 9.25 9.34375C7.53125 10.0625 5.625 9.8125 4.25 9.0625C4.25 9.03125 4.0625 8.9375 3.9375 8.84375C3.9375 8.84375 4.3125 9.5 5.34375 9.8125C5.09375 10.0938 4.8125 10.4688 4.8125 10.4688C3.03125 10.4062 2.375 9.25 2.375 9.25C2.375 6.65625 3.5 4.59375 3.5 4.59375C4.65625 3.71875 5.75 3.75 5.75 3.75L5.84375 3.84375C4.40625 4.25 3.75 4.875 3.75 4.875C3.75 4.875 3.90625 4.78125 4.21875 4.65625C6.0625 3.84375 8.28125 3.84375 10.1875 4.875C10.1875 4.875 9.5625 4.28125 8.1875 3.875L8.3125 3.75C8.3125 3.75 9.40625 3.71875 10.5625 4.59375C10.5625 4.59375 11.7188 6.65625 11.7188 9.25Z" fill="#FF8AE2"/>
</svg>
