<svg width="470" height="432" viewBox="0 0 470 432" fill="none" xmlns="http://www.w3.org/2000/svg">
<path d="M86.397 227.755C82.1112 221.272 73.3304 219.469 66.8493 223.782C63.7394 225.847 61.5703 229.036 60.8125 232.747C60.0546 236.433 60.7863 240.197 62.8769 243.36C64.1836 245.347 67.0061 247.595 69.5149 247.961V257.815C69.5149 260.638 67.0583 267.252 60.1852 267.252H34.5222V242.053C36.4038 241.269 38.1547 240.119 39.6182 238.472C44.7926 232.669 44.2699 223.729 38.4683 218.554C32.6667 213.404 23.7291 213.901 18.5547 219.704C16.0458 222.527 14.7914 226.134 15.0005 229.898C15.2096 233.662 16.8821 237.113 19.7045 239.622C19.992 239.857 20.2795 240.093 20.5669 240.328C21.7168 241.217 22.9974 241.818 24.304 242.288V275.643C22.2918 276.427 20.4101 277.603 18.8944 279.328C13.72 285.131 14.2427 294.071 20.0443 299.247C20.3317 299.482 20.5931 299.717 20.9067 299.953C26.7083 304.37 35.0449 303.638 39.9841 298.097C44.7927 292.686 44.7927 284.19 39.9057 279.328C39.174 278.623 38.5729 278.047 38.0241 277.551H60.2114C73.8269 277.551 79.8637 266.023 79.8637 258.207V248.562C80.7522 248.222 81.6408 247.804 82.451 247.255C82.7645 247.046 83.0782 246.837 83.3656 246.601C86.0051 244.536 87.8083 241.635 88.4878 238.289C89.2195 234.682 88.4877 230.918 86.397 227.755ZM22.6576 229.48C22.5531 227.755 23.128 226.108 24.2779 224.827C26.5254 222.292 30.3409 221.978 32.9804 223.991C33.111 224.095 33.2417 224.2 33.3724 224.304C36.0118 226.657 36.247 230.735 33.895 233.401C31.543 236.041 27.44 236.276 24.8005 233.924C23.4939 232.774 22.736 231.205 22.6576 229.48ZM34.2347 293.052C31.8827 295.692 27.832 295.953 25.1403 293.574C22.4747 291.222 22.2656 287.118 24.6176 284.478C26.8651 281.942 30.6806 281.629 33.32 283.641C33.4507 283.746 33.5814 283.85 33.7121 283.955C36.3516 286.308 36.5867 290.385 34.2347 293.052ZM80.9613 236.851C80.6216 238.524 79.6285 239.962 78.1912 240.929C76.7538 241.87 75.029 242.21 73.3565 241.87C71.6839 241.53 70.2205 240.537 69.2797 239.126C68.3389 237.688 67.9992 235.963 68.3389 234.29C68.6525 232.774 69.4626 231.44 70.6909 230.499C70.8216 230.395 70.9784 230.29 71.109 230.212C74.0621 228.251 78.0866 229.062 80.0466 232.042C80.9613 233.427 81.3011 235.152 80.9613 236.851Z" fill="white"/>
<path d="M321.102 84.5356C321.102 84.5356 360.25 54.2659 342.061 0C342.061 0 319.665 7.78962 323.428 31.2892C327.688 57.6641 327.897 73.8706 321.102 84.5356Z" fill="#93C2DB"/>
<path d="M47.38 126.437C47.38 126.437 32.5362 154.877 0 141.546C0 141.546 13.0667 110.1 47.38 126.437Z" fill="#93C2DB"/>
<path d="M61.6486 136.763C61.6486 136.763 84.829 162.824 61.6226 186.506C61.6226 186.48 37.031 160.314 61.6486 136.763Z" fill="#93C2DB"/>
<path d="M388.093 121.742V97.6156H363.972V121.742H388.093Z" fill="#93C2DB"/>
<path d="M363.972 145.871V121.744H339.851V145.871H363.972Z" fill="#9C4668"/>
<path d="M308.218 380.959L318.541 370.634L303.828 355.917V354.061C298.496 355.342 291.806 356.283 284.855 357.616L308.218 380.959Z" fill="#FF8AE2"/>
<path d="M70.5082 118.125H91.1798L118.411 90.8615L108.088 80.5363L70.5082 118.125Z" fill="#FF8AE2"/>
<path d="M170.704 217.43L191.375 196.753V67.7017L153.795 30.0868L153.639 30.2436L153.482 30.0868H133.124L170.704 67.7017V217.43Z" fill="#FF8AE2"/>
<path d="M353.925 355.891H333.254L345.798 368.412L320.736 393.48L308.218 406.001L283.156 431.069H303.828L328.89 406.001L341.408 393.48L366.47 368.412L353.925 355.891Z" fill="#FF8AE2"/>
<path d="M170.704 406.001L145.668 431.069H166.34L191.375 406.001V271.434L233.032 229.768V209.091L170.704 271.434V406.001Z" fill="#FF8AE2"/>
<path d="M132.967 30.2431L133.123 30.0868H132.836L132.967 30.2431Z" fill="#FF8AE2"/>
<path d="M238.808 292.424C251.691 258.025 257.336 254.862 261.936 257.005C266.535 259.149 264.34 272.401 266.796 275.407C268.208 277.159 269.776 276.558 272.154 273.63C275.368 265.866 278.975 257.763 283.13 248.797V67.7017L245.55 30.1129L207.996 67.7017L233.058 92.7697V155.113L170.73 217.456V67.7017L133.15 30.1129L132.993 30.2698L132.836 30.1129L57.6765 105.291L70.5081 118.125L108.088 80.5363L120.606 93.0572V406.001L145.668 431.069L170.73 406.001V271.434L233.058 209.091V308.291C234.809 303.246 236.717 298.018 238.808 292.424ZM333.254 355.891L308.192 380.959L284.829 357.59C283.234 357.904 281.64 358.218 280.046 358.558C265.856 361.694 251.43 368.987 241.29 379.391C239.775 380.959 238.233 382.737 236.717 384.619L283.13 431.043L308.192 405.975L320.71 393.454L345.772 368.386L333.254 355.891Z" fill="#9C4668"/>
<path d="M283.156 248.797C283.391 248.274 283.627 247.778 283.862 247.255C293.688 226.213 299.646 217.377 303.828 214.345V67.7017L266.248 30.0868H245.576L283.156 67.6756V248.797Z" fill="#FF8AE2"/>
<path d="M467.188 185.435C454.095 169.855 412.778 183.16 397.516 190.14C382.28 197.145 371.931 199.759 371.513 192.989C370.573 177.54 369.919 162.484 357.114 172.522C344.308 182.559 333.75 210.895 326.146 221.429C318.541 231.963 315.326 235.649 313.131 232.434C310.936 229.245 314.15 216.201 309.734 213.691C305.317 211.182 299.437 213.901 283.862 247.229C279.393 256.796 275.577 265.37 272.18 273.604C269.802 276.531 268.234 277.132 266.823 275.381C264.392 272.375 266.561 259.122 261.962 256.979C261.91 256.953 261.883 256.953 261.831 256.926V84.1434H256.787V151.793L147.863 260.743V84.1434H142.819V383.495H147.863V268.689L256.787 159.739V257.58C252.789 260.429 247.432 269.473 238.834 292.398C227.492 322.668 221.35 343.057 216.333 372.804C214.242 385.089 213.38 405.74 213.38 405.74C213.38 405.74 227.596 375.548 241.316 361.433C251.456 351.003 265.882 343.736 280.072 340.599C297.059 336.835 314.046 336.443 315.17 328.758C316.659 318.747 300.561 310.696 299.359 308.474C298.758 307.35 299.385 305.572 301.632 303.899C308.009 301.312 314.673 299.508 321.259 298.567C338.507 296.162 355.493 297.077 357.218 289.496C359.492 279.642 344.047 270.336 343.028 268.01C342.009 265.683 345.955 261.161 357.819 260.403C369.684 259.645 400.103 269.656 410.844 268.846C421.585 268.036 428.537 261.109 425.531 253.006C422.526 244.902 400.495 240.093 406.323 230.604C409.564 225.35 433.319 218.214 445.288 214.345C455.245 211.13 477.903 198.191 467.188 185.435Z" fill="#93C2DB"/>
<path d="M84.3326 346.037H50.7511V379.626H84.3326V346.037Z" fill="#FF8AE2"/>
<path d="M204.756 419.175C204.886 418.234 244.243 310.304 313.758 258.077C362.654 221.35 399.685 207.496 408.414 204.569C409.459 204.203 410.609 204.83 410.87 205.902C411.132 206.869 410.583 207.862 409.642 208.176C401.514 210.895 364.849 224.461 316.058 261.135C254.88 307.089 217.143 397.27 209.852 416.195C209.042 418.287 206.951 419.515 204.756 419.175Z" fill="#FF8AE2"/>
</svg>
