<svg width="471" height="432" viewBox="0 0 471 432" fill="none" xmlns="http://www.w3.org/2000/svg">
<path d="M86.9677 227.755C82.6818 221.272 73.901 219.468 67.4199 223.782C64.31 225.847 62.1409 229.036 61.383 232.747C60.6252 236.433 61.3569 240.197 63.4476 243.36C64.7542 245.347 67.5767 247.595 70.0855 247.961V257.815C70.0855 260.638 67.6289 267.252 60.7558 267.252H35.0928V242.053C36.9744 241.269 38.7253 240.119 40.1888 238.472C45.3632 232.669 44.8405 223.729 39.0389 218.554C33.2373 213.404 24.2996 213.901 19.1252 219.704C16.6164 222.527 15.362 226.134 15.5711 229.898C15.7801 233.662 17.4527 237.113 20.2751 239.622C20.5626 239.857 20.85 240.093 21.1375 240.328C22.2874 241.217 23.5679 241.818 24.8746 242.288V275.643C22.8623 276.427 20.9807 277.603 19.4649 279.328C14.2905 285.131 14.8132 294.071 20.6148 299.247C20.9023 299.482 21.1636 299.717 21.4772 299.952C27.2789 304.37 35.6154 303.638 40.5547 298.097C45.3632 292.686 45.3632 284.19 40.4763 279.328C39.7445 278.622 39.1435 278.047 38.5947 277.551H60.782C74.3975 277.551 80.4343 266.023 80.4343 258.207V248.562C81.3229 248.222 82.2114 247.804 83.0215 247.255C83.3351 247.046 83.6488 246.837 83.9362 246.601C86.5757 244.536 88.3789 241.635 89.0584 238.289C89.7901 234.682 89.0584 230.918 86.9677 227.755ZM23.202 229.48C23.0975 227.755 23.6724 226.108 24.8223 224.827C27.0698 222.292 30.8853 221.978 33.5248 223.991C33.6554 224.095 33.7861 224.2 33.9168 224.304C36.5562 226.657 36.7914 230.735 34.4394 233.401C32.0874 236.041 27.9845 236.276 25.345 233.924C24.0644 232.774 23.3066 231.205 23.202 229.48ZM34.8053 293.052C32.4533 295.692 28.4026 295.953 25.7108 293.574C23.0452 291.222 22.8362 287.118 25.1882 284.478C27.4357 281.942 31.2511 281.629 33.8906 283.641C34.0213 283.746 34.152 283.85 34.2826 283.955C36.9221 286.308 37.1573 290.385 34.8053 293.052ZM81.5319 236.851C81.1922 238.524 80.1991 239.962 78.7618 240.929C77.3245 241.87 75.5996 242.21 73.9271 241.87C72.2546 241.53 70.7911 240.537 69.8503 239.125C68.9095 237.688 68.5697 235.963 68.9095 234.29C69.2231 232.774 70.0332 231.44 71.2615 230.499C71.3922 230.395 71.549 230.29 71.6796 230.212C74.6327 228.251 78.6573 229.062 80.6173 232.042C81.5319 233.427 81.8717 235.152 81.5319 236.851Z" fill="#183D5D"/>
<path d="M321.646 84.5356C321.646 84.5356 360.794 54.2659 342.605 0C342.605 0 320.209 7.78962 323.972 31.2892C328.232 57.6641 328.467 73.8707 321.646 84.5356Z" fill="#93C2DB"/>
<path d="M47.9503 126.438C47.9503 126.438 33.1065 154.877 0.570312 141.546C0.570312 141.546 13.637 110.1 47.9503 126.438Z" fill="#93C2DB"/>
<path d="M62.193 136.763C62.193 136.763 85.3733 162.824 62.1668 186.506C62.1668 186.48 37.6014 160.315 62.193 136.763Z" fill="#93C2DB"/>
<path d="M388.66 121.746V97.6191H364.539V121.746H388.66Z" fill="#93C2DB"/>
<path d="M364.539 145.874V121.747H340.418V145.874H364.539Z" fill="#9C4668"/>
<path d="M71.0522 118.125H91.7238L118.981 90.8615L108.632 80.5364L71.0522 118.125Z" fill="#FF73FA"/>
<path d="M308.762 380.959L319.085 370.634L304.372 355.917V354.061C299.041 355.342 292.35 356.283 285.399 357.616L308.762 380.959Z" fill="#FF73FA"/>
<path d="M171.274 217.43L191.946 196.753V67.7016L154.366 30.0867L154.209 30.2435L154.052 30.0867H133.694L171.274 67.7016V217.43Z" fill="#FF73FA"/>
<path d="M171.274 406.001L146.238 431.069H166.91L191.946 406.001V271.434L233.602 229.768V209.091L171.274 271.434V406.001Z" fill="#FF73FA"/>
<path d="M354.496 355.891H333.824L346.342 368.412L321.306 393.48L308.762 406.001L283.726 431.069H304.398L329.434 406.001L341.978 393.48L367.014 368.412L354.496 355.891Z" fill="#FF73FA"/>
<path d="M133.537 30.2431L133.693 30.0867H133.38L133.537 30.2431Z" fill="#FF73FA"/>
<path d="M84.903 346.037H51.3215V379.626H84.903V346.037Z" fill="#FF73FA"/>
<path d="M239.378 292.424C252.262 258.024 257.907 254.862 262.506 257.005C267.106 259.148 264.91 272.401 267.367 275.407C268.778 277.159 270.346 276.557 272.724 273.63C275.939 265.866 279.545 257.763 283.7 248.797V67.7016L246.147 30.0867L208.567 67.7016L233.629 92.7696V155.113L171.274 217.43V67.7016L133.694 30.0867L133.537 30.2435L133.381 30.0867L58.2208 105.29L71.0524 118.125L108.632 80.5362L121.15 93.0571V406.001L146.212 431.069L171.274 406.001V271.434L233.603 209.091V308.291C235.38 303.246 237.287 298.018 239.378 292.424ZM333.824 355.891L308.762 380.959L285.425 357.59C283.831 357.904 282.237 358.218 280.643 358.558C266.452 361.694 252.027 368.987 241.887 379.391C240.371 380.959 238.829 382.737 237.313 384.619L283.727 431.043L308.789 405.975L321.306 393.454L346.368 368.386L333.824 355.891Z" fill="#9C4668"/>
<path d="M283.726 248.797C283.961 248.274 284.197 247.778 284.432 247.255C294.258 226.213 300.216 217.377 304.398 214.345V67.7017L266.818 30.1129H246.146L283.726 67.7017V248.797Z" fill="#FF73FA"/>
<path d="M467.758 185.435C454.665 169.855 413.348 183.161 398.086 190.14C382.851 197.145 372.502 199.759 372.084 192.989C371.143 177.541 370.49 162.484 357.684 172.522C344.879 182.559 334.321 210.895 326.716 221.429C319.111 231.963 315.897 235.649 313.701 232.434C311.506 229.245 314.721 216.201 310.304 213.692C305.888 211.182 300.008 213.901 284.432 247.229C279.963 256.796 276.148 265.37 272.75 273.604C270.372 276.531 268.804 277.133 267.393 275.381C264.963 272.375 267.132 259.122 262.532 256.979C257.933 254.835 252.288 257.998 239.404 292.398C228.062 322.668 221.921 343.057 216.903 372.804C214.812 385.089 213.95 405.74 213.95 405.74C213.95 405.74 228.167 375.548 241.887 361.433C252.027 351.003 266.452 343.736 280.643 340.6C297.629 336.836 314.616 336.443 315.74 328.758C317.23 318.747 301.131 310.696 299.929 308.474C299.328 307.35 299.955 305.573 302.203 303.9C308.579 301.312 315.243 299.508 321.829 298.567C339.077 296.162 356.064 297.077 357.789 289.497C360.062 279.642 344.617 270.336 343.598 268.01C342.579 265.683 346.525 261.161 358.39 260.403C370.254 259.645 400.674 269.657 411.415 268.846C422.155 268.036 429.107 261.109 426.102 253.006C423.096 244.876 401.066 240.093 406.893 230.604C410.134 225.35 433.889 218.214 445.858 214.345C455.815 211.13 478.473 198.191 467.758 185.435Z" fill="#93C2DB"/>
<path d="M205.326 419.175C205.457 418.234 244.814 310.304 314.329 258.077C363.225 221.35 400.256 207.496 408.984 204.569C410.03 204.203 411.179 204.83 411.441 205.902C411.702 206.869 411.153 207.862 410.213 208.176C402.085 210.895 365.42 224.461 316.629 261.135C248.368 312.421 209.246 418.809 209.115 419.724L205.326 419.175Z" fill="#FF8AE2"/>
<path d="M257.332 257.58C259.266 256.195 260.886 256.273 262.375 256.927V84.1434H257.332V151.793L148.407 260.769V84.1434H143.364V383.495H148.407V268.689L257.332 159.739V257.58Z" fill="#93C2DB"/>
</svg>
