<svg width="224" height="139" viewBox="0 0 224 139" fill="none" xmlns="http://www.w3.org/2000/svg">
<path d="M43.7092 47.3289C43.7092 47.3289 28.6534 39.7441 30.9938 22.8102C30.9938 22.8102 46.8746 26.8375 43.7092 47.3289Z" fill="#FF8AE2"/>
<path d="M35.5662 55.3875C35.5662 55.3875 21.1585 64.1386 7.63234 53.4513C7.63234 53.4513 19.3488 42.1723 35.5662 55.3875Z" fill="#93C2DB"/>
<path d="M45.5381 127V115H33.5381V127H45.5381Z" fill="#9C4668"/>
<path d="M33.5381 139V127H21.9996V139H33.5381Z" fill="#FF8AE2"/>
<circle cx="101" cy="79.0001" r="48" fill="#072540"/>
<path d="M106.948 74.0775V66.4347H109.863C112.514 66.4347 114.676 68.6265 114.676 71.3306L114.69 92.2094C111.775 93.2768 109.668 96.0948 109.668 99.4252C109.668 101.517 110.491 103.41 111.83 104.791C113.198 106.214 115.109 107.096 117.215 107.096C121.372 107.096 124.748 103.638 124.748 99.4109C124.748 96.2371 122.851 93.5188 120.159 92.3517L120.145 71.3306C120.145 68.5269 119.015 65.8797 117.131 63.9298C115.192 61.9516 112.612 60.8699 109.877 60.8699H106.962V53.2272L96.7363 63.6594L106.948 74.0775ZM117.201 95.9098C118.164 95.9098 119.029 96.3083 119.656 96.963C120.27 97.5892 120.633 98.4574 120.647 99.4109C120.647 100.35 120.298 101.233 119.643 101.887C118.987 102.556 118.136 102.912 117.215 102.912C115.318 102.912 113.769 101.347 113.769 99.4109C113.769 97.4753 115.304 95.9098 117.201 95.9098Z" fill="#FF8AE2"/>
<path d="M95.0902 99.4252C95.0902 96.2514 93.193 93.533 90.5006 92.366L90.4866 70.7187C93.179 69.5516 95.0623 66.8191 95.0623 63.6453C95.0623 59.404 91.6724 55.9598 87.5292 55.9598C83.372 55.9741 79.9961 59.4183 79.9961 63.6595C79.9961 65.6805 80.7634 67.5876 82.1444 69.0393C82.1584 69.0535 82.1863 69.082 82.2002 69.0962C83.0093 69.9217 83.9719 70.5052 85.0182 70.8752L85.0321 92.2236C82.1165 93.2911 80.01 96.1091 80.01 99.4394C80.01 101.532 80.8331 103.424 82.1723 104.819C83.5394 106.242 85.4506 107.125 87.5571 107.125C91.7142 107.111 95.0902 103.666 95.0902 99.4252ZM87.5292 67.1606C86.6085 67.1606 85.7436 66.7906 85.1019 66.1359C84.4602 65.4812 84.0835 64.5988 84.0835 63.6595C84.0835 61.7239 85.618 60.1441 87.5152 60.1441C88.4778 60.1441 89.3427 60.5426 89.9705 61.1973C90.5843 61.8235 90.9609 62.6917 90.9609 63.6453C90.9749 65.5951 89.4264 67.1606 87.5292 67.1606ZM87.5571 102.941C85.6599 102.941 84.1114 101.361 84.1114 99.4394C84.1114 98.5001 84.4602 97.6177 85.1158 96.963C85.7715 96.3083 86.6224 95.9383 87.5431 95.9383C88.5057 95.9383 89.3706 96.3368 89.9984 96.9915C90.6122 97.6177 90.9888 98.4858 90.9888 99.4394C90.9888 101.361 89.4543 102.941 87.5571 102.941Z" fill="#FF8AE2"/>
<path d="M168.317 35.8556C168.317 35.8556 168.548 26.9346 175.119 22.0307C183.212 15.9926 183.163 9.18679 183.023 5.13163C183.023 5.13163 171.087 12.0318 167.978 17.4324C164.808 22.9464 165.231 26.7019 168.317 35.8556Z" fill="#9C4668"/>
<path d="M167.96 53.0358C167.96 53.0358 170.419 35.5229 183.521 27.7884C194.466 21.3213 211.898 20.9925 211.898 20.9925C211.898 20.9925 205.275 35.8848 190.455 41.2858C179.749 45.1895 174.633 43.097 167.96 53.0358Z" fill="#93C2DB"/>
<path d="M165.325 59.7317L164.25 59.3388C164.37 58.9867 167.323 50.6789 175.553 41.5593C182.756 33.5736 201.461 26.1243 202.253 25.8127L202.668 26.9005C202.476 26.9777 183.418 34.5574 176.395 42.3513C168.331 51.2859 165.353 59.6488 165.325 59.7317Z" fill="#FF8AE2"/>
</svg>
