<svg width="32" height="32" viewBox="0 0 32 32" fill="none" xmlns="http://www.w3.org/2000/svg">
<rect width="32" height="32" rx="8" fill="#5B6987"/>
<path d="M17.4688 16L20.8438 12.6562C21.0312 12.4688 21.0312 12.125 20.8438 11.9375L20.0625 11.1562C19.875 10.9688 19.5312 10.9688 19.3438 11.1562L16 14.5312L12.625 11.1562C12.4375 10.9688 12.0938 10.9688 11.9062 11.1562L11.125 11.9375C10.9375 12.125 10.9375 12.4688 11.125 12.6562L14.5 16L11.125 19.375C10.9375 19.5625 10.9375 19.9062 11.125 20.0938L11.9062 20.875C12.0938 21.0625 12.4375 21.0625 12.625 20.875L16 17.5L19.3438 20.875C19.5312 21.0625 19.875 21.0625 20.0625 20.875L20.8438 20.0938C21.0312 19.9062 21.0312 19.5625 20.8438 19.375L17.4688 16Z" fill="#072540"/>
</svg>
