<svg width="32" height="32" viewBox="0 0 32 32" fill="none" xmlns="http://www.w3.org/2000/svg">
<rect width="32" height="32" rx="8" fill="#072540"/>
<path d="M15.7665 8.53333C17.0499 8.53333 18.2749 8.88333 19.3832 9.52499C20.4915 10.1667 21.3665 11.0417 22.0082 12.15C22.6499 13.2583 22.9999 14.4833 22.9999 15.7667C22.9999 17.0792 22.6499 18.275 22.0082 19.3833C21.3665 20.4917 20.4915 21.3958 19.3832 22.0375C18.2749 22.6792 17.0499 23 15.7665 23C14.454 23 13.2582 22.6792 12.1499 22.0375C11.0415 21.3958 10.1374 20.4917 9.4957 19.3833C8.85404 18.275 8.5332 17.0792 8.5332 15.7667C8.5332 14.4833 8.85404 13.2583 9.4957 12.15C10.1374 11.0417 11.0415 10.1667 12.1499 9.52499C13.2582 8.88333 14.454 8.53333 15.7665 8.53333ZM17.429 18.7417C17.4874 18.8 17.5749 18.8292 17.6915 18.8C17.779 18.8 17.8665 18.7417 17.9249 18.6542L18.7415 17.5458C18.7999 17.4875 18.7999 17.4 18.7999 17.2833C18.7999 17.1958 18.7415 17.1083 18.6832 17.05L16.8165 15.7083V11.6833C16.8165 11.5958 16.7582 11.5083 16.6999 11.45C16.6415 11.3917 16.554 11.3333 16.4665 11.3333H15.0665C14.9499 11.3333 14.8624 11.3917 14.804 11.45C14.7457 11.5083 14.7165 11.5958 14.7165 11.6833V16.5833C14.7165 16.7 14.7457 16.8167 14.8624 16.875L17.429 18.7417Z" fill="#5B6987"/>
</svg>
