<svg width="32" height="32" viewBox="0 0 32 32" fill="none" xmlns="http://www.w3.org/2000/svg">
<rect width="32" height="32" rx="8" fill="#5B6987"/>
<path d="M18.375 20.8125C18.375 19.6094 17.3906 18.625 16.1875 18.625C14.957 18.625 14 19.6094 14 20.8125C14 22.043 14.957 23 16.1875 23C17.3906 23 18.375 22.043 18.375 20.8125ZM14.2461 9.71094L14.6016 17.1484C14.6289 17.4766 14.9297 17.75 15.2578 17.75H17.0898C17.418 17.75 17.7188 17.4766 17.7461 17.1484L18.1016 9.71094C18.1289 9.32812 17.8281 9 17.4453 9H14.9023C14.5195 9 14.2188 9.32812 14.2461 9.71094Z" fill="white"/>
</svg>
