<svg width="32" height="32" viewBox="0 0 32 32" fill="none" xmlns="http://www.w3.org/2000/svg">
<rect width="32" height="32" rx="8" fill="url(#paint0_linear)"/>
<path d="M17.045 17.0542L21.7959 17.0763C22.0611 17.0763 22.3041 16.8332 22.3041 16.5681V15.4632C22.3041 15.1981 22.0611 14.955 21.7959 14.955L17.045 14.9771V10.2041C17.045 9.93895 16.802 9.69588 16.5368 9.69588H15.4319C15.1668 9.69588 14.9237 9.93895 14.9237 10.2041L14.9458 14.955H10.1728C9.90768 14.955 9.66461 15.1981 9.66461 15.4632V16.5681C9.66461 16.8332 9.90768 17.0763 10.1728 17.0763H14.9458L14.9237 21.8272C14.9237 22.0923 15.1668 22.3354 15.4319 22.3354H16.5368C16.802 22.3354 17.045 22.0923 17.045 21.8272V17.0542Z" fill="#072540"/>
<defs>
<linearGradient id="paint0_linear" x1="1.13622e-07" y1="24" x2="32.0084" y2="23.9663" gradientUnits="userSpaceOnUse">
<stop stop-color="#9C4668"/>
<stop offset="1" stop-color="#FF8AE2"/>
</linearGradient>
</defs>
</svg>
