<svg width="32" height="32" viewBox="0 0 32 32" fill="none" xmlns="http://www.w3.org/2000/svg">
<rect width="32" height="32" rx="8" fill="url(#paint0_linear)"/>
<path d="M13.9506 21.0833C14.0506 21.2333 14.2006 21.2833 14.4006 21.2833C14.5756 21.2833 14.7256 21.2333 14.8506 21.0833L22.2256 13.7333C22.3256 13.6333 22.4006 13.4833 22.4006 13.2833C22.4006 13.1083 22.3256 12.9583 22.2256 12.8333L21.3006 11.9333C21.1756 11.8083 21.0256 11.7333 20.8506 11.7333C20.6756 11.7333 20.5256 11.8083 20.4006 11.9333L14.4006 17.9333L11.6006 15.1333C11.4506 15.0083 11.3006 14.9333 11.1256 14.9333C10.9506 14.9333 10.8006 15.0083 10.7006 15.1333L9.77559 16.0333C9.65059 16.1583 9.60059 16.3083 9.60059 16.4833C9.60059 16.6833 9.65059 16.8333 9.77559 16.9333L13.9506 21.0833Z" fill="white"/>
<defs>
<linearGradient id="paint0_linear" x1="1.13622e-07" y1="24" x2="32.0084" y2="23.9663" gradientUnits="userSpaceOnUse">
<stop stop-color="#9C4668"/>
<stop offset="1" stop-color="#FF8AE2"/>
</linearGradient>
</defs>
</svg>
