<svg width="49" height="21" viewBox="0 0 49 21" fill="none" xmlns="http://www.w3.org/2000/svg">
<path d="M4.48542 20.1915V6.75188H0.952881V20.1915H4.48542ZM27.9648 20.3243V17.0308C27.4469 17.0308 27.0087 17.0042 26.6899 16.9511C26.3181 16.898 26.0392 16.7652 25.8533 16.5792C25.6674 16.3933 25.5478 16.1277 25.4814 15.7824C25.4283 15.4504 25.4018 15.0122 25.4018 14.481V9.77977H27.9648V6.75188H25.4018V1.50619H21.8559V14.5075C21.8559 15.6098 21.9489 16.5394 22.1348 17.2831C22.3207 18.0135 22.6395 18.6111 23.0777 19.0626C23.516 19.5142 24.1003 19.8329 24.8041 20.0321C25.5213 20.2313 26.4243 20.3243 27.5 20.3243H27.9648ZM48.257 20.1915V0.470337H44.7112V20.1915H48.257ZM18.4429 8.06662C17.4602 7.0042 16.079 6.47299 14.3261 6.47299C13.4761 6.47299 12.7059 6.64564 12.002 6.99092C11.3114 7.33621 10.7138 7.81429 10.249 8.42518L10.0498 8.67751V8.45174V6.75188H6.55713V20.1915H10.0764V13.0334V13.5248C10.0764 13.4451 10.0764 13.3654 10.0764 13.2857C10.1162 12.0241 10.4217 11.0945 11.006 10.4969C11.6302 9.85945 12.3871 9.54072 13.2504 9.54072C14.2729 9.54072 15.0565 9.85945 15.5744 10.4703C16.079 11.0812 16.3447 11.9444 16.3447 13.0467V13.0733V20.1782H19.917V12.5553C19.9303 10.643 19.4257 9.12903 18.4429 8.06662ZM42.8785 13.4451C42.8785 12.4756 42.7059 11.5726 42.3739 10.7227C42.0286 9.88601 41.5505 9.14231 40.9529 8.50486C40.342 7.86741 39.6116 7.37605 38.7617 7.01748C37.9117 6.65892 36.9688 6.48627 35.9463 6.48627C34.9768 6.48627 34.0605 6.6722 33.2105 7.03076C32.3606 7.40261 31.6169 7.89398 30.9927 8.51815C30.3686 9.14231 29.8639 9.88601 29.5053 10.7359C29.1335 11.5859 28.9609 12.5022 28.9609 13.4717C28.9609 14.4411 29.1335 15.3575 29.4788 16.2074C29.8241 17.0573 30.3154 17.801 30.9263 18.4252C31.5372 19.0494 32.2942 19.554 33.1707 19.9126C34.0472 20.2844 35.0166 20.4703 36.0525 20.4703C39.0538 20.4703 40.913 19.1025 42.0286 17.8276L39.4788 15.8887C38.9476 16.5261 37.6727 17.3893 36.0791 17.3893C35.083 17.3893 34.2597 17.1636 33.6355 16.6988C33.0113 16.2472 32.5864 15.6098 32.3606 14.8262L32.3208 14.7067H42.8785V13.4451ZM32.3473 12.21C32.3473 11.2273 33.4761 9.51416 35.9064 9.50088C38.3367 9.50088 39.4788 11.214 39.4788 12.1968L32.3473 12.21Z" fill="#183D5D"/>
</svg>
