<svg width="49" height="21" viewBox="0 0 49 21" fill="none" xmlns="http://www.w3.org/2000/svg">
<path d="M4.48548 20.1915V6.75188H0.952942V20.1915H4.48548ZM27.9649 20.3243V17.0308C27.447 17.0308 27.0087 17.0042 26.69 16.9511C26.3182 16.898 26.0393 16.7652 25.8533 16.5792C25.6674 16.3933 25.5479 16.1277 25.4815 15.7824C25.4284 15.4504 25.4018 15.0122 25.4018 14.481V9.77977H27.9649V6.75188H25.4018V1.50619H21.856V14.5075C21.856 15.6098 21.949 16.5394 22.1349 17.2831C22.3208 18.0135 22.6395 18.6111 23.0778 19.0626C23.516 19.5142 24.1004 19.8329 24.8042 20.0321C25.5213 20.2313 26.4244 20.3243 27.5001 20.3243H27.9649ZM48.2571 20.1915V0.470337H44.7113V20.1915H48.2571ZM18.443 8.06662C17.4602 7.0042 16.0791 6.47299 14.3261 6.47299C13.4762 6.47299 12.7059 6.64564 12.0021 6.99092C11.3115 7.33621 10.7139 7.81429 10.2491 8.42518L10.0499 8.67751V8.45174V6.75188H6.55719V20.1915H10.0764V13.0334V13.5248C10.0764 13.4451 10.0764 13.3654 10.0764 13.2857C10.1163 12.0241 10.4217 11.0945 11.0061 10.4969C11.6302 9.85945 12.3872 9.54072 13.2504 9.54072C14.273 9.54072 15.0565 9.85945 15.5745 10.4703C16.0791 11.0812 16.3447 11.9444 16.3447 13.0467V13.0733V20.1782H19.9171V12.5553C19.9304 10.643 19.4257 9.12903 18.443 8.06662ZM42.8786 13.4451C42.8786 12.4756 42.7059 11.5726 42.3739 10.7227C42.0286 9.88601 41.5506 9.14231 40.953 8.50486C40.3421 7.86741 39.6117 7.37605 38.7617 7.01748C37.9118 6.65892 36.9689 6.48627 35.9463 6.48627C34.9769 6.48627 34.0605 6.6722 33.2106 7.03076C32.3607 7.40261 31.617 7.89398 30.9928 8.51815C30.3686 9.14231 29.864 9.88601 29.5054 10.7359C29.1336 11.5859 28.9609 12.5022 28.9609 13.4717C28.9609 14.4411 29.1336 15.3575 29.4788 16.2074C29.8241 17.0573 30.3155 17.801 30.9264 18.4252C31.5373 19.0494 32.2943 19.554 33.1707 19.9126C34.0472 20.2844 35.0167 20.4703 36.0526 20.4703C39.0539 20.4703 40.9131 19.1025 42.0286 17.8276L39.4788 15.8887C38.9476 16.5261 37.6727 17.3893 36.0791 17.3893C35.0831 17.3893 34.2597 17.1636 33.6356 16.6988C33.0114 16.2472 32.5864 15.6098 32.3607 14.8262L32.3208 14.7067H42.8786V13.4451ZM32.3474 12.21C32.3474 11.2273 33.4762 9.51416 35.9065 9.50088C38.3368 9.50088 39.4788 11.214 39.4788 12.1968L32.3474 12.21Z" fill="white"/>
</svg>
