<svg width="49" height="21" viewBox="0 0 60 26" fill="none" xmlns="http://www.w3.org/2000/svg">
  <g clip-path="url(#clip0)" fill="#183D5D">
    <path d="M5.61 1.055H.965V5.7h4.643V1.055zM5.494 25.25V8.526H1.098V25.25h4.396zm29.218.166v-4.099c-.644 0-1.19-.033-1.586-.1-.463-.065-.81-.23-1.041-.462-.232-.231-.38-.562-.463-.991-.066-.414-.099-.959-.099-1.62v-5.85h3.19V8.526h-3.19V1.998H27.11v16.179c0 1.372.116 2.529.348 3.454.23.909.628 1.653 1.173 2.215.545.561 1.272.958 2.148 1.206.893.248 2.016.364 3.355.364h.578zm25.253-.166V.71h-4.413V25.25h4.413zM22.863 10.162C21.64 8.84 19.922 8.179 17.74 8.179c-1.058 0-2.016.214-2.892.644a6.186 6.186 0 00-2.182 1.785l-.247.314V8.526H8.072V25.25h4.38v-8.907.314c.05-1.57.43-2.727 1.156-3.47.777-.794 1.72-1.19 2.793-1.19 1.273 0 2.248.396 2.893 1.156.628.76.958 1.834.958 3.206v8.875h4.446v-9.486c.016-2.38-.612-4.264-1.835-5.586zm30.409 6.693a9.21 9.21 0 00-.628-3.388 9.07 9.07 0 00-1.769-2.76 8.056 8.056 0 00-2.727-1.85c-1.057-.447-2.23-.662-3.503-.662a8.693 8.693 0 00-3.405.678c-1.057.462-1.983 1.074-2.76 1.85a8.621 8.621 0 00-1.85 2.76c-.463 1.058-.678 2.198-.678 3.405 0 1.206.215 2.347.645 3.404a8.493 8.493 0 001.8 2.76 8.25 8.25 0 002.794 1.851c1.09.463 2.297.694 3.586.694 3.735 0 6.049-1.702 7.437-3.289l-3.173-2.412c-.661.793-2.248 1.867-4.23 1.867-1.24 0-2.265-.28-3.042-.86-.776-.561-1.305-1.354-1.586-2.33l-.05-.148h13.139v-1.57zm-13.106-1.537c0-1.223 1.405-3.355 4.43-3.371 3.024 0 4.445 2.132 4.445 3.354l-8.875.017z"/>
  </g>
  <defs>
    <clipPath id="clip0">
      <path fill="#183D5D" transform="translate(.966 .708)" d="M0 0h58.999v24.889H0z"/>
    </clipPath>
  </defs>
</svg>
