<svg width="48" height="59" viewBox="0 0 48 59" fill="none" xmlns="http://www.w3.org/2000/svg">
<path fill-rule="evenodd" clip-rule="evenodd" d="M3 0C1.34315 0 0 1.34315 0 3V45C0 46.6569 1.34315 48 3 48H13.3726L24 58.6274L34.6274 48H45C46.6569 48 48 46.6569 48 45V3C48 1.34315 46.6569 0 45 0H3Z" fill="#072540"/>
<path d="M20.4972 18.1004V24.0054L22.0704 22.6009V18.1004V13.8556L19.2065 11.3069L19.1964 11.3159L19.1863 11.3069H17.6333L20.4972 13.8556V18.1004Z" fill="#FF8AE2"/>
<path d="M29.0638 14.7036V18.1004V30.8393V33.3879L30.9698 35.0841L31.7563 34.3841L30.637 33.3879V30.8393V18.1004V14.7036V13.8556L27.773 11.3069H26.1999L29.0638 13.8556V14.7036Z" fill="#FF8AE2"/>
<path d="M17.6333 11.3069H17.6081L17.6232 11.3159L17.6333 11.3069Z" fill="#FF8AE2"/>
<path d="M25.2419 23.4399L20.4973 27.6623V36.7846L18.5863 38.4852H20.1645L22.0704 36.7846V27.6623L25.2419 24.8399V23.4399Z" fill="#FF8AE2"/>
<path d="M15.7224 14.7261L12.8635 17.2703H14.4366L16.514 15.4261L15.7224 14.7261Z" fill="#FF8AE2"/>
<path d="M34.454 33.3879H32.8808L33.8338 34.236L31.9228 35.9366L30.9698 36.7847L29.0639 38.4853H30.6371L32.543 36.7847L33.501 35.9366L35.4069 34.236L34.454 33.3879Z" fill="#FF8AE2"/>
<path d="M30.9699 35.0841L29.0639 33.3879V30.8393V18.1004V14.7036V13.8556L26.2 11.3069L23.336 13.8556L25.242 15.5517V19.7785L20.4973 24.0054V18.1004V13.8556L17.6334 11.3069L17.6233 11.3159L17.6082 11.3069L11.8853 16.4042L12.8635 17.2702L15.7224 14.7261L16.6804 15.5741V36.7847L18.5863 38.4853L20.4973 36.7847V27.6624L25.242 23.44V30.8393V35.0841L29.0639 38.4853L30.9699 36.7847L31.9228 35.9366L33.8338 34.236L32.8808 33.3879L30.9699 35.0841Z" fill="#9C4668"/>
<path d="M18.7527 14.9685H18.3694V35.2592H18.7527V14.9685Z" fill="#93C2DB"/>
<path d="M27.4353 29.933L27.0521 30.2381V14.9685H27.4353V29.933Z" fill="#93C2DB"/>
<path d="M18.7376 27.4919L18.4451 27.2137L27.0924 19.5183L27.3849 19.7965L18.7376 27.4919Z" fill="#93C2DB"/>
</svg>
