<svg width="314" height="200" viewBox="0 0 314 200" fill="none" xmlns="http://www.w3.org/2000/svg">
<rect x="66.0781" y="70.0567" width="178.801" height="109.943" fill="#183D5D"/>
<path opacity="0.25" fill-rule="evenodd" clip-rule="evenodd" d="M72.3553 76.1263H71.7676V76.714V100.277V100.864V100.865V101.452V124.427V125.015V125.015V125.603V148.578V149.165V149.165V149.753V173.316V173.904H72.3553H95.5407H95.9667H96.1284H96.5544H119.314H119.74H119.902H120.327H143.087H143.513H143.675H144.101H166.86H167.286H167.447H167.874H190.633H191.059H191.221H191.646H214.406H214.832H214.994H215.42H238.605H239.193V173.316V149.753V149.165V149.165V148.578V125.603V125.015V124.427V101.452V100.864V100.277V76.714V76.1263H238.605H215.42H214.994H214.832H214.406H191.646H191.221H191.059H190.633H167.874H167.447H167.286H166.86H144.101H143.675H143.513H143.087H120.327H119.902H119.74H119.314H96.5544H96.1284H95.9667H95.5407H72.3553ZM238.018 148.578V125.603H215.582V148.578H238.018ZM215.582 149.753H238.018V172.728H215.582V149.753ZM214.245 148.578V125.603H191.809V148.578H214.245ZM191.809 149.753H214.245V172.728H191.809V149.753ZM190.471 148.578V125.603H168.035V148.578H190.471ZM168.035 149.753H190.471V172.728H168.035V149.753ZM166.698 148.578V125.603H144.263V148.578H166.698ZM144.263 149.753H166.698V172.728H144.263V149.753ZM142.925 148.578V125.603H120.489V148.578H142.925ZM120.489 149.753H142.925V172.728H120.489V149.753ZM119.152 148.578V125.603H96.7161V148.578H119.152ZM96.7161 149.753H119.152V172.728H96.7161V149.753ZM95.3789 148.578V125.603H72.943V148.578H95.3789ZM72.943 149.753H95.3789V172.728H72.943V149.753ZM72.943 100.277V77.3017H95.3789V100.277H72.943ZM72.943 124.427V101.452H95.3789V124.427H72.943ZM96.7161 77.3017V100.277H119.152V77.3017H96.7161ZM96.7161 124.427V101.452H119.152V124.427H96.7161ZM120.489 77.3017V100.277H142.925V77.3017H120.489ZM120.489 124.427V101.452H142.925V124.427H120.489ZM144.263 77.3017V100.277H166.698V77.3017H144.263ZM144.263 124.427V101.452H166.698V124.427H144.263ZM168.035 77.3017V100.277H190.471V77.3017H168.035ZM168.035 124.427V101.452H190.471V124.427H168.035ZM191.809 77.3017V100.277H214.245V77.3017H191.809ZM191.809 124.427V101.452H214.245V124.427H191.809ZM215.582 77.3017V100.277H238.018V77.3017H215.582ZM215.582 124.427V101.452H238.018V124.427H215.582Z" fill="#93C2DB"/>
<path d="M66.0781 65.7646C66.0781 60.5712 70.2882 56.3611 75.4816 56.3611H235.475C240.669 56.3611 244.879 60.5712 244.879 65.7647V70.1412H66.0781V65.7646Z" fill="url(#paint0_linear)"/>
<path d="M43.7082 29.3289C43.7082 29.3289 28.6524 21.7441 30.9929 4.81019C30.9929 4.81019 46.8736 8.83747 43.7082 29.3289Z" fill="white"/>
<path d="M35.5652 37.3875C35.5652 37.3875 21.1575 46.1386 7.63136 35.4513C7.63136 35.4513 19.3478 24.1723 35.5652 37.3875Z" fill="#93C2DB"/>
<path d="M59.5391 80.6547V62.1915H41.0759V80.6547H59.5391Z" fill="#9C4668"/>
<path d="M41.0762 99.1178V80.6547H23.3232L23.3232 99.1178H41.0762Z" fill="white"/>
<circle cx="239.416" cy="115.03" r="24.658" fill="#FF8AE2"/>
<path d="M242.47 112.501V108.575H243.968C245.33 108.575 246.441 109.701 246.441 111.09L246.448 121.816C244.95 122.364 243.868 123.812 243.868 125.523C243.868 126.597 244.291 127.57 244.979 128.279C245.681 129.01 246.663 129.463 247.745 129.463C249.88 129.463 251.615 127.687 251.615 125.515C251.615 123.885 250.64 122.488 249.257 121.889L249.25 111.09C249.25 109.65 248.669 108.29 247.702 107.288C246.706 106.272 245.38 105.716 243.975 105.716H242.478V101.79L237.225 107.149L242.47 112.501ZM247.738 123.717C248.232 123.717 248.676 123.921 248.999 124.258C249.314 124.579 249.501 125.025 249.508 125.515C249.508 125.998 249.329 126.451 248.992 126.787C248.655 127.131 248.218 127.314 247.745 127.314C246.77 127.314 245.975 126.51 245.975 125.515C245.975 124.521 246.763 123.717 247.738 123.717Z" fill="white"/>
<path d="M236.379 125.523C236.379 123.892 235.404 122.496 234.021 121.896L234.014 110.776C235.397 110.176 236.365 108.772 236.365 107.142C236.365 104.963 234.623 103.194 232.495 103.194C230.359 103.201 228.625 104.971 228.625 107.149C228.625 108.188 229.019 109.167 229.729 109.913C229.736 109.92 229.75 109.935 229.757 109.942C230.173 110.366 230.667 110.666 231.205 110.856L231.212 121.823C229.714 122.371 228.632 123.819 228.632 125.53C228.632 126.605 229.055 127.577 229.743 128.293C230.445 129.025 231.427 129.478 232.509 129.478C234.645 129.471 236.379 127.701 236.379 125.523ZM232.495 108.948C232.022 108.948 231.578 108.758 231.248 108.422C230.918 108.085 230.725 107.632 230.725 107.149C230.725 106.155 231.513 105.344 232.488 105.344C232.982 105.344 233.426 105.548 233.749 105.885C234.064 106.206 234.258 106.652 234.258 107.142C234.265 108.144 233.469 108.948 232.495 108.948ZM232.509 127.328C231.535 127.328 230.739 126.517 230.739 125.53C230.739 125.047 230.918 124.594 231.255 124.258C231.592 123.921 232.029 123.731 232.502 123.731C232.996 123.731 233.441 123.936 233.763 124.272C234.079 124.594 234.272 125.04 234.272 125.53C234.272 126.517 233.484 127.328 232.509 127.328Z" fill="white"/>
<path d="M258.367 56.2624C258.367 56.2624 258.598 47.3413 265.169 42.4375C273.262 36.3993 273.213 29.5935 273.073 25.5384C273.073 25.5384 261.137 32.4385 258.028 37.8392C254.857 43.3531 255.281 47.1086 258.367 56.2624Z" fill="white"/>
<path d="M258.009 73.4423C258.009 73.4423 260.467 55.9295 273.57 48.195C284.515 41.7279 301.947 41.399 301.947 41.399C301.947 41.399 295.324 56.2914 280.504 61.6923C269.797 65.596 264.682 63.5036 258.009 73.4423Z" fill="#93C2DB"/>
<path d="M255.375 80.1383L254.3 79.7454C254.42 79.3933 257.373 71.0855 265.603 61.9659C272.806 53.9803 291.511 46.531 292.303 46.2193L292.718 47.3072C292.526 47.3843 273.467 54.964 266.445 62.7579C258.381 71.6925 255.403 80.0554 255.375 80.1383Z" fill="#FF8AE2"/>
<path d="M292.484 87.7476C292.518 87.2501 292.63 86.7752 292.776 86.3229H284.721V89.8394H292.765C292.551 89.1836 292.439 88.4825 292.484 87.7476Z" fill="white"/>
<path d="M303.714 88.4146C303.68 88.9121 303.568 89.387 303.422 89.8393H311.443V86.3228H303.433C303.646 86.9786 303.747 87.6797 303.714 88.4146Z" fill="white"/>
<path d="M305.464 88.0755C305.464 88.2225 305.464 88.3695 305.453 88.5164C305.341 90.4952 304.466 92.3043 302.996 93.6272C301.527 94.9501 299.631 95.6059 297.667 95.4815C293.617 95.2441 290.487 91.7163 290.745 87.6345C290.858 85.6558 291.733 83.8353 293.202 82.5237C294.672 81.2121 296.568 80.545 298.531 80.6694C302.435 80.9068 305.464 84.1859 305.464 88.0755ZM294.212 88.0868C294.212 90.1446 295.805 91.8633 297.858 91.9877C298.89 92.0442 299.889 91.705 300.663 91.004C301.437 90.3143 301.897 89.3532 301.964 88.3129C302.076 86.1985 300.461 84.3102 298.318 84.1746L298.419 82.422L298.318 84.1746C297.286 84.118 296.287 84.4572 295.513 85.1583C294.739 85.848 294.279 86.8091 294.212 87.8493C294.223 87.9285 294.212 88.0076 294.212 88.0868Z" fill="white"/>
<defs>
<linearGradient id="paint0_linear" x1="66.0781" y1="66.6962" x2="244.893" y2="64.2557" gradientUnits="userSpaceOnUse">
<stop stop-color="#9C4668"/>
<stop offset="1" stop-color="#FF8AE2"/>
</linearGradient>
</defs>
</svg>
