<svg width="32" height="26" viewBox="0 0 32 26" fill="none" xmlns="http://www.w3.org/2000/svg">
<path d="M28.6875 6.5C29.9375 5.5625 31.0625 4.4375 31.9375 3.125C30.8125 3.625 29.5 4 28.1875 4.125C29.5625 3.3125 30.5625 2.0625 31.0625 0.5C29.8125 1.25 28.375 1.8125 26.9375 2.125C25.6875 0.8125 24 0.0625 22.125 0.0625C18.5 0.0625 15.5625 3 15.5625 6.625C15.5625 7.125 15.625 7.625 15.75 8.125C10.3125 7.8125 5.4375 5.1875 2.1875 1.25C1.625 2.1875 1.3125 3.3125 1.3125 4.5625C1.3125 6.8125 2.4375 8.8125 4.25 10C3.1875 9.9375 2.125 9.6875 1.25 9.1875V9.25C1.25 12.4375 3.5 15.0625 6.5 15.6875C6 15.8125 5.375 15.9375 4.8125 15.9375C4.375 15.9375 4 15.875 3.5625 15.8125C4.375 18.4375 6.8125 20.3125 9.6875 20.375C7.4375 22.125 4.625 23.1875 1.5625 23.1875C1 23.1875 0.5 23.125 0 23.0625C2.875 24.9375 6.3125 26 10.0625 26C22.125 26 28.6875 16.0625 28.6875 7.375C28.6875 7.0625 28.6875 6.8125 28.6875 6.5Z" fill="#9C4668"/>
</svg>
